<?xml version="1.0" standalone="no"?>
<!DOCTYPE svg PUBLIC "-//W3C//DTD SVG 20010904//EN"
 "http://www.w3.org/TR/2001/REC-SVG-20010904/DTD/svg10.dtd">
<svg version="1.0" xmlns="http://www.w3.org/2000/svg"
 width="700.000000pt" height="700.000000pt" viewBox="0 0 700.000000 700.000000"
 preserveAspectRatio="xMidYMid meet">
<metadata>
Created by potrace 1.14, written by Peter Selinger 2001-2017
</metadata>
<g transform="translate(0.000000,700.000000) scale(0.100000,-0.100000)"
fill="#000000" stroke="none">
<path d="M910 6536 c0 -5 -3 -6 -7 -3 -3 4 -13 1 -21 -6 -13 -9 -14 -9 -8 1 8
14 -3 16 -24 2 -9 -5 -19 -5 -27 2 -11 8 -12 7 -6 -8 6 -17 5 -17 -10 -5 -15
12 -21 9 -18 -11 0 -5 -3 -8 -9 -8 -5 0 -10 6 -10 13 0 7 -4 6 -10 -4 -6 -10
-21 -15 -39 -14 -23 1 -28 -1 -21 -10 7 -9 3 -12 -18 -10 -30 1 -53 -14 -44
-30 3 -5 -2 -4 -11 4 -11 9 -17 10 -17 2 0 -6 -7 -11 -16 -11 -8 0 -13 -4 -10
-9 6 -9 -15 -21 -44 -27 -8 -2 -16 -8 -18 -14 -2 -5 -8 -8 -13 -4 -5 3 -9 0
-9 -6 0 -6 -4 -9 -9 -5 -6 3 -15 -4 -21 -15 -6 -11 -16 -19 -23 -17 -7 1 -11
-4 -9 -10 1 -7 -2 -14 -8 -14 -5 -1 -13 -2 -17 -3 -11 -2 -73 -63 -73 -70 0
-4 -11 -17 -25 -30 -13 -13 -22 -26 -18 -29 3 -4 -1 -7 -10 -7 -10 0 -16 -6
-15 -12 2 -7 -3 -12 -11 -10 -9 2 -11 -3 -7 -14 4 -11 2 -15 -8 -11 -11 4 -13
1 -9 -10 4 -9 -1 -19 -11 -25 -9 -5 -14 -13 -11 -19 4 -5 -1 -9 -11 -9 -14 0
-14 -3 -4 -16 11 -12 11 -15 -1 -12 -8 2 -13 -3 -12 -9 2 -7 -2 -13 -8 -13 -5
0 -7 -4 -4 -10 3 -5 1 -10 -5 -10 -6 0 -8 -4 -5 -10 3 -5 1 -10 -5 -10 -7 0
-9 -7 -6 -16 4 -11 2 -15 -8 -11 -12 5 -13 1 -6 -18 7 -18 6 -23 -4 -19 -9 3
-12 -4 -11 -25 1 -17 -2 -28 -7 -25 -4 3 -8 -4 -8 -16 0 -14 -4 -19 -12 -14
-10 6 -10 5 -1 -8 7 -8 10 -18 6 -22 -4 -3 -9 -14 -11 -24 -4 -18 -5 -4682 -1
-4739 1 -18 5 -30 9 -28 5 3 11 -2 14 -11 4 -12 2 -15 -9 -10 -12 4 -13 2 -2
-14 6 -11 16 -20 22 -20 5 0 3 -5 -5 -10 -10 -6 -11 -10 -2 -10 6 0 12 -11 12
-25 0 -15 6 -25 14 -25 9 0 12 -7 9 -20 -3 -11 0 -20 6 -20 6 0 11 -9 11 -20
0 -11 5 -20 11 -20 5 0 8 -4 5 -9 -3 -5 1 -11 9 -15 8 -3 15 -15 15 -26 0 -14
4 -19 12 -14 8 5 9 0 6 -14 -4 -12 -2 -19 3 -16 5 3 12 -3 16 -13 3 -10 16
-27 28 -38 11 -11 14 -16 5 -11 -8 5 9 -12 38 -39 28 -26 52 -54 52 -62 0 -8
4 -11 10 -8 5 3 10 1 10 -4 0 -6 7 -11 15 -11 8 0 12 -6 9 -14 -4 -11 1 -14
20 -12 20 3 24 0 16 -9 -13 -15 -3 -24 23 -20 9 2 15 -1 11 -6 -3 -5 3 -12 13
-16 10 -4 25 -15 34 -25 19 -20 34 -24 23 -5 -6 9 -5 9 8 0 8 -7 19 -9 24 -5
4 4 2 -1 -5 -10 -15 -21 -2 -24 18 -6 11 10 13 10 7 1 -4 -7 -2 -13 4 -13 6 0
9 -4 5 -9 -3 -6 4 -8 15 -6 11 2 20 -1 20 -6 0 -6 4 -8 9 -5 5 4 11 1 13 -4 2
-6 20 -12 40 -13 27 -1 34 -5 26 -14 -7 -9 -3 -11 17 -7 20 3 25 1 19 -8 -6
-9 -3 -9 9 1 10 8 20 11 24 7 3 -3 0 -6 -8 -6 -11 0 -11 -2 1 -10 19 -12 33
-13 26 -2 -3 5 1 9 9 9 8 0 11 -5 8 -10 -4 -6 0 -8 10 -4 9 3 18 -1 22 -10 4
-12 9 -13 17 -5 8 8 15 9 25 1 9 -8 13 -8 13 0 0 6 4 11 10 11 5 0 7 -7 3 -16
-5 -14 -2 -14 23 2 15 11 25 14 21 7 -4 -6 -3 -14 2 -17 5 -4 13 -2 16 4 5 8
11 7 21 -1 11 -9 14 -9 14 0 0 7 5 9 12 5 18 -11 111 -11 125 -1 8 6 13 5 13
-2 0 -8 5 -9 18 -2 10 5 24 6 32 1 8 -5 21 -5 31 1 10 5 20 5 23 1 5 -9 64 -7
73 2 3 3 14 1 24 -5 14 -7 19 -6 19 2 0 7 5 8 13 2 15 -10 97 -10 115 0 7 5
12 3 12 -3 0 -7 6 -8 18 -1 10 5 24 6 32 1 7 -4 24 -4 36 0 15 6 24 5 28 -3 3
-8 5 -8 5 2 1 11 4 11 16 1 12 -10 15 -10 15 0 0 10 3 10 15 0 12 -10 15 -10
15 0 0 10 3 10 15 0 11 -9 15 -9 15 -1 0 7 5 9 12 5 19 -12 48 -12 48 -1 0 5
6 5 13 -2 10 -8 17 -7 25 1 9 9 12 9 12 -1 0 -11 3 -11 15 -1 8 7 15 8 15 3 0
-5 9 -9 20 -9 11 0 20 3 20 6 0 4 7 7 15 7 8 0 15 -3 15 -6 0 -3 11 -6 25 -6
14 0 25 3 25 6 0 3 7 6 15 6 8 0 15 -3 15 -6 0 -3 11 -6 25 -6 14 0 25 3 25 6
0 3 7 6 15 6 8 0 15 -3 15 -6 0 -3 11 -6 25 -6 14 0 25 3 25 6 0 3 7 6 15 6 8
0 15 -4 15 -9 0 -5 9 -4 19 2 11 5 22 6 25 2 6 -9 59 -7 75 3 6 3 11 2 11 -3
0 -10 30 -9 48 2 7 4 12 2 12 -5 0 -8 4 -8 15 1 12 10 15 10 15 0 0 -10 3 -10
15 0 12 10 15 10 15 0 0 -10 3 -10 15 0 12 10 15 10 15 -1 0 -12 2 -12 9 0 6
9 10 10 16 2 5 -9 10 -9 21 0 11 9 14 9 14 -1 0 -10 3 -10 15 0 8 7 15 8 15 3
0 -11 29 -11 48 1 7 4 12 2 12 -5 0 -8 4 -8 15 1 12 10 15 10 15 0 0 -10 3
-10 15 0 12 10 15 10 15 0 0 -10 3 -10 15 0 12 10 15 10 15 -1 0 -12 2 -12 9
0 6 9 10 10 16 2 5 -9 10 -9 21 0 11 9 14 9 14 -1 0 -10 3 -10 15 0 11 9 15 9
15 1 0 -8 5 -9 17 -2 10 5 26 5 40 0 13 -5 23 -5 23 0 0 4 7 8 15 8 8 0 15 -3
15 -6 0 -3 11 -6 25 -6 14 0 25 3 25 6 0 3 7 6 15 6 8 0 15 -3 15 -6 0 -3 11
-6 25 -6 14 0 25 3 25 6 0 3 7 6 15 6 8 0 15 -3 15 -6 0 -3 11 -6 25 -6 14 0
25 3 25 6 0 3 7 6 15 6 8 0 15 -4 15 -9 0 -5 9 -4 19 2 11 5 22 6 25 2 5 -9
64 -7 73 2 3 3 14 1 24 -5 14 -7 19 -6 19 2 0 7 5 8 13 2 15 -10 97 -10 115 0
7 5 12 3 12 -3 0 -7 6 -8 18 -1 10 5 24 6 32 1 7 -4 24 -4 36 0 15 6 24 5 28
-3 3 -8 5 -8 5 2 1 11 4 11 16 1 12 -10 15 -10 15 0 0 10 3 10 15 0 12 -10 15
-10 15 0 0 10 3 10 15 0 11 -9 15 -9 15 -1 0 7 5 9 12 5 19 -12 48 -12 48 -1
0 5 6 5 13 -2 10 -8 17 -7 25 1 9 9 12 9 12 -1 0 -11 3 -11 15 -1 10 8 15 9
15 1 0 -7 8 -8 24 -1 15 5 27 5 35 -3 8 -8 11 -8 11 2 0 11 3 11 15 1 11 -9
15 -9 15 -1 0 7 5 9 12 5 19 -12 48 -12 48 -1 0 5 7 4 15 -3 12 -10 15 -10 15
0 0 10 3 10 15 0 11 -9 15 -9 15 -1 0 7 5 9 12 5 19 -12 48 -12 48 -1 0 6 5 6
13 0 15 -10 127 -10 145 0 7 5 12 3 12 -3 0 -7 6 -8 19 -1 10 6 21 8 24 4 10
-10 51 -10 65 0 8 6 12 5 12 -2 0 -8 5 -9 18 -2 10 5 24 6 31 1 8 -4 26 -4 41
0 18 5 32 4 39 -3 8 -8 11 -7 11 2 0 11 3 11 15 1 11 -9 15 -9 15 -1 0 7 5 9
12 5 19 -12 48 -12 48 -1 0 5 7 4 15 -3 12 -10 15 -10 15 0 0 10 3 10 15 0 11
-9 15 -9 15 -1 0 7 5 9 12 5 19 -12 48 -12 48 -1 0 6 5 6 13 0 15 -10 127 -10
145 0 7 5 12 3 12 -3 0 -7 6 -8 19 -1 10 6 21 8 24 4 10 -10 51 -10 64 0 9 6
13 5 13 -2 0 -8 5 -9 18 -2 10 5 24 6 31 1 8 -4 26 -4 41 0 18 5 32 4 39 -3 8
-8 11 -7 11 2 0 11 3 11 15 1 11 -9 15 -9 15 -1 0 7 5 9 12 5 19 -12 48 -12
48 -1 0 5 7 4 15 -3 12 -10 15 -10 15 0 0 10 3 10 15 0 11 -9 15 -9 15 -1 0 7
5 9 12 5 19 -12 48 -12 48 -1 0 6 5 6 13 0 15 -10 127 -10 145 0 7 5 12 3 12
-3 0 -7 6 -8 18 -1 11 6 24 6 35 0 12 -7 17 -6 17 2 0 8 4 8 15 -1 12 -10 15
-10 15 0 0 9 3 10 13 1 10 -8 17 -7 25 1 9 9 12 9 12 -1 0 -7 5 -9 10 -6 6 4
7 12 3 18 -5 9 -3 9 8 0 17 -14 28 -14 54 0 11 6 24 10 28 9 4 -1 17 3 29 9
15 8 19 8 14 0 -10 -15 28 -9 48 8 9 7 23 11 31 7 8 -3 15 -1 15 4 0 6 6 9 13
8 6 -2 11 3 9 11 -3 12 0 12 12 1 12 -9 16 -10 16 0 0 7 7 10 16 6 8 -3 13 -2
10 3 -7 11 41 24 54 16 6 -3 7 0 4 8 -3 8 0 18 7 23 8 5 10 3 4 -7 -8 -12 -6
-12 8 0 9 7 17 10 17 6 0 -4 7 -2 15 5 8 7 12 16 9 21 -3 5 2 6 10 3 9 -4 18
1 22 10 3 9 10 13 15 10 5 -3 9 0 9 5 0 6 7 11 16 11 8 0 12 5 9 10 -3 6 -1
10 5 10 6 0 21 10 33 23 12 13 16 16 10 7 -7 -9 -13 -20 -13 -25 0 -4 10 5 23
21 12 16 21 33 19 38 -2 4 4 6 12 3 9 -4 18 -2 21 3 4 6 1 10 -5 10 -6 0 -8 5
-5 10 4 6 10 8 15 5 10 -6 36 35 32 49 -2 5 5 3 14 -5 12 -9 15 -9 10 -2 -4 7
-3 13 3 13 6 0 7 7 4 17 -5 12 -3 14 7 8 10 -6 12 -4 7 8 -4 12 -2 14 10 10
11 -4 14 -2 9 5 -4 7 -2 12 4 12 6 0 22 25 35 55 14 30 27 55 30 55 4 0 3 -5
-1 -12 -4 -6 -3 -8 4 -4 6 3 9 15 7 26 -3 14 2 20 13 20 15 0 15 2 2 10 -14 9
-7 15 14 11 5 -1 4 4 -3 12 -9 12 -8 16 5 21 10 4 14 13 11 26 -3 11 -2 18 3
15 4 -3 11 2 14 11 9 24 7 31 -4 14 -6 -9 -10 -10 -10 -3 0 7 8 17 18 22 12 8
13 10 3 11 -11 0 -10 4 5 16 18 15 18 15 0 10 -16 -6 -17 -4 -6 9 7 8 16 13
20 10 10 -6 7 15 -4 34 -6 10 -5 12 2 7 8 -5 12 1 13 16 5 126 2 4649 -3 4651
-4 1 -8 21 -9 45 -2 24 -11 51 -20 61 -10 10 -15 21 -12 25 3 3 0 12 -7 21 -7
9 -10 18 -7 21 3 4 -1 14 -10 22 -9 10 -12 17 -5 20 6 2 2 12 -9 23 -11 11
-18 27 -15 35 3 9 1 12 -4 9 -6 -3 -10 1 -10 9 0 9 -5 16 -11 16 -5 0 -7 5 -4
10 3 6 1 10 -5 10 -6 0 -8 5 -5 10 3 6 2 10 -4 10 -10 0 -27 39 -22 54 1 5 -5
4 -13 -4 -14 -11 -16 -9 -16 14 0 16 -4 25 -10 21 -5 -3 -10 1 -10 9 0 8 -9
20 -20 26 -11 6 -20 18 -20 28 0 15 -2 15 -10 2 -8 -13 -10 -12 -10 3 0 10 -7
20 -15 23 -8 4 -15 12 -15 20 0 8 -6 11 -17 7 -9 -4 -14 -2 -11 3 3 5 -4 18
-15 29 -11 11 -16 13 -12 5 8 -13 6 -13 -8 -1 -9 7 -15 17 -12 21 3 4 -2 11
-11 14 -10 4 -13 2 -8 -7 4 -6 -4 0 -19 15 -16 17 -32 25 -42 22 -11 -5 -14
-2 -8 12 4 12 3 15 -5 10 -7 -4 -12 -2 -12 5 0 7 -3 9 -7 6 -3 -4 -12 -2 -20
4 -7 6 -13 8 -13 5 0 -4 -11 5 -25 19 -28 27 -45 34 -25 9 12 -13 10 -14 -13
-3 -15 7 -25 15 -22 18 3 6 -12 10 -52 13 -7 1 -13 5 -13 10 0 5 -4 7 -9 4
-15 -9 -42 5 -34 18 4 6 -1 5 -10 -3 -10 -8 -17 -9 -17 -3 0 6 -9 9 -20 7 -13
-2 -18 0 -14 7 4 6 -1 8 -15 3 -13 -4 -21 -2 -21 6 0 8 -3 9 -13 0 -8 -6 -17
-8 -21 -4 -11 11 -4846 10 -4846 -1z m61 -815 c0 12 1 12 6 0 5 -11 7 -11 14
0 7 12 9 12 9 0 0 -11 3 -11 15 -1 12 10 15 10 15 -1 0 -11 2 -11 10 1 6 10
10 11 10 3 0 -7 5 -13 11 -13 5 0 7 6 3 13 -5 8 -2 8 9 -2 14 -11 17 -11 18 0
0 12 1 12 6 0 5 -11 7 -11 14 0 7 12 9 12 9 0 0 -11 3 -11 15 -1 12 10 15 10
15 -1 0 -11 2 -11 10 1 6 10 10 11 10 3 0 -7 5 -13 11 -13 5 0 7 6 3 13 -5 8
-2 8 9 -2 14 -11 17 -11 18 0 0 12 1 12 6 0 5 -11 7 -11 14 0 7 12 9 12 9 0 0
-11 3 -11 15 -1 12 10 15 10 15 -1 0 -11 2 -11 10 1 6 10 10 11 10 3 0 -7 5
-13 11 -13 5 0 7 6 3 13 -5 8 -2 8 9 -2 13 -10 17 -10 17 -1 0 9 4 9 17 -1 15
-12 16 -12 8 1 -6 12 -5 13 6 3 15 -15 33 -17 25 -5 -6 11 34 9 52 -1 7 -5 12
-3 12 4 0 8 5 7 17 -2 15 -12 16 -12 8 1 -6 12 -5 13 6 3 15 -15 33 -17 25 -5
-6 11 34 9 52 -1 7 -5 12 -3 12 4 0 8 5 7 17 -2 15 -12 16 -12 8 1 -6 12 -5
13 6 3 15 -15 33 -17 25 -5 -6 11 34 9 52 -1 7 -5 12 -3 12 4 0 8 5 7 17 -2
15 -12 16 -12 8 1 -6 12 -5 13 6 3 15 -15 33 -17 25 -5 -6 11 34 9 52 -1 7 -5
12 -3 12 4 0 8 5 7 17 -2 15 -12 16 -12 8 1 -6 12 -5 13 6 3 15 -15 33 -17 25
-5 -6 11 34 9 52 -1 7 -5 12 -3 12 4 0 8 5 7 17 -2 15 -12 16 -12 8 1 -6 12
-5 13 6 3 15 -15 33 -17 25 -5 -6 11 34 9 52 -1 7 -5 12 -3 12 4 0 8 5 7 17
-2 15 -12 16 -12 8 1 -6 12 -5 13 6 3 15 -15 33 -17 25 -5 -6 11 34 9 52 -1 7
-5 12 -3 12 4 0 8 5 7 17 -2 15 -12 16 -12 8 1 -6 12 -5 13 6 3 15 -15 33 -17
25 -5 -6 11 34 9 52 -1 7 -5 12 -3 12 4 0 8 5 7 17 -2 15 -12 16 -12 8 1 -6
12 -5 13 6 3 15 -15 33 -17 25 -5 -6 11 34 9 52 -1 7 -5 12 -3 12 4 0 8 5 7
17 -2 15 -12 16 -12 8 1 -6 12 -5 13 6 3 15 -15 33 -17 25 -4 -7 11 13 9 32
-2 7 -5 12 -3 12 5 0 8 3 9 8 3 8 -12 32 -13 49 -2 6 4 15 2 19 -4 4 -8 9 -7
15 2 6 10 9 11 9 2 0 -7 5 -13 11 -13 5 0 8 4 5 8 -6 10 25 9 42 -2 7 -4 12
-2 13 6 0 10 2 10 6 1 2 -7 9 -13 14 -13 6 0 8 4 5 8 -6 10 25 9 42 -2 7 -4
12 -2 13 6 0 10 2 10 6 1 2 -7 9 -13 14 -13 6 0 8 4 5 8 -6 10 25 9 42 -2 7
-4 12 -2 13 6 0 10 2 10 6 1 2 -7 9 -13 14 -13 6 0 8 4 5 8 -6 10 25 9 42 -2
7 -4 12 -2 13 6 0 10 2 10 6 1 2 -7 9 -13 14 -13 6 0 8 4 5 8 -6 10 25 9 42
-2 7 -4 12 -2 13 6 0 10 2 10 6 1 2 -7 9 -13 14 -13 6 0 8 4 5 8 -6 10 25 9
42 -2 7 -4 12 -2 13 6 0 10 2 10 6 1 2 -7 9 -13 14 -13 6 0 8 4 5 8 -6 10 25
9 42 -2 7 -4 12 -2 13 6 0 10 2 10 6 1 2 -7 9 -13 14 -13 6 0 8 4 5 8 -6 10
25 9 42 -2 7 -4 12 -2 13 6 0 10 2 10 6 1 2 -7 9 -13 14 -13 6 0 8 4 5 8 -6
10 25 9 42 -2 7 -4 12 -2 13 6 0 10 2 10 6 1 2 -7 9 -13 14 -13 6 0 8 4 5 8
-6 10 25 9 42 -2 7 -4 12 -2 13 6 0 10 2 10 6 1 2 -7 9 -13 14 -13 6 0 8 4 5
8 -6 10 25 9 42 -2 7 -4 12 -2 13 6 0 10 2 10 6 1 2 -7 9 -13 14 -13 6 0 8 4
5 8 -6 10 25 9 42 -2 7 -4 12 -2 13 6 0 10 2 10 6 1 2 -7 9 -13 14 -13 6 0 8
4 5 8 -6 10 25 9 42 -2 7 -4 12 -2 13 6 0 10 2 10 6 1 2 -7 9 -13 14 -13 6 0
8 4 5 8 -6 10 25 9 42 -2 7 -4 12 -2 13 6 0 10 2 10 6 1 2 -7 9 -13 14 -13 6
0 8 4 5 8 -6 10 25 9 42 -2 7 -4 12 -2 13 6 0 10 2 10 6 1 2 -7 9 -13 14 -13
6 0 8 4 5 8 -6 10 45 9 62 -1 7 -5 12 -3 13 5 0 10 2 10 6 1 2 -7 9 -13 14
-13 6 0 8 4 5 8 -3 5 1 9 9 9 8 0 15 -5 15 -10 0 -5 8 -3 17 4 11 10 14 10 9
2 -4 -7 -2 -13 3 -13 6 0 11 6 12 13 0 9 2 9 6 -1 4 -9 8 -10 18 -2 10 8 15 8
20 0 5 -8 11 -8 21 1 11 9 14 9 14 -1 0 -9 4 -9 17 1 11 10 14 10 9 2 -4 -7
-2 -13 3 -13 6 0 11 6 12 13 0 9 2 9 6 -1 4 -9 8 -10 18 -2 10 8 15 8 20 0 5
-8 11 -8 21 1 11 9 14 9 14 -1 0 -9 4 -9 17 1 11 10 14 10 9 2 -4 -7 -2 -13 3
-13 6 0 11 6 12 13 0 9 2 9 6 -1 4 -9 8 -10 18 -2 10 8 15 8 20 0 5 -8 11 -8
21 1 11 9 14 9 14 -1 0 -9 4 -9 17 1 11 10 14 10 9 2 -4 -7 -2 -13 3 -13 6 0
11 6 12 13 0 9 2 9 6 -1 4 -9 8 -10 18 -2 10 8 15 8 20 0 5 -8 11 -8 21 1 11
9 14 9 14 -1 0 -9 4 -9 17 1 11 10 14 10 9 2 -4 -7 -2 -13 3 -13 6 0 11 6 12
13 0 9 2 9 6 -1 4 -9 8 -10 18 -2 10 8 15 8 20 0 5 -8 11 -8 21 1 11 9 14 9
14 -1 0 -9 4 -9 17 1 11 10 14 10 9 2 -4 -7 -2 -13 3 -13 6 0 11 6 12 13 0 9
2 9 6 -1 4 -9 8 -10 18 -2 10 8 15 8 20 0 5 -8 11 -8 21 1 11 9 14 9 14 -1 0
-9 4 -9 17 1 11 10 14 10 9 2 -4 -7 -2 -13 3 -13 6 0 11 6 12 13 0 9 2 9 6 -1
4 -9 8 -10 18 -2 10 8 15 8 20 0 5 -8 11 -8 21 1 11 9 14 9 14 -1 0 -9 4 -9
17 1 11 10 14 10 9 2 -4 -7 -2 -13 3 -13 6 0 11 6 12 13 0 9 2 9 6 -1 4 -9 8
-10 18 -2 10 8 15 8 20 0 5 -8 11 -8 21 1 11 9 14 9 14 -1 0 -9 4 -9 17 1 11
10 14 10 9 2 -4 -7 -2 -13 3 -13 6 0 11 6 12 13 0 9 2 9 6 -1 4 -9 8 -10 18
-2 10 8 15 8 20 0 5 -8 11 -8 21 1 11 9 14 9 14 -1 0 -9 4 -9 17 1 11 10 14
10 9 2 -4 -7 -2 -13 3 -13 6 0 11 6 12 13 0 9 2 9 6 -1 4 -9 8 -10 18 -2 10 8
15 8 20 0 5 -8 11 -8 21 1 11 9 14 9 14 -1 0 -9 4 -9 17 1 11 10 14 10 9 2 -4
-7 -2 -13 3 -13 6 0 11 6 12 13 0 9 2 9 6 -1 4 -9 8 -10 18 -2 10 8 15 8 20 0
5 -8 11 -8 21 1 11 9 14 9 14 -1 0 -9 4 -9 17 1 11 10 14 10 9 2 -4 -7 -2 -13
3 -13 6 0 11 6 12 13 0 9 2 9 6 -1 4 -9 8 -10 18 -2 10 8 15 8 20 0 5 -8 11
-8 21 1 11 9 14 9 14 -1 0 -9 4 -9 17 1 11 10 14 10 9 2 -4 -7 -2 -13 3 -13 6
0 11 6 12 13 0 9 2 9 6 -1 4 -9 8 -10 18 -2 10 8 15 8 20 0 5 -8 11 -8 21 1
11 9 14 9 14 -1 0 -9 4 -9 17 1 11 10 14 10 9 2 -4 -7 -2 -13 3 -13 6 0 11 6
12 13 0 9 2 9 6 -1 4 -9 8 -10 18 -2 10 8 15 8 20 0 5 -8 11 -8 21 1 11 9 14
9 14 -1 0 -9 4 -9 17 1 11 10 14 10 9 2 -4 -7 -2 -13 3 -13 6 0 11 6 12 13 0
9 2 9 6 -1 4 -9 8 -10 18 -2 10 8 15 8 20 0 5 -8 11 -8 21 1 11 9 14 9 14 -1
0 -9 4 -9 17 1 11 10 14 10 9 2 -4 -7 -2 -13 3 -13 6 0 11 6 12 13 0 9 2 9 6
-1 4 -9 8 -10 18 -2 10 8 15 8 20 0 5 -8 11 -8 21 1 10 8 14 8 14 0 0 -6 5
-11 11 -11 5 0 7 6 3 13 -5 8 -3 8 9 -2 9 -7 14 -18 10 -25 -4 -7 -2 -7 7 1
10 9 16 8 29 -6 9 -9 12 -11 7 -4 -12 18 -3 16 22 -6 12 -10 18 -22 14 -26 -4
-5 1 -5 11 -2 9 4 17 2 17 -4 0 -14 26 -39 39 -39 6 0 10 -6 8 -12 -1 -7 4
-12 11 -10 8 1 11 -2 7 -8 -3 -5 -1 -10 6 -10 7 0 9 -3 6 -7 -4 -3 1 -12 11
-20 9 -8 12 -12 5 -9 -7 4 -10 -1 -8 -11 1 -10 8 -17 15 -15 16 4 39 -28 40
-54 0 -11 6 -26 13 -33 9 -11 9 -12 0 -7 -15 8 -15 -62 0 -82 7 -9 5 -11 -9
-6 -15 6 -17 4 -7 -6 14 -15 5 -43 -11 -33 -6 4 -4 -2 4 -12 11 -14 12 -19 2
-22 -6 -3 -9 -10 -6 -15 4 -7 2 -8 -5 -4 -9 6 -9 11 1 24 9 11 5 10 -13 -3
-24 -18 -25 -21 -10 -32 15 -12 15 -13 0 -7 -10 3 -20 0 -25 -7 -5 -8 -3 -10
7 -5 8 4 5 0 -5 -8 -13 -11 -15 -16 -6 -16 16 0 3 -15 -13 -15 -7 -1 -11 -6
-10 -13 2 -7 -3 -12 -10 -12 -7 0 -21 -11 -31 -25 -10 -14 -25 -25 -33 -25 -8
0 -11 -4 -8 -10 3 -5 -1 -10 -9 -10 -9 0 -16 -6 -17 -12 0 -10 -2 -10 -6 0 -3
8 -11 5 -25 -10 -11 -13 -17 -17 -13 -10 3 6 1 12 -4 12 -6 0 -11 -5 -11 -11
0 -8 -6 -7 -17 2 -11 10 -14 10 -9 2 5 -9 0 -13 -18 -13 -14 0 -28 -4 -31 -10
-8 -13 -25 -13 -25 1 0 5 5 7 12 3 7 -5 8 -3 4 5 -6 9 -13 8 -27 -5 -11 -9
-22 -14 -26 -11 -3 4 0 7 7 7 7 0 10 3 7 6 -4 4 -13 1 -22 -6 -12 -10 -15 -9
-15 6 0 14 -2 16 -9 6 -11 -18 -64 -24 -57 -6 3 8 0 11 -9 7 -8 -3 -12 -9 -9
-14 3 -5 0 -9 -5 -9 -6 0 -11 5 -11 11 0 8 -6 7 -17 -2 -11 -10 -14 -10 -9 -1
4 6 3 12 -3 12 -5 0 -12 -4 -15 -8 -6 -10 -36 -9 -54 2 -7 4 -12 2 -12 -6 0
-8 -4 -7 -11 4 -5 9 -16 15 -24 12 -8 -4 -13 -9 -11 -13 3 -4 -8 -7 -24 -6
-15 0 -26 3 -23 7 7 13 -12 9 -25 -4 -9 -9 -12 -9 -12 1 0 11 -3 11 -17 0 -11
-10 -14 -10 -9 -1 8 13 -6 17 -18 5 -3 -4 -27 -7 -51 -8 -34 -1 -45 3 -45 15
0 12 -2 12 -9 2 -11 -18 -64 -24 -57 -6 3 8 0 11 -9 7 -8 -3 -12 -9 -9 -14 3
-5 0 -9 -5 -9 -6 0 -11 5 -11 11 0 8 -6 7 -17 -2 -11 -10 -14 -10 -9 -1 4 6 3
12 -3 12 -5 0 -12 -4 -15 -8 -6 -10 -36 -9 -54 2 -7 4 -12 2 -12 -6 0 -8 -4
-7 -11 4 -5 9 -16 15 -24 12 -8 -4 -13 -9 -11 -13 3 -4 -8 -7 -24 -6 -15 0
-26 3 -23 7 7 13 -12 9 -25 -4 -9 -9 -12 -9 -12 1 0 11 -3 11 -17 0 -11 -10
-14 -10 -9 -1 8 13 -6 17 -18 5 -3 -4 -27 -7 -51 -8 -34 -1 -45 3 -45 15 0 12
-2 12 -9 2 -11 -18 -64 -24 -57 -6 3 8 0 11 -9 7 -8 -3 -12 -9 -9 -14 3 -5 0
-9 -5 -9 -6 0 -11 5 -11 12 0 9 -3 9 -12 0 -17 -17 -28 -15 -28 6 0 14 -2 15
-10 2 -5 -8 -18 -16 -29 -16 -11 -1 -18 2 -16 6 3 4 -2 11 -11 14 -8 3 -12 2
-9 -3 3 -5 1 -12 -5 -16 -5 -3 -10 -1 -10 5 0 8 -6 7 -21 -1 -12 -6 -19 -7
-15 -1 3 6 -4 9 -18 8 -13 0 -22 -4 -19 -8 10 -17 -10 -7 -29 15 -11 12 -17
17 -14 10 8 -15 -12 -27 -47 -29 -20 -1 -27 3 -23 12 3 7 0 16 -7 20 -7 4 -9
4 -5 -1 4 -4 3 -14 -3 -22 -10 -11 -15 -11 -27 -1 -13 10 -14 10 -8 1 12 -21
-4 -15 -26 10 -11 12 -17 17 -14 10 8 -15 -12 -27 -47 -29 -20 -1 -27 3 -23
12 3 7 0 16 -7 20 -7 4 -9 4 -5 -1 4 -4 3 -14 -3 -22 -10 -11 -15 -11 -27 -1
-13 10 -14 10 -8 1 12 -21 -4 -15 -26 10 -11 12 -17 17 -14 10 8 -15 -12 -27
-47 -29 -20 -1 -27 3 -23 12 3 7 0 16 -7 20 -7 4 -9 4 -5 -1 4 -4 3 -14 -3
-22 -10 -11 -15 -11 -27 -1 -13 10 -14 10 -8 1 12 -21 -4 -15 -26 10 -11 12
-17 17 -14 10 8 -15 -12 -27 -47 -29 -20 -1 -27 3 -23 12 3 7 0 16 -7 20 -7 4
-9 4 -5 -1 9 -10 -10 -35 -26 -35 -6 0 -4 5 4 10 8 5 10 10 4 10 -5 0 -15 -5
-22 -12 -9 -9 -12 -8 -12 7 0 15 -3 17 -9 7 -11 -18 -64 -24 -57 -6 3 8 0 11
-9 7 -8 -3 -12 -9 -9 -14 3 -5 0 -9 -5 -9 -6 0 -11 5 -11 11 0 8 -6 7 -17 -2
-11 -10 -14 -10 -9 -1 4 6 3 12 -3 12 -5 0 -12 -4 -15 -8 -6 -10 -36 -9 -54 2
-7 4 -12 2 -12 -6 0 -8 -4 -7 -11 4 -5 9 -16 15 -24 12 -8 -4 -13 -9 -11 -13
3 -4 -8 -7 -24 -6 -15 0 -26 3 -23 7 7 13 -12 9 -25 -4 -9 -9 -12 -9 -12 1 0
11 -3 11 -17 0 -11 -10 -14 -10 -9 -1 8 13 -6 17 -18 5 -3 -4 -27 -7 -51 -8
-34 -1 -45 3 -45 15 0 12 -2 12 -9 2 -11 -18 -64 -24 -57 -6 3 8 0 11 -9 7 -8
-3 -12 -9 -9 -14 3 -5 0 -9 -5 -9 -6 0 -11 5 -11 11 0 8 -6 7 -17 -2 -11 -10
-14 -10 -9 -1 4 6 3 12 -3 12 -5 0 -12 -4 -15 -8 -6 -10 -36 -9 -54 2 -7 4
-12 2 -12 -6 0 -8 -4 -7 -11 4 -5 9 -16 15 -24 12 -8 -4 -13 -9 -11 -13 3 -4
-8 -7 -24 -6 -15 0 -26 3 -23 7 7 13 -12 9 -25 -4 -9 -9 -12 -9 -12 1 0 11 -3
11 -17 0 -11 -10 -14 -10 -9 -1 8 13 -6 17 -18 5 -3 -4 -27 -7 -51 -8 -34 -1
-45 3 -45 15 0 12 -2 12 -9 2 -11 -18 -64 -24 -57 -6 3 8 0 11 -9 7 -8 -3 -12
-9 -9 -14 3 -5 0 -9 -5 -9 -6 0 -11 5 -11 12 0 9 -3 9 -12 0 -17 -17 -28 -15
-28 6 0 14 -2 15 -10 2 -5 -8 -18 -16 -29 -16 -11 -1 -18 2 -16 6 3 4 -2 11
-11 14 -8 3 -12 2 -9 -3 3 -5 1 -12 -5 -16 -5 -3 -10 -1 -10 5 0 8 -6 7 -21
-1 -15 -8 -19 -8 -15 0 4 6 4 11 1 11 -4 0 -16 -5 -27 -11 -15 -8 -19 -8 -14
0 10 15 -7 14 -22 -1 -9 -9 -12 -9 -12 1 0 11 -3 11 -17 0 -11 -10 -14 -10 -9
-1 8 13 -6 17 -18 5 -3 -4 -27 -7 -51 -8 -34 -1 -45 3 -45 15 0 12 -2 12 -9 2
-11 -18 -64 -24 -57 -6 3 8 0 11 -9 7 -8 -3 -12 -9 -9 -14 3 -5 0 -9 -5 -9 -6
0 -11 5 -11 11 0 8 -6 7 -17 -2 -11 -10 -14 -10 -9 -1 8 13 -6 17 -18 5 -3 -4
-27 -7 -51 -8 -34 -1 -45 3 -45 15 0 12 -2 12 -9 2 -11 -18 -64 -24 -57 -6 3
8 0 11 -9 7 -8 -3 -12 -9 -9 -14 3 -5 0 -9 -5 -9 -6 0 -11 5 -11 11 0 8 -6 7
-17 -2 -11 -10 -14 -10 -9 -1 8 13 -6 17 -18 5 -9 -9 -85 -10 -79 0 7 12 -12
8 -25 -5 -9 -9 -12 -9 -12 1 0 11 -3 11 -17 0 -11 -10 -14 -10 -9 -1 8 13 -6
17 -18 5 -3 -4 -27 -7 -51 -8 -34 -1 -45 3 -45 15 0 12 -2 12 -9 2 -11 -18
-64 -24 -57 -6 3 8 0 11 -9 7 -8 -3 -12 -9 -9 -14 3 -5 0 -9 -5 -9 -6 0 -11 5
-11 11 0 8 -6 7 -17 -2 -11 -10 -14 -10 -9 -1 8 13 -6 17 -18 5 -3 -4 -27 -7
-51 -8 -32 0 -45 3 -45 13 0 11 -3 11 -15 -1 -16 -17 -51 -16 -48 1 2 6 -4 9
-12 6 -8 -4 -12 -10 -9 -15 3 -5 0 -9 -5 -9 -6 0 -11 5 -11 12 0 9 -3 9 -12 0
-17 -17 -28 -15 -28 6 0 14 -2 15 -10 2 -5 -8 -18 -16 -29 -16 -11 -1 -18 3
-15 7 3 5 0 9 -5 9 -6 0 -11 -5 -11 -11 0 -5 -5 -7 -10 -4 -6 4 -8 11 -5 16 3
5 -1 6 -9 3 -9 -3 -13 -10 -10 -15 3 -5 0 -9 -5 -9 -6 0 -11 5 -11 11 0 8 -6
7 -17 -2 -9 -8 -14 -9 -10 -3 4 8 -8 11 -38 10 -36 -1 -44 -4 -40 -16 3 -8 -4
-4 -14 10 -18 23 -20 23 -27 7 -5 -15 -9 -16 -15 -5 -7 10 -9 10 -10 -2 0 -10
-3 -8 -9 5 -8 18 -9 18 -9 2 -1 -10 -6 -15 -11 -12 -6 4 -8 9 -6 13 2 4 -6 7
-19 7 -15 0 -21 -5 -18 -15 3 -8 -4 -5 -15 8 -14 15 -22 18 -25 10 -4 -9 -8
-10 -14 -3 -10 13 -23 13 -43 1 -12 -7 -13 -6 -2 5 16 17 15 30 -2 23 -8 -3
-17 0 -21 5 -3 6 -11 8 -17 5 -7 -5 -9 -2 -5 8 4 12 1 14 -14 11 -13 -4 -19 0
-19 11 0 10 -4 14 -10 11 -5 -3 -10 1 -10 10 0 9 -9 19 -20 22 -11 3 -20 11
-20 19 0 21 -22 64 -30 59 -5 -3 -11 2 -14 11 -4 9 -2 13 5 8 8 -4 8 0 0 14
-6 12 -19 26 -29 31 -9 6 -12 11 -7 11 6 0 11 13 11 30 1 20 -2 27 -10 23 -6
-4 -5 0 2 9 9 11 10 18 2 23 -6 3 -7 12 -3 18 11 17 11 30 -1 46 -8 11 -8 13
2 7 7 -4 12 -1 12 9 0 9 5 13 10 10 6 -3 10 -2 10 4 0 5 -6 12 -12 14 -8 3 -5
6 6 6 16 1 17 3 5 18 -10 11 -10 14 -1 9 20 -12 35 3 20 22 -8 10 -9 13 -1 9
7 -4 14 0 18 11 3 11 15 24 28 31 15 8 16 10 3 6 -16 -5 -17 -3 -6 10 7 8 16
12 21 9 5 -3 9 0 9 6 0 6 5 8 13 4 9 -6 9 -5 -1 8 -10 13 -9 15 13 13 14 -2
23 0 21 3 -2 4 6 16 17 27 11 11 16 13 12 5 -5 -8 5 -4 21 10 15 14 22 17 15
7 -12 -15 -12 -17 2 -11 8 3 18 12 21 21 5 12 9 13 21 3 12 -10 15 -10 16 1z
m119 -1325 c0 15 2 16 9 5 7 -11 13 -12 23 -4 10 8 18 8 32 -2 13 -10 24 -11
36 -5 11 6 21 5 30 -3 10 -10 12 -8 6 8 -6 20 -6 20 9 1 15 -20 15 -20 15 0 0
15 2 16 9 5 7 -11 13 -12 23 -4 10 8 18 8 32 -2 13 -10 24 -11 36 -5 11 6 21
5 30 -3 10 -10 12 -8 6 8 -6 20 -6 20 9 1 15 -20 15 -20 15 0 0 15 2 16 9 5 7
-11 13 -12 23 -4 10 8 18 8 32 -2 13 -10 24 -11 36 -5 11 6 21 5 30 -3 10 -10
12 -8 6 8 -6 20 -6 20 9 1 15 -20 15 -20 15 0 0 15 2 16 9 5 7 -11 13 -12 23
-4 10 8 18 8 32 -2 13 -10 24 -11 36 -5 11 6 21 5 30 -3 10 -10 12 -8 6 8 -6
20 -6 20 9 1 15 -20 15 -20 15 0 0 15 2 16 9 5 7 -11 13 -12 23 -4 10 8 18 8
32 -2 13 -10 24 -11 36 -5 11 6 21 5 30 -3 10 -10 12 -8 6 8 -6 20 -6 20 9 1
15 -20 15 -20 15 0 0 15 2 16 9 5 7 -11 13 -12 23 -4 10 8 18 8 32 -2 13 -10
24 -11 36 -5 11 6 21 5 30 -3 10 -10 12 -8 6 8 -6 20 -6 20 9 1 15 -20 15 -20
15 0 0 15 2 16 9 5 7 -11 13 -12 23 -4 10 8 18 8 32 -2 13 -10 24 -11 36 -5
11 6 21 5 30 -3 10 -10 12 -8 6 8 -6 20 -6 20 9 1 15 -20 15 -20 15 0 0 15 2
16 9 5 7 -11 13 -12 23 -4 10 8 18 8 32 -2 13 -10 24 -11 36 -5 11 6 21 5 30
-3 10 -10 12 -8 6 8 -6 20 -6 20 9 1 15 -20 15 -20 15 0 0 15 2 16 9 5 7 -11
13 -12 23 -4 10 8 18 8 32 -2 13 -10 24 -11 36 -5 11 6 21 5 30 -3 10 -10 12
-8 6 8 -6 20 -6 20 9 1 15 -20 15 -20 15 0 0 15 2 16 9 5 8 -13 12 -13 27 0
11 8 15 9 10 2 -5 -9 0 -13 16 -12 13 1 33 -2 46 -5 13 -3 20 -1 17 5 -4 5
-11 6 -17 3 -6 -4 -8 -3 -5 2 8 14 62 11 81 -5 9 -7 16 -10 16 -6 0 4 8 1 17
-6 9 -8 14 -9 11 -4 -4 6 -3 17 3 25 5 8 9 10 9 4 0 -7 9 -14 20 -17 11 -3 18
-1 14 4 -3 5 -1 9 5 9 5 0 12 -6 14 -12 3 -7 6 -4 7 7 l1 20 9 -20 c8 -18 9
-18 9 -2 1 10 6 15 11 12 6 -4 8 -11 5 -16 -8 -12 28 2 37 15 5 7 8 4 8 -7 0
-17 2 -17 15 -3 14 13 45 13 45 -1 0 -3 -7 -3 -15 0 -8 4 -17 2 -19 -2 -3 -5
5 -7 17 -7 12 1 28 -3 36 -8 10 -8 13 -8 9 -1 -4 6 -3 17 3 25 5 8 9 10 9 4 0
-7 9 -14 20 -17 11 -3 18 -1 14 4 -3 5 -1 9 5 9 5 0 12 -6 14 -12 3 -7 6 -4 7
7 l1 20 9 -20 c8 -18 9 -18 9 -2 1 10 6 15 11 12 6 -4 8 -11 5 -16 -8 -12 28
2 37 15 5 7 8 4 8 -7 0 -17 2 -17 15 -3 14 13 45 13 45 -1 0 -3 -7 -3 -15 0
-8 4 -17 2 -19 -2 -3 -5 5 -7 17 -7 12 1 28 -3 36 -8 10 -8 13 -8 9 -1 -4 6
-3 17 3 25 5 8 9 10 9 4 0 -7 9 -14 20 -17 11 -3 18 -1 14 4 -3 5 -1 9 5 9 5
0 12 -6 14 -12 3 -7 6 -4 7 7 l1 20 9 -20 c8 -18 9 -18 9 -2 1 10 6 15 11 12
6 -4 8 -11 5 -16 -8 -12 28 2 37 15 5 7 8 4 8 -7 0 -17 2 -17 15 -3 14 13 45
13 45 -1 0 -3 -7 -3 -15 0 -8 4 -17 2 -19 -2 -3 -5 5 -7 17 -7 12 1 28 -3 36
-8 10 -8 13 -8 9 -1 -4 6 -3 17 3 25 5 8 9 10 9 4 0 -7 9 -14 20 -17 11 -3 18
-1 14 4 -3 5 -1 9 5 9 5 0 12 -6 14 -12 3 -7 6 -4 7 7 l1 20 9 -20 c8 -18 9
-18 9 -2 1 10 6 15 11 12 6 -4 8 -11 5 -16 -8 -12 28 2 37 15 5 7 8 4 8 -7 0
-17 2 -17 15 -3 14 13 45 13 45 -1 0 -3 -7 -3 -15 0 -8 4 -17 2 -19 -2 -3 -5
5 -7 17 -7 12 1 28 -3 36 -8 10 -8 13 -8 9 -1 -4 6 -3 17 3 25 5 8 9 10 9 4 0
-7 9 -14 20 -17 11 -3 18 -1 14 4 -3 5 -1 9 5 9 5 0 12 -6 14 -12 3 -7 6 -4 7
7 l1 20 9 -20 c8 -18 9 -18 9 -2 1 10 6 15 11 12 6 -4 8 -11 5 -16 -8 -12 28
2 37 15 5 7 8 4 8 -7 0 -17 2 -17 15 -3 14 13 45 13 45 -1 0 -3 -7 -3 -15 0
-8 4 -17 2 -19 -2 -3 -5 5 -7 17 -7 12 1 28 -3 36 -8 10 -8 13 -8 9 -1 -4 6
-3 17 3 25 5 8 9 10 9 4 0 -7 9 -14 20 -17 11 -3 18 -1 14 4 -3 5 -1 9 5 9 5
0 12 -6 14 -12 3 -7 6 -4 7 7 l1 20 9 -20 c8 -18 9 -18 9 -2 1 10 6 15 11 12
6 -4 8 -11 5 -16 -8 -12 28 2 37 15 5 7 8 4 8 -7 0 -17 2 -17 15 -3 14 13 45
13 45 -1 0 -3 -7 -3 -15 0 -8 4 -17 2 -19 -2 -3 -5 5 -7 17 -7 12 1 28 -3 36
-8 10 -8 13 -8 9 -1 -4 6 -3 17 3 25 5 8 9 10 9 4 0 -7 9 -14 20 -17 11 -3 18
-1 14 4 -3 5 -1 9 5 9 5 0 12 -6 14 -12 3 -7 6 -4 7 7 l1 20 9 -20 c8 -18 9
-18 9 -2 1 10 6 15 11 12 6 -4 8 -11 5 -16 -8 -12 28 2 37 15 5 7 8 4 8 -7 0
-17 2 -17 15 -3 14 13 45 13 45 -1 0 -3 -7 -3 -15 0 -8 4 -17 2 -19 -2 -3 -5
5 -7 17 -7 12 1 28 -3 36 -8 10 -8 13 -8 9 -1 -4 6 -3 17 3 25 5 8 9 10 9 4 0
-7 9 -14 20 -17 11 -3 18 -1 14 4 -3 5 -1 9 5 9 5 0 12 -6 14 -12 3 -7 6 -4 7
7 l1 20 9 -20 c8 -18 9 -18 9 -2 1 10 6 15 11 12 6 -4 8 -11 5 -16 -8 -12 28
2 37 15 5 7 8 4 8 -7 0 -17 2 -17 15 -3 14 13 45 13 45 -1 0 -3 -7 -3 -15 0
-8 4 -17 2 -19 -2 -3 -5 5 -7 17 -7 12 1 28 -3 36 -8 10 -8 13 -8 9 -1 -4 6
-3 17 3 25 5 8 9 10 9 4 0 -7 9 -14 20 -17 11 -3 18 -1 14 4 -3 5 -1 9 5 9 5
0 12 -6 14 -12 3 -7 6 -4 7 7 l1 20 9 -20 c8 -18 9 -18 9 -2 1 10 6 15 11 12
6 -4 8 -11 5 -16 -8 -12 28 2 37 15 5 7 8 4 8 -7 0 -17 2 -17 15 -3 14 13 45
13 45 -1 0 -3 -7 -3 -15 0 -8 4 -17 2 -19 -2 -3 -5 5 -7 17 -7 12 1 28 -3 36
-8 10 -8 13 -8 9 -1 -4 6 -3 17 3 25 5 8 9 10 9 4 0 -7 9 -14 20 -17 11 -3 18
-1 14 4 -3 5 -1 9 5 9 5 0 12 -6 14 -12 3 -7 6 -4 7 7 l1 20 9 -20 c8 -18 9
-18 9 -2 1 10 6 15 11 12 6 -4 7 -11 4 -17 -5 -7 -2 -8 5 -4 16 10 103 -3 96
-14 -3 -4 5 -6 17 -2 13 3 19 1 15 -5 -4 -6 0 -14 9 -17 10 -4 13 -2 8 7 -6 8
-3 8 9 -1 9 -8 21 -11 26 -7 7 4 8 0 5 -10 -5 -11 0 -18 16 -22 16 -4 18 -8 8
-14 -9 -6 -7 -9 10 -9 12 0 22 -6 22 -14 0 -8 9 -18 21 -21 17 -6 18 -9 7 -23
-10 -12 -10 -14 0 -8 7 4 12 1 12 -9 0 -16 24 -47 31 -40 2 2 5 -15 6 -37 2
-22 8 -48 15 -56 10 -13 10 -14 1 -8 -7 4 -13 2 -13 -3 0 -6 6 -11 13 -11 8 0
8 -3 2 -8 -15 -10 -13 -31 5 -43 12 -9 10 -10 -8 -6 -22 5 -23 5 -8 -18 15
-23 15 -24 -1 -18 -16 6 -16 5 -4 -11 8 -9 10 -16 5 -15 -21 4 -28 -2 -14 -11
11 -7 11 -10 2 -10 -7 0 -10 -4 -7 -10 3 -5 -2 -10 -12 -11 -10 0 -13 -3 -6
-6 10 -3 10 -10 2 -24 -5 -11 -14 -17 -19 -14 -5 3 -12 0 -16 -6 -4 -8 -3 -9
4 -5 7 4 12 2 12 -3 0 -11 -15 -15 -34 -12 -5 1 -5 -4 1 -11 8 -9 7 -17 -3
-26 -8 -7 -14 -9 -14 -5 0 4 -7 0 -15 -11 -7 -10 -18 -15 -24 -11 -6 3 -9 0
-5 -8 3 -8 -2 -17 -11 -21 -10 -4 -14 -2 -9 6 5 7 3 8 -5 4 -7 -5 -10 -14 -7
-22 4 -11 2 -12 -14 -4 -13 7 -21 7 -26 -2 -5 -7 -3 -8 6 -3 9 5 11 4 6 -4 -6
-9 -11 -9 -21 -1 -9 8 -15 8 -20 0 -3 -6 -11 -7 -17 -4 -7 5 -8 2 -3 -6 5 -8
3 -11 -6 -8 -8 3 -19 -2 -26 -11 -10 -13 -14 -14 -25 -3 -11 11 -10 12 5 7 9
-4 17 -3 17 2 0 16 -50 10 -50 -6 -1 -11 -6 -7 -16 9 -10 17 -13 19 -9 5 3
-11 3 -16 -1 -13 -4 4 -16 2 -28 -4 l-21 -11 20 24 c15 17 15 20 3 10 -10 -7
-25 -11 -33 -7 -8 3 -15 1 -15 -4 0 -6 -7 -10 -15 -10 -8 0 -15 5 -15 11 0 5
5 7 12 3 7 -4 8 -3 4 5 -9 14 -26 5 -26 -15 0 -14 -2 -13 -16 0 -14 15 -17 15
-31 0 -14 -14 -17 -14 -31 0 -14 14 -17 13 -27 -1 -10 -13 -14 -13 -20 -3 -6
9 -4 11 6 5 12 -8 12 -6 0 8 -16 20 -22 22 -18 5 1 -7 -3 -12 -10 -13 -6 0
-15 -3 -19 -7 -4 -5 -12 -8 -17 -8 -5 0 1 9 14 21 24 20 24 20 1 9 -12 -6 -27
-8 -32 -5 -6 3 -10 2 -10 -3 0 -6 -7 -13 -16 -16 -14 -5 -15 -4 -4 9 7 9 10
18 6 22 -3 3 -6 0 -6 -7 0 -9 -11 -11 -40 -7 -23 3 -40 1 -40 -5 0 -5 4 -7 9
-3 5 3 12 1 15 -4 8 -13 -22 -7 -36 7 -8 8 -14 7 -23 -5 -10 -13 -14 -13 -20
-3 -5 9 -4 11 3 6 17 -10 15 -1 -4 14 -12 11 -15 11 -12 0 2 -8 -2 -14 -9 -15
-6 0 -15 -3 -19 -7 -4 -5 -12 -8 -17 -8 -5 0 1 9 14 21 24 20 24 20 1 9 -12
-6 -27 -8 -32 -5 -6 3 -10 2 -10 -3 0 -6 -7 -13 -16 -16 -14 -5 -15 -4 -4 9 7
9 10 18 6 22 -3 3 -6 1 -6 -6 0 -9 -11 -12 -35 -9 -29 3 -32 2 -22 -11 10 -12
9 -13 -11 -2 -12 7 -20 17 -16 22 4 7 -2 7 -15 0 -12 -7 -26 -9 -31 -6 -6 3
-10 2 -10 -3 0 -6 -7 -13 -16 -16 -14 -5 -15 -4 -4 9 7 9 10 18 6 22 -3 3 -6
1 -6 -6 0 -9 -11 -12 -35 -9 -29 3 -32 2 -22 -11 10 -12 9 -13 -11 -2 -12 7
-20 17 -16 22 4 7 -2 7 -15 0 -12 -7 -26 -9 -31 -6 -6 3 -10 2 -10 -3 0 -6 -7
-13 -16 -16 -14 -5 -15 -4 -4 9 7 9 10 18 6 22 -3 3 -6 1 -6 -6 0 -9 -11 -12
-35 -9 -29 3 -32 2 -22 -11 10 -12 9 -13 -11 -2 -12 7 -20 17 -16 22 4 7 -2 7
-15 0 -12 -7 -26 -9 -31 -6 -6 3 -10 2 -10 -3 0 -6 -7 -13 -16 -16 -14 -5 -15
-4 -4 9 7 9 10 18 6 22 -3 3 -6 1 -6 -5 0 -15 -56 -16 -65 -2 -5 8 -11 7 -21
-1 -7 -6 -21 -9 -29 -5 -8 3 -15 1 -15 -4 0 -6 -7 -10 -15 -10 -8 0 -15 5 -15
11 0 5 5 7 12 3 7 -4 8 -3 4 5 -9 14 -26 5 -26 -15 0 -14 -2 -13 -16 0 -14 15
-17 15 -31 0 -14 -14 -17 -14 -31 0 -14 14 -17 13 -27 -1 -10 -13 -14 -13 -20
-3 -6 9 -4 11 6 5 12 -8 12 -6 0 8 -16 20 -22 22 -19 5 2 -7 -2 -12 -9 -13 -6
0 -15 -3 -19 -7 -4 -5 -12 -8 -17 -8 -5 0 1 9 14 21 24 20 24 20 1 9 -12 -6
-27 -8 -32 -5 -6 3 -10 2 -10 -3 0 -6 -7 -13 -16 -16 -14 -5 -15 -4 -4 9 7 9
10 18 6 22 -3 3 -6 0 -6 -7 0 -9 -11 -11 -40 -7 -23 3 -40 1 -40 -5 0 -5 4 -7
9 -3 5 3 12 1 15 -4 8 -13 -22 -7 -36 7 -8 8 -14 7 -23 -5 -10 -13 -14 -13
-20 -3 -6 9 -4 11 6 5 8 -5 7 -1 -3 10 -14 15 -20 16 -32 6 -9 -7 -23 -11 -31
-7 -8 3 -15 1 -15 -4 0 -6 -7 -10 -15 -10 -8 0 -15 5 -15 11 0 5 5 7 12 3 7
-4 8 -3 4 5 -9 14 -26 5 -26 -15 0 -13 -2 -13 -16 1 -10 9 -20 12 -23 7 -3 -5
-16 -11 -29 -15 -19 -4 -21 -3 -11 9 6 7 16 11 22 7 6 -3 7 -1 3 6 -6 9 -11 9
-22 0 -7 -6 -21 -9 -29 -5 -8 3 -15 1 -15 -4 0 -6 -7 -10 -15 -10 -8 0 -15 5
-15 11 0 5 5 7 12 3 7 -4 8 -3 4 5 -9 14 -26 5 -26 -15 0 -14 -2 -13 -16 0
-14 15 -17 15 -31 0 -14 -14 -17 -14 -31 0 -14 14 -17 13 -27 -1 -10 -13 -14
-13 -20 -3 -6 9 -4 11 6 5 12 -8 12 -6 0 8 -16 20 -22 22 -19 5 2 -7 -2 -12
-9 -13 -6 0 -15 -3 -19 -7 -4 -5 -12 -8 -17 -8 -5 0 1 9 14 21 24 20 24 20 1
9 -12 -6 -27 -8 -32 -5 -6 3 -10 2 -10 -3 0 -6 -7 -13 -16 -16 -14 -5 -15 -4
-4 9 7 9 10 18 6 22 -3 3 -6 0 -6 -7 0 -9 -11 -11 -40 -7 -23 3 -40 1 -40 -5
0 -5 4 -7 9 -3 5 3 12 1 15 -4 8 -13 -22 -7 -36 7 -8 8 -14 7 -23 -5 -10 -13
-14 -13 -20 -3 -6 9 -4 11 6 5 8 -5 7 -1 -3 10 -14 15 -20 16 -32 6 -9 -7 -23
-11 -31 -7 -8 3 -15 1 -15 -4 0 -6 -7 -10 -15 -10 -8 0 -15 5 -15 11 0 5 5 7
12 3 7 -4 8 -3 4 5 -9 14 -26 5 -26 -15 0 -14 -2 -13 -16 0 -14 15 -17 15 -31
0 -14 -14 -17 -14 -31 0 -14 14 -17 13 -27 -1 -10 -13 -14 -13 -20 -3 -5 9 -4
11 3 6 17 -10 15 -1 -4 14 -12 11 -15 11 -12 0 2 -8 -2 -14 -9 -15 -6 0 -15
-3 -19 -7 -4 -5 -12 -8 -17 -8 -5 0 1 9 14 21 24 20 24 20 1 9 -12 -6 -27 -8
-32 -5 -6 3 -10 2 -10 -3 0 -6 -7 -13 -16 -16 -14 -5 -15 -4 -4 9 7 9 10 18 6
22 -3 3 -6 0 -6 -7 0 -9 -11 -11 -40 -7 -23 3 -40 1 -40 -5 0 -5 4 -7 9 -3 5
3 12 1 15 -4 8 -13 -22 -7 -36 7 -8 8 -14 7 -23 -5 -10 -13 -14 -13 -20 -3 -6
9 -4 11 6 5 8 -5 7 -1 -3 10 -14 15 -20 16 -32 6 -9 -7 -23 -11 -31 -7 -8 3
-15 1 -15 -4 0 -6 -7 -10 -15 -10 -8 0 -15 5 -15 11 0 5 5 7 12 3 7 -4 8 -3 4
5 -9 14 -26 5 -26 -15 0 -14 -2 -13 -16 0 -14 15 -17 15 -31 0 -14 -14 -17
-14 -31 0 -14 14 -17 13 -27 -1 -10 -13 -14 -13 -20 -3 -6 9 -4 11 6 5 12 -8
12 -6 0 8 -16 20 -22 22 -18 5 1 -7 -3 -12 -10 -13 -6 0 -15 -3 -19 -7 -4 -5
-12 -8 -17 -8 -5 0 1 9 14 21 24 20 24 20 1 9 -12 -6 -27 -8 -32 -5 -6 3 -10
2 -10 -3 0 -6 -7 -13 -16 -16 -14 -5 -15 -4 -4 9 7 9 10 18 6 22 -3 3 -6 0 -6
-7 0 -9 -11 -11 -40 -7 -23 3 -40 1 -40 -5 0 -5 4 -7 9 -3 5 3 12 1 15 -4 8
-13 -22 -7 -36 7 -8 8 -14 7 -23 -5 -10 -13 -14 -13 -20 -3 -6 9 -4 11 6 5 8
-5 7 -1 -3 10 -14 15 -20 16 -32 6 -9 -7 -23 -11 -31 -7 -8 3 -15 1 -15 -4 0
-6 -7 -10 -15 -10 -8 0 -15 5 -15 11 0 5 5 7 12 3 7 -4 8 -3 4 5 -9 14 -26 5
-26 -15 0 -14 -2 -13 -16 0 -14 15 -17 15 -31 0 -14 -14 -17 -14 -31 0 -14 14
-17 13 -27 -1 -10 -13 -14 -13 -20 -3 -6 9 -4 11 6 5 12 -8 12 -6 0 8 -16 20
-22 22 -18 5 1 -7 -3 -12 -10 -13 -6 0 -15 -3 -19 -7 -4 -5 -12 -8 -17 -8 -5
0 1 9 14 21 24 20 24 20 1 9 -12 -6 -27 -8 -32 -5 -6 3 -10 2 -10 -3 0 -6 -7
-13 -16 -16 -14 -5 -15 -4 -4 9 7 9 10 18 6 22 -3 3 -6 0 -6 -7 0 -9 -11 -11
-40 -7 -23 3 -40 1 -40 -5 0 -5 4 -7 9 -3 5 3 12 1 15 -4 8 -13 -22 -7 -36 7
-8 8 -14 7 -23 -5 -10 -13 -14 -13 -20 -3 -6 9 -4 11 6 5 12 -8 12 -6 0 8 -16
20 -35 12 -26 -12 5 -14 4 -14 -11 1 -16 16 -18 16 -29 1 -10 -13 -14 -13 -20
-3 -6 9 -4 11 6 5 12 -8 12 -6 0 8 -16 20 -22 22 -19 5 2 -7 -2 -12 -9 -13 -6
0 -15 -3 -19 -7 -4 -5 -12 -8 -17 -8 -5 0 1 9 14 21 24 20 24 20 1 9 -12 -6
-27 -8 -32 -5 -6 3 -10 2 -10 -3 0 -6 -7 -13 -16 -16 -14 -5 -15 -4 -4 9 7 9
10 18 6 22 -3 3 -6 0 -6 -7 0 -9 -11 -11 -40 -7 -23 3 -40 1 -40 -5 0 -5 4 -7
9 -3 5 3 12 1 15 -4 9 -13 -19 -7 -38 8 -11 10 -16 10 -16 2 0 -7 -5 -9 -10
-6 -6 4 -8 11 -5 16 3 5 -1 6 -9 3 -9 -3 -13 -11 -9 -18 4 -6 -1 -5 -10 3 -9
7 -17 10 -17 5 -1 -5 -8 2 -16 16 -8 14 -13 18 -11 9 3 -9 -1 -16 -8 -16 -8 0
-11 7 -7 16 3 9 2 13 -3 9 -4 -4 -21 4 -38 18 -23 20 -32 22 -38 12 -6 -9 -9
-6 -9 10 0 13 -4 20 -10 17 -5 -3 -10 -1 -10 5 0 6 -5 8 -12 4 -8 -5 -9 0 -5
15 4 17 2 21 -9 17 -8 -3 -12 -2 -9 3 3 5 1 12 -5 16 -6 4 -8 11 -4 16 3 5 2
9 -3 8 -20 -3 -27 2 -13 11 13 8 12 10 -2 10 -11 0 -18 8 -18 20 0 11 -5 20
-12 20 -6 0 -8 3 -5 7 4 3 2 12 -4 20 -6 7 -8 13 -4 13 4 0 1 8 -6 17 -10 11
-10 14 -1 9 7 -4 12 -1 12 9 0 9 -5 13 -11 10 -6 -4 -5 3 3 14 11 18 11 23 -2
31 -8 6 -10 10 -3 10 13 0 12 18 -1 39 -6 10 -5 12 2 7 7 -4 12 -1 12 8 0 9 6
16 13 17 9 0 9 2 0 6 -10 3 -10 7 0 18 7 7 17 10 22 7 6 -2 5 1 -2 8 -13 14
-7 40 9 40 6 0 4 -8 -3 -17 -13 -16 -12 -17 4 -4 9 8 15 16 12 19 -3 3 1 12 8
20 10 13 9 14 -3 7 -8 -4 2 8 22 28 20 21 42 37 48 37 6 0 8 5 5 10 -3 6 3 10
15 10 11 0 23 7 26 15 4 8 10 13 14 10 4 -3 11 2 14 10 5 13 10 14 27 4 17 -9
20 -8 14 2 -6 9 -3 10 10 5 15 -5 16 -4 5 9 -11 13 -11 16 1 13 8 -2 17 -10
21 -18 5 -12 7 -12 7 3 1 14 5 16 19 8 11 -6 24 -6 32 -1 9 5 20 4 29 -3 12
-10 14 -9 8 8 -7 20 -7 20 8 1 15 -20 15 -20 15 0z m-235 -656 c3 -6 -1 -7 -9
-4 -18 7 -21 14 -7 14 6 0 13 -4 16 -10z m915 -45 c0 -2 -10 -10 -22 -16 -21
-11 -22 -11 -9 4 13 16 31 23 31 12z m480 0 c0 -2 -10 -10 -22 -16 -21 -11
-22 -11 -9 4 13 16 31 23 31 12z m480 0 c0 -2 -10 -10 -22 -16 -21 -11 -22
-11 -9 4 13 16 31 23 31 12z m640 0 c0 -2 -10 -10 -22 -16 -21 -11 -22 -11 -9
4 13 16 31 23 31 12z m478 -7 c8 -10 5 -13 -13 -13 -18 0 -21 3 -13 13 6 6 12
12 13 12 1 0 7 -6 13 -12z m127 -8 c-3 -5 -12 -10 -18 -10 -7 0 -6 4 3 10 19
12 23 12 15 0z m160 0 c-3 -5 -12 -10 -18 -10 -7 0 -6 4 3 10 19 12 23 12 15
0z m160 0 c-3 -5 -12 -10 -18 -10 -7 0 -6 4 3 10 19 12 23 12 15 0z m-3215
-580 c0 7 8 10 20 7 11 -3 20 -2 20 2 0 4 7 8 15 8 12 0 12 -3 2 -16 -10 -12
-9 -13 3 -6 8 5 31 10 50 11 19 1 47 4 62 7 15 2 25 1 23 -4 -3 -4 -1 -10 5
-14 5 -3 10 2 10 12 1 17 2 17 15 -1 9 -12 15 -15 15 -7 0 9 8 11 26 7 19 -5
24 -4 18 6 -4 7 3 4 15 -6 15 -14 20 -15 16 -5 -4 10 1 15 14 15 16 0 18 -3 8
-15 -10 -12 -9 -13 10 -3 16 9 24 9 29 1 4 -8 9 -8 17 0 14 14 50 15 42 1 -3
-5 -1 -10 4 -10 6 0 11 8 11 18 1 15 2 15 15 -2 9 -12 15 -15 15 -7 0 9 8 11
26 7 19 -5 24 -4 18 6 -4 7 3 4 15 -6 15 -14 20 -15 16 -5 -4 10 1 15 14 15
16 0 18 -3 8 -15 -10 -12 -9 -13 10 -3 16 9 24 9 29 1 4 -8 9 -8 17 0 14 14
50 15 42 1 -3 -5 -1 -10 4 -10 6 0 11 8 11 18 1 15 2 15 15 -2 9 -12 15 -15
15 -7 0 9 8 11 26 7 19 -5 24 -4 18 6 -4 7 3 4 15 -6 15 -14 20 -15 16 -5 -4
10 1 15 14 15 16 0 18 -3 8 -15 -10 -12 -9 -13 10 -3 16 9 24 9 29 1 4 -8 9
-8 17 0 14 14 50 15 42 1 -3 -5 -1 -10 4 -10 6 0 11 8 11 18 1 15 2 15 15 -2
9 -12 15 -15 15 -7 0 9 8 11 26 7 19 -5 24 -4 18 6 -4 7 3 4 15 -6 15 -14 20
-15 16 -5 -4 10 1 15 14 15 16 0 18 -3 8 -15 -10 -12 -9 -13 10 -3 16 9 24 9
29 1 4 -8 9 -8 17 0 14 14 50 15 42 1 -3 -5 -1 -10 4 -10 6 0 11 8 11 18 1 15
2 15 15 -2 9 -12 15 -15 15 -7 0 9 8 11 26 7 19 -5 24 -4 18 6 -4 7 3 4 15 -6
15 -14 20 -15 16 -5 -4 10 1 15 14 15 16 0 18 -3 8 -15 -10 -12 -9 -13 10 -3
16 9 24 9 29 1 4 -8 9 -8 17 0 14 14 50 15 42 1 -3 -5 -1 -10 4 -10 6 0 11 8
11 18 1 15 2 15 15 -2 8 -11 15 -15 15 -9 0 6 18 11 40 11 22 1 38 -3 36 -7
-3 -4 1 -8 8 -8 8 0 12 7 9 16 -4 13 -2 13 10 -1 13 -17 15 -16 26 5 7 13 9
15 6 4 -4 -15 -1 -17 16 -12 14 5 19 3 15 -4 -5 -7 -1 -9 8 -5 9 3 14 9 11 13
-2 4 9 5 25 3 17 -2 28 -7 25 -11 -2 -4 2 -8 9 -8 8 0 12 7 9 16 -4 13 -2 13
10 -1 13 -17 15 -16 26 5 7 13 9 15 6 4 -4 -15 -1 -17 16 -12 14 5 19 3 15 -4
-5 -7 -1 -9 8 -5 9 3 14 9 11 13 -2 4 9 5 25 3 17 -2 28 -7 25 -11 -2 -4 2 -8
9 -8 8 0 12 7 9 16 -4 13 -2 13 10 -1 13 -17 15 -16 26 5 7 13 9 15 6 4 -4
-15 -1 -17 16 -12 14 5 19 3 15 -4 -5 -7 -1 -9 8 -5 9 3 14 9 11 13 -2 4 9 5
25 3 17 -2 28 -7 25 -11 -2 -4 2 -8 9 -8 8 0 12 7 9 16 -4 13 -2 13 10 -1 13
-17 15 -16 26 5 7 13 9 15 6 4 -4 -15 -1 -17 16 -12 14 5 19 3 15 -4 -5 -7 -1
-9 8 -5 9 3 14 9 11 13 -2 4 9 5 25 3 17 -2 28 -7 25 -11 -2 -4 2 -8 9 -8 8 0
12 7 9 16 -4 13 -2 13 10 -1 13 -17 15 -16 26 5 7 13 9 15 6 4 -4 -15 -1 -17
16 -12 14 5 19 3 15 -4 -5 -7 -1 -9 8 -5 9 3 14 9 11 13 -2 4 9 5 25 3 17 -2
28 -7 25 -11 -2 -4 2 -8 9 -8 8 0 12 7 9 16 -4 13 -2 13 10 -1 13 -17 15 -16
26 5 7 13 9 15 6 4 -4 -15 -1 -17 16 -12 14 5 19 3 15 -4 -5 -7 -1 -9 8 -5 9
3 14 9 11 13 -2 4 9 5 25 3 17 -2 28 -7 25 -11 -2 -4 2 -8 9 -8 8 0 12 7 9 16
-4 13 -2 13 10 -1 13 -17 15 -16 26 5 7 13 9 15 6 4 -4 -15 -1 -17 16 -12 14
5 19 3 15 -4 -5 -7 -1 -9 8 -5 9 3 14 9 11 13 -2 4 9 5 25 3 17 -2 28 -7 25
-11 -2 -4 2 -8 9 -8 8 0 12 7 9 16 -4 13 -2 13 10 -1 13 -17 15 -16 26 5 7 13
9 15 6 4 -4 -15 -1 -17 16 -12 14 5 19 3 15 -4 -5 -7 -1 -9 8 -5 9 3 14 9 11
14 -2 4 7 5 20 2 14 -2 28 -8 30 -13 8 -12 36 1 29 15 -3 6 2 2 10 -8 16 -20
16 -20 16 0 1 19 1 19 15 0 9 -12 15 -15 15 -7 0 9 8 11 26 7 19 -5 24 -4 18
6 -4 7 3 4 15 -6 15 -14 20 -15 16 -5 -4 10 1 15 14 15 16 0 17 -3 9 -14 -9
-11 -7 -11 15 -1 21 10 30 9 44 -2 9 -8 14 -9 10 -3 -4 7 2 12 18 12 14 0 22
-5 19 -10 -4 -6 4 -4 17 2 19 11 25 10 39 -6 8 -11 20 -20 25 -21 43 -7 66
-22 57 -37 -3 -5 4 -7 16 -4 16 4 19 2 15 -10 -5 -11 -2 -14 10 -9 11 4 14 2
10 -9 -3 -8 -2 -14 3 -12 5 2 9 -1 9 -5 0 -5 8 -13 18 -18 9 -6 14 -15 11 -21
-4 -6 -3 -8 3 -5 6 4 16 0 22 -7 9 -11 9 -16 1 -21 -8 -5 -5 -12 8 -21 13 -9
19 -23 18 -39 -2 -13 0 -22 4 -20 4 3 6 -14 5 -38 -2 -27 3 -48 13 -60 15 -16
14 -17 0 -12 -9 4 -19 1 -24 -6 -4 -7 -3 -10 3 -6 6 4 10 -4 10 -19 0 -14 -6
-28 -14 -31 -12 -5 -12 -7 -1 -14 11 -7 10 -11 -2 -18 -8 -6 -11 -13 -8 -17
10 -9 -15 -33 -27 -26 -5 3 -4 -2 4 -11 12 -15 11 -17 -4 -17 -10 0 -16 -3
-12 -6 9 -9 -35 -54 -47 -47 -6 4 -5 -1 3 -10 12 -15 12 -17 -2 -12 -8 4 -18
1 -22 -4 -3 -6 -11 -9 -16 -6 -5 3 -6 0 -3 -8 3 -8 -2 -17 -11 -21 -11 -4 -14
-2 -10 7 4 6 -1 3 -10 -8 -9 -11 -22 -19 -30 -17 -7 1 -16 -2 -20 -8 -3 -5
-19 -10 -35 -10 -16 0 -31 -4 -34 -8 -8 -14 -81 -7 -78 7 1 7 -2 10 -8 6 -6
-3 -8 -10 -5 -15 3 -5 1 -12 -5 -15 -6 -4 -9 -1 -8 6 2 7 -6 13 -17 13 -11 0
-19 -6 -17 -13 1 -7 -2 -10 -8 -6 -6 3 -8 11 -5 16 4 5 1 9 -4 9 -6 0 -11 -4
-11 -9 0 -5 -11 -8 -25 -8 -14 0 -25 3 -25 8 0 5 -7 5 -17 2 -12 -5 -14 -3 -8
7 5 9 4 11 -4 6 -6 -4 -9 -11 -6 -16 3 -5 1 -12 -5 -15 -6 -4 -9 -1 -8 6 2 7
-6 13 -17 14 -11 0 -26 4 -34 9 -10 7 -12 6 -6 -4 6 -10 4 -12 -8 -7 -10 4
-17 1 -17 -6 0 -8 -4 -6 -10 3 -7 11 -10 11 -10 2 0 -7 -5 -10 -10 -7 -6 4 -7
12 -3 18 5 9 3 9 -8 1 -8 -6 -22 -10 -32 -9 -9 2 -15 0 -12 -4 2 -4 -8 -7 -23
-6 -15 1 -26 7 -24 14 1 7 -2 10 -8 6 -6 -3 -8 -10 -5 -15 3 -5 1 -12 -5 -15
-6 -4 -9 -1 -8 6 2 7 -6 13 -17 14 -11 0 -26 4 -34 9 -10 7 -12 6 -6 -4 6 -10
4 -12 -8 -7 -10 4 -17 1 -17 -6 0 -8 -4 -6 -10 3 -5 8 -10 10 -10 5 0 -6 -11
-11 -24 -11 -14 0 -23 3 -21 6 2 3 -5 7 -16 7 -17 2 -18 -1 -9 -13 8 -9 9 -14
2 -14 -6 0 -12 5 -14 12 -2 6 -14 12 -26 13 -11 1 -19 -2 -16 -7 3 -4 0 -8 -5
-8 -6 0 -11 5 -11 10 0 6 -4 10 -10 10 -5 0 -7 -8 -4 -17 5 -14 4 -15 -4 -4
-12 17 -62 22 -62 6 0 -5 -5 -3 -10 5 -7 11 -10 11 -10 2 0 -7 -5 -10 -10 -7
-6 4 -7 12 -3 18 5 9 3 9 -8 1 -8 -6 -22 -10 -32 -9 -9 2 -15 0 -12 -4 2 -4
-8 -7 -23 -6 -15 1 -26 7 -24 14 1 7 -2 10 -8 6 -6 -3 -8 -10 -5 -15 3 -5 1
-12 -5 -15 -6 -4 -9 -1 -8 6 2 7 -6 13 -17 14 -11 0 -26 4 -34 9 -10 7 -12 6
-6 -4 6 -10 4 -12 -8 -7 -10 4 -17 1 -17 -6 0 -8 -4 -6 -10 3 -5 8 -10 10 -10
5 0 -6 -11 -11 -24 -11 -14 0 -23 3 -21 6 2 3 -5 7 -16 7 -17 2 -18 -1 -9 -13
8 -9 9 -14 2 -14 -6 0 -12 5 -14 12 -2 6 -14 12 -26 13 -11 1 -19 -2 -16 -7 3
-4 0 -8 -5 -8 -6 0 -11 5 -11 10 0 6 -4 10 -10 10 -5 0 -7 -8 -4 -17 5 -14 4
-15 -4 -4 -12 17 -62 22 -62 6 0 -5 -5 -3 -10 5 -7 11 -10 11 -10 2 0 -7 -5
-10 -10 -7 -6 4 -7 12 -3 18 5 9 3 9 -8 1 -8 -6 -22 -10 -32 -9 -9 2 -15 0
-12 -4 2 -4 -8 -7 -23 -6 -15 1 -26 7 -24 14 1 7 -2 10 -8 6 -6 -3 -8 -10 -5
-15 3 -5 1 -12 -5 -15 -6 -4 -9 -1 -8 6 2 7 -6 13 -17 14 -11 0 -26 4 -34 9
-10 7 -12 6 -6 -4 6 -10 4 -12 -8 -7 -10 4 -17 1 -17 -6 0 -8 -4 -6 -10 3 -5
8 -10 10 -10 4 0 -6 -7 -11 -15 -11 -11 0 -12 4 -3 14 8 11 7 12 -6 7 -9 -3
-16 -10 -16 -14 0 -4 -11 -7 -25 -7 -14 0 -25 3 -25 8 0 5 -7 5 -17 2 -12 -5
-14 -3 -8 7 5 9 4 11 -4 6 -6 -4 -9 -11 -6 -16 3 -5 1 -12 -5 -15 -6 -4 -9 -1
-8 6 2 7 -6 13 -17 13 -11 0 -19 -6 -17 -13 1 -7 -2 -10 -8 -6 -6 3 -8 11 -5
16 4 5 1 9 -4 9 -6 0 -11 -4 -11 -9 0 -5 -11 -8 -25 -8 -14 0 -25 3 -25 8 0 5
-7 5 -17 2 -12 -5 -14 -3 -8 7 5 9 4 11 -4 6 -6 -4 -9 -11 -6 -16 3 -5 1 -12
-5 -15 -6 -4 -9 -1 -8 6 2 7 -6 13 -17 13 -11 0 -19 -6 -17 -13 1 -7 -2 -10
-8 -6 -6 3 -8 11 -5 16 4 5 1 9 -4 9 -6 0 -11 -4 -11 -9 0 -5 -11 -8 -25 -8
-14 0 -25 3 -25 8 0 5 -7 5 -17 2 -12 -5 -14 -3 -8 7 5 9 4 11 -4 6 -6 -4 -9
-11 -6 -16 3 -5 1 -12 -5 -15 -6 -4 -9 -1 -8 6 2 7 -6 13 -17 13 -11 0 -19 -6
-17 -13 1 -7 -2 -10 -8 -6 -6 3 -8 11 -5 16 4 5 1 9 -4 9 -6 0 -11 -4 -11 -9
0 -5 -11 -8 -25 -8 -14 0 -25 3 -25 8 0 5 -7 5 -17 2 -12 -5 -14 -3 -8 7 5 9
4 11 -4 6 -6 -4 -9 -11 -6 -16 3 -5 1 -12 -5 -15 -6 -4 -9 -1 -8 6 2 7 -6 13
-17 14 -11 0 -26 4 -34 9 -10 7 -12 6 -6 -4 6 -10 4 -12 -8 -7 -10 4 -17 1
-17 -6 0 -8 -4 -6 -10 3 -7 11 -10 11 -10 2 0 -7 -5 -10 -10 -7 -6 4 -7 12 -3
18 5 9 3 9 -8 1 -8 -6 -22 -10 -32 -9 -9 2 -15 0 -12 -4 2 -4 -8 -7 -23 -6
-15 1 -26 7 -24 14 1 7 -2 10 -8 6 -6 -3 -8 -10 -5 -15 3 -5 1 -12 -5 -15 -6
-4 -9 -1 -8 6 2 7 -6 13 -17 14 -11 0 -26 4 -34 9 -10 7 -12 6 -6 -4 6 -10 4
-12 -8 -7 -10 4 -17 1 -17 -6 0 -8 -4 -6 -10 3 -5 8 -10 10 -10 5 0 -6 -11
-11 -24 -11 -14 0 -23 3 -21 6 2 3 -5 7 -16 7 -17 2 -18 -1 -9 -13 8 -9 9 -14
2 -14 -6 0 -12 5 -14 12 -2 6 -14 12 -26 13 -11 1 -19 -2 -16 -7 3 -4 0 -8 -5
-8 -6 0 -11 5 -11 10 0 6 -4 10 -10 10 -5 0 -7 -8 -4 -17 5 -14 4 -15 -4 -4
-12 17 -62 22 -62 6 0 -5 -5 -3 -10 5 -7 11 -10 11 -10 2 0 -7 -5 -10 -10 -7
-6 4 -7 12 -3 18 5 9 3 9 -8 1 -8 -6 -22 -10 -32 -9 -9 2 -15 0 -12 -4 2 -4
-8 -7 -23 -6 -15 1 -26 7 -24 14 1 7 -2 10 -8 6 -6 -3 -8 -10 -5 -15 3 -5 1
-12 -5 -15 -6 -4 -9 -1 -8 6 2 7 -6 13 -17 14 -11 0 -26 4 -34 9 -10 7 -12 6
-6 -4 6 -10 4 -12 -8 -7 -10 4 -17 1 -17 -6 0 -8 -4 -6 -10 3 -5 8 -10 10 -10
3 0 -13 -18 -12 -39 1 -10 6 -12 5 -7 -2 4 -7 2 -12 -3 -12 -6 0 -11 5 -11 10
0 6 -4 10 -10 10 -5 0 -7 -8 -4 -17 5 -17 5 -17 -6 0 -6 9 -16 14 -22 10 -7
-3 -24 -7 -40 -8 -21 -1 -25 1 -17 11 7 8 6 14 -2 20 -7 4 -9 3 -6 -3 4 -7 -3
-10 -17 -9 -13 0 -22 5 -18 10 3 5 -5 7 -16 4 -15 -4 -22 -2 -22 9 0 8 -5 11
-10 8 -6 -3 -10 -1 -10 4 0 6 -6 10 -12 9 -7 -2 -12 2 -11 7 0 6 -11 19 -25
29 l-27 20 20 -25 20 -24 -22 19 c-13 11 -23 23 -23 28 0 15 -27 38 -36 30 -5
-4 -2 2 6 12 10 13 10 17 3 12 -8 -4 -13 -2 -13 4 0 6 -4 9 -9 6 -5 -4 -7 3
-4 14 4 14 0 20 -12 20 -14 0 -15 3 -5 15 11 13 7 19 -11 17 -3 -1 -4 10 -1
23 3 17 0 25 -9 25 -11 0 -11 2 1 10 12 8 12 10 1 10 -11 0 -11 3 0 17 10 11
10 14 2 9 -8 -4 -13 -2 -13 6 0 8 6 20 13 27 7 9 7 11 1 8 -15 -9 -27 20 -12
29 7 5 8 2 3 -7 -5 -8 -4 -11 1 -6 5 5 10 13 10 18 1 5 2 10 4 12 1 1 3 18 5
37 7 56 8 58 23 52 11 -4 14 -1 9 12 -4 11 -1 19 9 23 13 5 13 7 2 14 -10 7
-9 9 5 9 9 0 17 7 17 16 0 14 2 15 17 3 11 -10 14 -10 9 -1 -4 6 -2 12 3 12 6
0 11 7 11 15 0 8 5 15 10 15 6 0 23 12 37 28 14 15 20 19 13 9 -11 -15 -10
-17 6 -11 10 4 24 13 31 21 6 8 16 12 22 8 6 -3 11 2 11 12 0 10 4 14 8 8 10
-14 35 -18 27 -5 -9 14 27 9 38 -5 5 -6 6 1 3 15 l-5 25 20 -24 c10 -13 19
-18 19 -11z m134 -708 c3 -5 -1 -9 -9 -9 -8 0 -12 4 -9 9 3 4 7 8 9 8 2 0 6
-4 9 -8z m156 2 c0 -8 -19 -13 -24 -6 -3 5 1 9 9 9 8 0 15 -2 15 -3z m324 -2
c3 -5 -1 -9 -9 -9 -8 0 -12 4 -9 9 3 4 7 8 9 8 2 0 6 -4 9 -8z m156 2 c0 -8
-19 -13 -24 -6 -3 5 1 9 9 9 8 0 15 -2 15 -3z m84 -2 c3 -5 -1 -9 -9 -9 -8 0
-12 4 -9 9 3 4 7 8 9 8 2 0 6 -4 9 -8z m720 0 c3 -5 -1 -9 -9 -9 -8 0 -12 4
-9 9 3 4 7 8 9 8 2 0 6 -4 9 -8z m156 2 c0 -8 -19 -13 -24 -6 -3 5 1 9 9 9 8
0 15 -2 15 -3z m324 -2 c3 -5 -1 -9 -9 -9 -8 0 -12 4 -9 9 3 4 7 8 9 8 2 0 6
-4 9 -8z m156 2 c0 -8 -19 -13 -24 -6 -3 5 1 9 9 9 8 0 15 -2 15 -3z m324 -2
c3 -5 -1 -9 -9 -9 -8 0 -12 4 -9 9 3 4 7 8 9 8 2 0 6 -4 9 -8z m156 2 c0 -8
-19 -13 -24 -6 -3 5 1 9 9 9 8 0 15 -2 15 -3z m84 -2 c3 -5 -1 -9 -9 -9 -8 0
-12 4 -9 9 3 4 7 8 9 8 2 0 6 -4 9 -8z m-2868 -511 c8 7 14 6 20 -2 5 -8 3 -9
-6 -4 -9 6 -11 4 -5 -5 6 -10 11 -9 22 5 12 18 17 14 14 -10 -1 -5 6 -1 14 9
11 14 15 16 15 5 0 -12 2 -12 10 1 7 12 10 12 10 1 0 -7 6 -11 14 -8 7 3 18 1
24 -5 8 -8 13 -6 18 6 5 14 9 15 15 4 7 -11 9 -11 9 0 0 10 4 9 16 -3 12 -12
19 -13 30 -4 11 9 14 8 14 -2 0 -8 6 -6 16 7 15 19 16 19 10 -1 -6 -20 -6 -20
9 -1 9 12 15 15 15 7 0 -11 3 -11 17 0 9 8 14 9 10 3 -9 -16 18 -25 32 -11 8
8 11 7 11 -3 0 -9 5 -8 16 6 15 19 16 19 10 -1 -6 -20 -6 -20 9 -1 11 15 15
16 16 5 0 -10 2 -10 6 -2 3 10 8 9 20 -2 12 -12 18 -13 29 -4 11 9 14 8 14 -2
0 -8 6 -6 16 7 15 19 16 19 10 -1 -6 -20 -6 -20 9 -1 9 12 15 15 15 7 0 -11 3
-11 17 0 9 8 14 9 10 3 -9 -16 18 -25 32 -11 8 8 11 7 11 -3 0 -9 5 -8 16 6
15 19 16 19 10 -1 -6 -20 -6 -20 9 -1 11 15 15 16 16 5 0 -10 2 -10 6 -2 3 10
8 9 20 -2 12 -12 18 -13 29 -4 11 9 14 8 14 -2 0 -8 6 -6 16 7 15 19 16 19 10
-1 -6 -20 -6 -20 9 -1 9 12 15 15 15 7 0 -11 3 -11 17 0 9 8 14 9 10 3 -9 -16
18 -25 32 -11 8 8 11 7 11 -3 0 -9 5 -8 16 6 15 19 16 19 10 -1 -6 -20 -6 -20
9 -1 11 15 15 16 16 5 0 -10 2 -10 6 -2 3 10 8 9 20 -2 12 -12 18 -13 29 -4
11 9 14 8 14 -2 0 -8 6 -6 16 7 15 19 16 19 10 -1 -6 -20 -6 -20 9 -1 9 12 15
15 15 7 0 -11 3 -11 17 0 9 8 14 9 10 3 -9 -16 18 -25 32 -11 8 8 11 7 11 -3
0 -9 5 -8 16 6 15 19 16 19 10 -1 -6 -20 -6 -20 9 -1 11 15 15 16 16 5 0 -10
2 -10 6 -2 3 10 8 9 20 -2 12 -12 18 -13 29 -4 11 9 14 8 14 -2 0 -8 6 -6 16
7 15 19 16 19 10 -1 -6 -20 -6 -20 9 -1 9 12 15 15 15 7 0 -11 3 -11 17 0 9 8
14 9 10 3 -9 -16 18 -25 32 -11 8 8 11 7 11 -3 0 -9 5 -8 16 6 15 19 16 19 10
-1 -6 -20 -6 -20 9 -1 11 15 15 16 16 5 0 -10 2 -10 6 -2 3 10 8 9 20 -2 12
-12 18 -13 29 -4 11 9 14 8 14 -2 0 -8 6 -6 16 7 15 19 16 19 10 -1 -6 -20 -6
-20 9 -1 9 12 15 15 15 7 0 -11 3 -11 17 0 9 8 14 9 10 3 -9 -16 18 -25 32
-11 8 8 11 7 11 -3 0 -9 5 -8 16 6 15 19 16 19 10 -1 -6 -20 -6 -20 9 -1 11
15 15 16 16 5 0 -10 2 -10 6 -2 3 10 8 9 20 -2 12 -12 18 -13 29 -4 11 9 14 8
14 -2 0 -8 6 -6 16 7 15 19 16 19 10 -1 -6 -20 -6 -20 9 -1 9 12 15 15 15 7 0
-11 3 -11 17 0 9 8 14 9 10 3 -9 -16 18 -25 32 -11 8 8 11 7 11 -3 0 -9 5 -8
16 6 15 19 16 19 10 -1 -6 -20 -6 -20 9 -1 11 15 15 16 16 5 0 -10 2 -10 6 -2
3 10 8 9 20 -2 12 -12 18 -13 29 -4 11 9 14 8 14 -2 0 -8 6 -6 16 7 15 19 16
19 10 -1 -6 -20 -6 -20 9 -1 9 12 15 15 15 7 0 -11 3 -11 17 0 9 8 14 9 10 3
-9 -16 18 -25 32 -11 8 8 11 7 11 -3 0 -9 5 -8 16 6 15 19 16 19 10 -1 -6 -20
-6 -20 9 -1 11 15 15 16 16 5 0 -10 2 -10 6 -2 3 10 8 9 20 -2 12 -12 18 -13
29 -4 11 9 14 8 14 -2 0 -8 6 -6 16 7 15 19 16 19 10 -1 -6 -20 -6 -20 9 -1
10 13 15 15 15 6 0 -7 3 -10 6 -7 4 3 15 2 25 -4 14 -7 21 -6 25 4 6 16 60 17
84 2 8 -5 27 -8 43 -7 19 2 26 -1 21 -9 -4 -7 0 -9 12 -5 11 3 32 -1 47 -9 16
-8 25 -9 21 -3 -4 7 -3 8 4 4 7 -4 12 -15 13 -24 0 -10 3 -12 6 -5 3 10 8 10
19 -1 8 -8 14 -19 14 -25 0 -5 9 -8 21 -6 17 3 19 2 9 -10 -10 -12 -8 -13 9
-10 16 3 21 -1 19 -13 -2 -10 3 -16 10 -14 8 1 11 -2 8 -7 -8 -13 4 -42 15
-35 5 3 9 -4 9 -16 0 -14 4 -19 13 -14 7 5 6 0 -3 -11 -9 -11 -10 -16 -2 -11
12 7 16 -4 13 -33 -2 -8 2 -10 11 -5 10 6 10 4 -1 -9 -7 -9 -9 -17 -4 -17 10
0 9 -75 -1 -108 -5 -14 -3 -22 4 -22 7 0 2 -9 -11 -21 -13 -11 -18 -18 -11
-14 14 7 17 -11 2 -20 -5 -3 -10 -11 -10 -16 0 -6 5 -7 12 -3 7 4 8 3 4 -5 -4
-6 -11 -9 -16 -6 -5 3 -12 -5 -16 -17 -3 -13 -20 -35 -36 -49 -20 -19 -25 -29
-16 -32 9 -4 7 -6 -4 -7 -10 -2 -24 -3 -30 -4 -7 -1 -12 -7 -10 -14 2 -10 -17
-17 -40 -13 -4 0 -5 -6 -2 -14 5 -11 2 -13 -12 -8 -13 5 -15 3 -9 -7 5 -8 4
-11 -2 -7 -6 4 -19 0 -29 -8 -23 -17 -34 -19 -34 -4 0 5 4 8 8 5 5 -3 9 2 9
10 0 11 -5 10 -22 -6 -17 -16 -24 -17 -35 -7 -10 9 -12 9 -6 0 8 -15 0 -15
-29 -4 -11 5 -25 4 -32 -1 -9 -7 -13 -7 -13 2 0 10 -3 10 -15 0 -11 -9 -15 -9
-15 -1 0 7 -5 9 -12 4 -19 -11 -38 -12 -38 -2 0 5 -5 9 -11 9 -5 0 -8 -4 -5
-8 6 -11 -25 -9 -43 3 -10 5 -12 4 -7 -3 4 -7 2 -12 -3 -12 -6 0 -11 5 -11 10
0 7 -6 7 -20 0 -15 -8 -20 -8 -20 1 0 8 -4 8 -15 -1 -11 -9 -15 -9 -15 -1 0 7
-5 9 -12 5 -21 -13 -58 -13 -58 -1 0 7 -4 6 -10 -3 -6 -10 -10 -11 -10 -2 0 6
-5 12 -11 12 -5 0 -8 -4 -5 -8 6 -11 -25 -9 -43 3 -10 5 -12 4 -7 -3 4 -7 2
-12 -3 -12 -6 0 -11 5 -11 10 0 7 -6 7 -20 0 -15 -8 -20 -8 -20 1 0 8 -4 8
-15 -1 -11 -9 -15 -9 -15 -1 0 7 -5 9 -12 5 -21 -13 -58 -13 -58 -1 0 7 -4 6
-10 -3 -6 -10 -10 -11 -10 -2 0 6 -5 12 -11 12 -5 0 -8 -4 -5 -8 6 -11 -25 -9
-43 3 -10 5 -12 4 -7 -3 4 -7 2 -12 -3 -12 -6 0 -11 5 -11 10 0 7 -6 7 -20 0
-15 -8 -20 -8 -20 1 0 8 -4 8 -15 -1 -11 -9 -15 -9 -15 -1 0 7 -5 9 -12 5 -21
-13 -58 -13 -58 -1 0 7 -4 6 -10 -3 -6 -10 -10 -11 -10 -2 0 6 -5 12 -11 12
-5 0 -8 -4 -5 -8 6 -11 -25 -9 -43 3 -10 5 -12 4 -7 -3 4 -7 2 -12 -3 -12 -6
0 -11 5 -11 10 0 7 -6 7 -20 0 -15 -8 -20 -8 -20 1 0 8 -4 8 -15 -1 -11 -9
-15 -9 -15 -1 0 7 -5 9 -12 5 -21 -13 -58 -13 -58 -1 0 7 -4 6 -10 -3 -6 -10
-10 -11 -10 -2 0 6 -5 12 -11 12 -5 0 -8 -4 -5 -8 6 -11 -25 -9 -43 3 -10 5
-12 4 -7 -3 4 -7 2 -12 -3 -12 -6 0 -11 5 -11 10 0 7 -6 7 -20 0 -15 -8 -20
-8 -20 1 0 8 -4 8 -15 -1 -11 -9 -15 -9 -15 -1 0 7 -5 9 -12 5 -21 -13 -58
-13 -58 -1 0 7 -4 6 -10 -3 -6 -10 -10 -11 -10 -2 0 6 -5 12 -11 12 -5 0 -8
-4 -5 -8 6 -10 -30 -9 -40 1 -4 4 -14 1 -22 -6 -12 -9 -16 -9 -19 0 -4 10 -10
10 -25 2 -16 -9 -19 -8 -12 3 6 11 5 11 -9 -1 -13 -10 -17 -10 -17 -1 0 10 -3
10 -15 0 -11 -9 -15 -9 -15 -1 0 7 -5 9 -12 5 -19 -12 -58 -14 -58 -3 0 6 -9
5 -21 -2 -17 -9 -20 -8 -13 3 6 11 5 11 -9 -1 -13 -10 -17 -10 -17 -1 0 10 -3
10 -15 0 -11 -9 -15 -9 -15 -1 0 7 -5 9 -12 5 -19 -12 -58 -14 -58 -3 0 6 -9
5 -21 -2 -17 -9 -20 -8 -13 3 6 11 5 11 -9 -1 -13 -10 -17 -10 -17 -1 0 10 -3
10 -15 0 -11 -9 -15 -9 -15 -1 0 7 -5 9 -12 5 -19 -12 -58 -14 -58 -3 0 6 -9
5 -21 -2 -17 -9 -20 -8 -13 3 6 11 5 11 -9 -1 -13 -10 -17 -10 -17 -1 0 10 -3
10 -15 0 -11 -9 -15 -9 -15 -1 0 7 -5 9 -12 4 -19 -11 -38 -12 -38 -2 0 6 -8
5 -20 -1 -15 -8 -20 -8 -20 1 0 8 -4 8 -15 -1 -11 -9 -15 -9 -15 -1 0 7 -5 9
-12 5 -21 -13 -58 -13 -58 -1 0 7 -4 6 -10 -3 -6 -10 -10 -11 -10 -2 0 6 -5
12 -11 12 -5 0 -8 -4 -5 -8 6 -11 -25 -9 -43 3 -10 5 -12 4 -7 -3 4 -7 2 -12
-3 -12 -6 0 -11 5 -11 10 0 7 -6 7 -20 0 -15 -8 -20 -8 -20 1 0 8 -4 8 -15 -1
-12 -10 -15 -10 -15 0 0 9 -4 9 -17 -1 -11 -10 -14 -10 -9 -1 7 11 -11 17 -37
13 -5 -1 -6 3 -2 9 3 5 -1 10 -9 10 -9 0 -16 3 -16 8 0 4 -10 13 -22 21 -22
13 -22 13 -8 -6 8 -11 1 -4 -17 15 -17 19 -36 31 -42 28 -6 -4 -8 2 -6 15 3
15 0 19 -10 15 -8 -3 -14 0 -12 7 1 7 -4 11 -12 9 -12 -3 -12 0 -1 12 9 12 9
16 1 16 -7 0 -9 5 -5 12 5 7 2 9 -7 6 -10 -4 -15 1 -16 15 -1 11 -7 23 -13 27
-7 4 -11 10 -11 14 3 20 0 26 -11 20 -7 -5 -8 -3 -3 7 13 20 14 73 1 81 -7 5
-7 8 -1 8 12 0 14 59 2 77 -5 7 0 10 15 7 13 -2 17 -2 11 2 -7 3 -13 10 -13
15 0 6 3 8 8 6 4 -3 13 1 20 9 10 11 10 14 0 14 -7 0 -2 9 12 20 14 11 21 20
17 20 -4 0 -3 9 3 20 6 11 14 19 18 17 4 -2 15 4 25 15 19 20 9 25 -13 6 -8
-7 -6 -3 4 9 10 13 23 20 27 17 5 -3 12 2 15 10 3 9 11 13 17 9 7 -4 8 0 3 12
-5 15 -4 16 9 5 12 -10 15 -10 15 0 0 7 7 10 16 6 8 -3 12 -2 9 4 -3 6 1 10
10 10 9 0 14 4 11 8 -3 5 1 9 9 9 8 0 12 -3 10 -7 -2 -3 5 -7 16 -7 10 -1 19
3 19 8 0 6 -4 8 -8 5 -5 -3 -9 2 -9 10 0 10 4 11 10 5 7 -7 15 -7 23 0z m4904
-1555 c0 -3 -4 -8 -10 -11 -5 -3 -10 -1 -10 4 0 6 5 11 10 11 6 0 10 -2 10 -4z"/>
<path d="M1590 3689 c0 -5 5 -7 10 -4 6 3 10 8 10 11 0 2 -4 4 -10 4 -5 0 -10
-5 -10 -11z"/>
<path d="M2070 3689 c0 -5 5 -7 10 -4 6 3 10 8 10 11 0 2 -4 4 -10 4 -5 0 -10
-5 -10 -11z"/>
<path d="M2550 3689 c0 -5 5 -7 10 -4 6 3 10 8 10 11 0 2 -4 4 -10 4 -5 0 -10
-5 -10 -11z"/>
<path d="M3030 3689 c0 -5 5 -7 10 -4 6 3 10 8 10 11 0 2 -4 4 -10 4 -5 0 -10
-5 -10 -11z"/>
<path d="M3670 3689 c0 -5 5 -7 10 -4 6 3 10 8 10 11 0 2 -4 4 -10 4 -5 0 -10
-5 -10 -11z"/>
<path d="M4790 3689 c0 -5 5 -7 10 -4 6 3 10 8 10 11 0 2 -4 4 -10 4 -5 0 -10
-5 -10 -11z"/>
<path d="M1236 3102 c-3 -5 1 -9 9 -9 8 0 12 4 9 9 -3 4 -7 8 -9 8 -2 0 -6 -4
-9 -8z"/>
<path d="M4195 3090 c3 -5 8 -10 11 -10 2 0 4 5 4 10 0 6 -5 10 -11 10 -5 0
-7 -4 -4 -10z"/>
<path d="M1010 2409 c0 -5 5 -7 10 -4 6 3 10 8 10 11 0 2 -4 4 -10 4 -5 0 -10
-5 -10 -11z"/>
<path d="M2036 2412 c-3 -5 1 -9 9 -9 8 0 12 4 9 9 -3 4 -7 8 -9 8 -2 0 -6 -4
-9 -8z"/>
<path d="M2196 2412 c-3 -5 1 -9 9 -9 8 0 12 4 9 9 -3 4 -7 8 -9 8 -2 0 -6 -4
-9 -8z"/>
<path d="M2356 2412 c-3 -5 1 -9 9 -9 8 0 12 4 9 9 -3 4 -7 8 -9 8 -2 0 -6 -4
-9 -8z"/>
<path d="M2516 2412 c-3 -5 1 -9 9 -9 8 0 12 4 9 9 -3 4 -7 8 -9 8 -2 0 -6 -4
-9 -8z"/>
<path d="M3956 2412 c-3 -5 1 -9 9 -9 8 0 12 4 9 9 -3 4 -7 8 -9 8 -2 0 -6 -4
-9 -8z"/>
<path d="M550 6419 c0 -5 5 -7 10 -4 6 3 10 8 10 11 0 2 -4 4 -10 4 -5 0 -10
-5 -10 -11z"/>
</g>
</svg>
