<svg xmlns="http://www.w3.org/2000/svg" width="32" height="32" fill="none"><rect width="32" height="32" fill="#fff" rx="6"/><path fill="#D6221A" d="M22.138 10.986a1.5 1.5 0 0 1 .021 2.1l-5.417 5.641a1.5 1.5 0 0 1-1.05.46l-2.276.048.048-2.29a1.5 1.5 0 0 1 .442-1.032l5.538-5.506a1.5 1.5 0 0 1 2.118.003l.576.576Z"/><path fill="#D6221A" d="M16.6 9.333a.667.667 0 0 1 0 1.334H12c-.737 0-1.334.597-1.334 1.333v8c0 .736.597 1.333 1.334 1.333h8c.736 0 1.333-.597 1.333-1.333v-3.333a.667.667 0 0 1 1.333 0V20A2.667 2.667 0 0 1 20 22.667h-8A2.667 2.667 0 0 1 9.333 20v-8A2.667 2.667 0 0 1 12 9.333h4.6Z" opacity=".3"/></svg>