<svg width="18" height="18" viewBox="0 0 18 18" fill="none" xmlns="http://www.w3.org/2000/svg">
<g opacity="0.38" clip-path="url(#clip0_1956_2)">
<path d="M10.2604 10.2605C10.0609 10.4747 9.82018 10.6465 9.55277 10.7657C9.28536 10.8848 8.99668 10.9489 8.70398 10.954C8.41127 10.9592 8.12051 10.9054 7.84907 10.7957C7.57762 10.6861 7.33103 10.5229 7.12402 10.3159C6.91702 10.1089 6.75382 9.86228 6.64418 9.59083C6.53454 9.31938 6.48069 9.02863 6.48586 8.73592C6.49102 8.44321 6.55509 8.15454 6.67424 7.88713C6.79339 7.61972 6.96518 7.37904 7.17936 7.17946M13.0363 13.0364C11.7941 13.9832 10.2816 14.5078 8.7199 14.5333C3.63323 14.5333 0.726562 8.72 0.726562 8.72C1.63046 7.03551 2.88413 5.5638 4.4035 4.4036L13.0363 13.0364ZM7.1939 3.08106C7.69408 2.96398 8.20619 2.90546 8.7199 2.90667C13.8066 2.90667 16.7132 8.72 16.7132 8.72C16.2721 9.54521 15.7461 10.3221 15.1436 11.0381L7.1939 3.08106Z" stroke="white" stroke-width="1.4" stroke-linecap="round" stroke-linejoin="round"/>
<path d="M0.726562 0.726669L16.7132 16.7133" stroke="white" stroke-width="1.4" stroke-linecap="round" stroke-linejoin="round"/>
</g>
<defs>
<clipPath id="clip0_1956_2">
<rect width="17.44" height="17.44" fill="white"/>
</clipPath>
</defs>
</svg>
