<svg xmlns="http://www.w3.org/2000/svg" width="220" height="240" fill="none"><path fill="#fff" d="M201.26 11.381.285 30.096 19 231.071l200.975-18.715L201.26 11.381Z"/><path fill="#263238" d="M219.978 212.388s0-.321-.107-.972c-.107-.652-.155-1.556-.272-2.781-.233-2.45-.583-6.067-1.04-10.783-.895-9.432-2.207-23.258-3.89-40.838-3.305-35.159-8.031-85.36-13.7-145.586l.312.253L.341 30.418l.291-.35 18.669 200.979-.311-.253 145.624-13.408 40.838-3.734 10.793-.972 2.771-.243.972-.068-.914.097-2.742.272-10.695 1.031-40.838 3.889-145.77 13.72h-.283v-.282C13.301 172.678 6.865 103.721 0 30.116v-.32h.32l200.961-18.669h.281v.282c5.552 60.284 10.181 110.592 13.428 145.848 1.605 17.57 2.859 31.377 3.724 40.838.418 4.696.749 8.294.973 10.696.107 1.205.184 2.119.243 2.742.058.622.048.855.048.855Z"/><path fill="#E0E0E0" d="m17.912 16.405-8.82.822 1.994 21.415 8.82-.822-1.994-21.415ZM36.644 217.514l-8.82.821 1.994 21.415 8.82-.821-1.994-21.415ZM193.929 0l-8.82.821 1.995 21.415 8.819-.82L193.929 0ZM212.777 202.502l-8.82.821 1.994 21.415 8.82-.821-1.994-21.415Z"/><path fill="#fff" d="M140.858 109.222c15.277-19 12.258-46.786-6.742-62.063-19-15.276-46.787-12.258-62.063 6.743-15.276 19-12.258 46.786 6.742 62.063 19 15.276 46.787 12.258 62.063-6.743Z"/><path fill="#D6221A" d="M106.402 126.318a44.73 44.73 0 0 1-40.845-26.706 44.727 44.727 0 1 1 85.465-22.221 44.835 44.835 0 0 1-40.43 48.733c-1.409.126-2.8.194-4.19.194Zm.068-88.306a43.443 43.443 0 1 0 .083 86.887 43.443 43.443 0 0 0-.083-86.887Z"/><path fill="#D6221A" d="M126.956 76.457a3.102 3.102 0 0 0-4.988-.252 10.739 10.739 0 0 0-1.361 3.043c-.866 2.674-1.624 5.377-2.47 8.06-.088.282-.428.496-.652.74-.184-.273-.486-.535-.525-.837a92.04 92.04 0 0 1-.525-4.599c-.282-3.024-.525-6.048-.797-9.062-.467-5.075-.972-10.16-1.449-15.226a3.128 3.128 0 0 0-.671-1.575 2.972 2.972 0 0 0-3.432-.613 2.808 2.808 0 0 0-1.517 2.917c.493 5.386.992 10.77 1.498 16.15.042.251.042.508 0 .758-.068.205-.302.467-.487.487a.79.79 0 0 1-.554-.39 2.02 2.02 0 0 1-.116-.738l-1.751-18.766a9.49 9.49 0 0 0-.136-1.177 2.185 2.185 0 0 0-1.944-1.886 2.92 2.92 0 0 0-3.534 1.907c-.154.47-.186.972-.093 1.457a5433.41 5433.41 0 0 0 1.721 18.474c.038.363.038.728 0 1.09a.684.684 0 0 1-.438.486.717.717 0 0 1-.564-.35 3.377 3.377 0 0 1-.155-.973c-.467-4.94-.904-9.869-1.391-14.808a2.836 2.836 0 0 0-3.088-2.462 2.839 2.839 0 0 0-2.56 3.006c.479 5.25.965 10.495 1.458 15.733.066.32.086.647.058.972a3.247 3.247 0 0 1-.457.788c-.224-.234-.622-.448-.651-.7-.214-1.897-.35-3.812-.526-5.718-.174-1.906-.35-4.045-.573-6.057a2.663 2.663 0 0 0-3.16-2.324 2.46 2.46 0 0 0-2.275 2.8c.259 3.954.515 7.915.768 11.882.223 2.411.418 4.861.534 7.244a36.597 36.597 0 0 0 3.19 13.972 12.991 12.991 0 0 0 9.723 7.671 18.79 18.79 0 0 0 13.729-2.761 12.638 12.638 0 0 0 5.834-7.516c1.604-6.116 3.082-12.261 4.541-18.406a3.551 3.551 0 0 0-.214-2.44Z"/><path fill="#263238" d="m63.823 192.417.126 1.429-8.371.778-1.04-11.551 8.147-.759.136 1.43-6.495.612.321 3.539 5.834-.534.126 1.4-5.785.544.35 3.724 6.65-.612ZM70.31 184.356l.145 1.536h-.369c-1.692.156-2.654 1.294-2.48 3.209l.409 4.356-1.585.146-.817-8.751 1.527-.146.136 1.468a3.352 3.352 0 0 1 3.034-1.818ZM76.95 183.744l.146 1.526h-.36c-1.701.165-2.664 1.303-2.479 3.209l.399 4.356-1.585.146-.807-8.751 1.517-.136.136 1.468a3.337 3.337 0 0 1 3.034-1.818ZM78.409 188.1a4.572 4.572 0 0 1 2.354-4.518 4.567 4.567 0 0 1 5.073.468 4.57 4.57 0 0 1-2.459 8.094 4.386 4.386 0 0 1-1.78-.119 4.387 4.387 0 0 1-2.71-2.206 4.378 4.378 0 0 1-.478-1.719Zm7.496-.701a2.92 2.92 0 0 0-2.144-2.374 2.926 2.926 0 0 0-3.032 1.021 2.916 2.916 0 0 0 2.541 4.708 2.914 2.914 0 0 0 2.584-2.166 2.92 2.92 0 0 0 .061-1.189h-.01ZM93.966 182.159l.146 1.526h-.37c-1.692.156-2.654 1.293-2.48 3.209l.41 4.356-1.586.146-.807-8.751 1.517-.136.136 1.468a3.315 3.315 0 0 1 3.034-1.818ZM102.238 180.088l.379 4.025 5.834-.535.098 1.439-5.834.545.437 4.667-1.653.155-1.069-11.551 8.148-.758.136 1.439-6.476.574ZM110.281 185.134a4.565 4.565 0 0 1 .492-2.609 4.56 4.56 0 1 1 4.476 6.654 4.377 4.377 0 0 1-3.368-.937 4.37 4.37 0 0 1-1.6-3.108Zm7.487-.7a2.919 2.919 0 0 0-5.17-1.364 2.914 2.914 0 0 0-.287 3.183 2.91 2.91 0 0 0 3.946 1.201 2.922 2.922 0 0 0 1.449-1.83 2.93 2.93 0 0 0 .062-1.19ZM125.837 179.183l.146 1.527h-.37c-1.692.155-2.654 1.293-2.479 3.209l.408 4.356-1.585.145-.807-8.751 1.517-.136.136 1.469a3.341 3.341 0 0 1 3.034-1.819ZM137.252 182.616a4.275 4.275 0 0 1-.932 3.313 4.266 4.266 0 0 1-3.074 1.548 3.689 3.689 0 0 1-3.257-1.186l.136 1.381-1.526.146-1.138-12.242 1.585-.146.447 4.862a3.737 3.737 0 0 1 2.917-1.682 4.256 4.256 0 0 1 4.842 4.006Zm-1.604.155a2.924 2.924 0 0 0-2.136-2.374 2.923 2.923 0 0 0-3.031 1.006 2.912 2.912 0 0 0-.293 3.18 2.911 2.911 0 0 0 2.796 1.543 2.913 2.913 0 0 0 2.664-3.355ZM138.507 175.362a1.026 1.026 0 0 1 .244-.775 1.041 1.041 0 0 1 .728-.363 1.04 1.04 0 0 1 .774.207 1.015 1.015 0 0 1 .393.698 1.037 1.037 0 0 1-.237.788 1.046 1.046 0 0 1-.736.369 1.029 1.029 0 0 1-.783-.21 1.014 1.014 0 0 1-.383-.714Zm.525 2.684 1.585-.146.816 8.751-1.585.146-.816-8.751ZM151.555 173.349l1.138 12.242-1.517.136-.126-1.381a3.705 3.705 0 0 1-1.268 1.258 3.708 3.708 0 0 1-1.708.522 4.479 4.479 0 0 1-4.881-4.045 4.494 4.494 0 0 1 1.012-3.278 4.48 4.48 0 0 1 3.033-1.603 3.711 3.711 0 0 1 3.18 1.118l-.448-4.862 1.585-.107Zm-.836 8.012a2.923 2.923 0 0 0-.72-1.503 2.922 2.922 0 0 0-3.092-.804 2.916 2.916 0 1 0 3.812 2.307ZM162.795 172.309l1.177 12.232-1.517.146-.127-1.391a3.714 3.714 0 0 1-2.985 1.78 4.48 4.48 0 0 1-4.82-4.055 4.483 4.483 0 0 1 3.994-4.871 3.722 3.722 0 0 1 3.179 1.118l-.447-4.813 1.546-.146Zm-.826 8.012a2.919 2.919 0 0 0-5.17-1.364 2.914 2.914 0 0 0-.287 3.183 2.91 2.91 0 0 0 3.946 1.201c.355-.189.666-.449.915-.764a2.902 2.902 0 0 0 .596-2.256ZM174.444 179.689l-7.088.661a2.913 2.913 0 0 0 3.403 2.256 3.268 3.268 0 0 0 2.43-1.284l.973.973a4.78 4.78 0 0 1-4.96 1.587 4.787 4.787 0 0 1-3.47-3.882 4.28 4.28 0 0 1 .933-3.294 4.287 4.287 0 0 1 3.044-1.568 4.242 4.242 0 0 1 3.273 1c.445.385.806.86 1.058 1.392a4.25 4.25 0 0 1 .404 1.702c.013.152.013.305 0 .457Zm-7.195-.476 5.61-.526a2.839 2.839 0 0 0-5.61.526ZM184.859 177.521l.467 5.027-1.585.155-.448-4.861c-.165-1.712-1.098-2.48-2.596-2.334a2.604 2.604 0 0 0-2.499 3.16l.418 4.502-1.584.146-.817-8.751 1.517-.146.126 1.322a3.752 3.752 0 0 1 3.024-1.692c2.12-.184 3.734.905 3.977 3.472ZM94.16 163.83l-6.505.603.778 8.352-6.622.623-.778-8.353-20.127 1.877-.447-4.735 15.917-25.368 7.302-.681-14.993 24.231 12.028-1.128-.69-7.4 6.407-.602.69 7.409 6.515-.603.525 5.775ZM96.113 153.524c-1.118-12.077 4.861-19.525 13.612-20.332 8.751-.807 16.024 5.397 17.152 17.502 1.128 12.106-4.862 19.525-13.612 20.341-8.751.817-16.024-5.464-17.152-17.511Zm23.851-2.217c-.827-8.877-4.677-12.64-9.723-12.183-5.047.457-8.08 4.861-7.254 13.768.827 8.906 4.677 12.64 9.665 12.183 4.988-.457 8.138-4.891 7.312-13.768ZM157.731 155.206c.574 6.203-3.598 11.998-13.476 12.912-5.193.486-10.54-.603-14.206-2.965l2.45-5.581a17.238 17.238 0 0 0 11.104 2.625c4.862-.457 7.575-2.917 7.254-6.291-.321-3.374-2.917-5.241-8.489-4.726l-3.364.312-.437-4.668 7.428-10.695-16.704 1.556-.535-5.727 25.057-2.334.427 4.57-7.943 11.444c6.981.234 10.919 4.055 11.434 9.568Z"/></svg>