<svg width="44" height="44" viewBox="0 0 44 44" fill="none" xmlns="http://www.w3.org/2000/svg">
<rect width="44" height="44" rx="6" fill="white"/>
<path d="M29 23V33H13V23" stroke="black" stroke-width="2" stroke-linecap="round" stroke-linejoin="round"/>
<path d="M31 18H11V23H31V18Z" stroke="black" stroke-width="2" stroke-linecap="round" stroke-linejoin="round"/>
<path d="M21 33V18" stroke="black" stroke-width="2" stroke-linecap="round" stroke-linejoin="round"/>
<path d="M21 18H16.5C15.837 18 15.2011 17.7366 14.7322 17.2678C14.2634 16.7989 14 16.163 14 15.5C14 14.837 14.2634 14.2011 14.7322 13.7322C15.2011 13.2634 15.837 13 16.5 13C20 13 21 18 21 18Z" stroke="black" stroke-width="2" stroke-linecap="round" stroke-linejoin="round"/>
<path d="M21 18H25.5C26.163 18 26.7989 17.7366 27.2678 17.2678C27.7366 16.7989 28 16.163 28 15.5C28 14.837 27.7366 14.2011 27.2678 13.7322C26.7989 13.2634 26.163 13 25.5 13C22 13 21 18 21 18Z" stroke="black" stroke-width="2" stroke-linecap="round" stroke-linejoin="round"/>
</svg>
