<svg xmlns="http://www.w3.org/2000/svg" width="346" height="325" fill="none"><path fill="#D6221A" d="M215.145 78.813C191.666 43.7 182.449 11.946 131.94 2.445c-34.1-6.483-75.791 1.163-96.508 26.364C-2.024 74.453-6.162 188.703 74.504 207.138c39.436 9.013 73.269-1.581 113.184 14.483 39.916 16.064 74.734 28.292 111.782-2.229 23.736-19.536 36.035-55.944 13.932-80.808-26.737-29.97-71.874-20.326-98.257-59.771Z"/><path fill="#fff" d="M215.145 78.813C191.666 43.7 182.449 11.946 131.94 2.445c-34.1-6.483-75.791 1.163-96.508 26.364C-2.024 74.453-6.162 188.703 74.504 207.138c39.436 9.013 73.269-1.581 113.184 14.483 39.916 16.064 74.734 28.292 111.782-2.229 23.736-19.536 36.035-55.944 13.932-80.808-26.737-29.97-71.874-20.326-98.257-59.771Z" opacity=".9"/><path fill="#F5F5F5" d="M173.001 324.673c95.089 0 172.174-4.5 172.174-10.052s-77.085-10.052-172.174-10.052c-95.09 0-172.175 4.5-172.175 10.052s77.085 10.052 172.175 10.052Z"/><path fill="#D6221A" d="M27.829 301.505V300.2h-7.992a.673.673 0 0 0-.675.675.673.673 0 0 0 .675.675l7.992-.045ZM27.829 307.304v-1.35h-7.992a.673.673 0 0 0-.675.675.673.673 0 0 0 .675.675h7.992Z"/><path fill="#263238" d="M24.969 296.861a1.11 1.11 0 0 0-.817.318 1.11 1.11 0 0 0-.337.81v11.73a1.115 1.115 0 0 0 .71 1.061c.142.055.293.081.444.076a1.115 1.115 0 0 0 1.036-.697 1.12 1.12 0 0 0 .083-.431v-11.739a1.12 1.12 0 0 0-1.119-1.128Z"/><path fill="#263238" d="M28.15 298.504h-3.18v10.7h3.18a5.328 5.328 0 0 0 5.328-5.328 5.324 5.324 0 0 0-3.279-4.962 5.32 5.32 0 0 0-2.05-.41Z"/><path fill="#263238" d="M53.226 311.176a57.196 57.196 0 0 1-6.856-.542l-3.907-.471c-.621 0-1.252.071-1.891.142-.888.089-1.82.24-2.709.373-1.7.326-3.428.487-5.159.48a2.555 2.555 0 0 1-1.057-.204 1.141 1.141 0 0 1-.696-1.048 1.135 1.135 0 0 1 .696-1.048 2.67 2.67 0 0 1 .986-.24 29.01 29.01 0 0 1 5.896.293l3.996.48c1.617-.071 3.18 0 4.698 0a55.29 55.29 0 0 0 6.038-.071c1.776-.142 3.046-.746 3.117-1.013-.382-.461-1.367-.603-3.383-.888-1.492-.186-3.392-.239-5.408-.293-1.58-.044-3.224-.088-4.902-.195-3.356-.231-7.672-.764-11.34-2.904a.388.388 0 0 1-.12-.52.393.393 0 0 1 .511-.155c3.552 2.069 7.735 2.584 10.994 2.806 1.67.107 3.303.151 4.884.196 2.024.053 3.951.106 5.479.302a19.18 19.18 0 0 1 2.62.426l-.099-.133c-.292-.382-.594-.764-.887-1.181a5.697 5.697 0 0 1-.888-1.776 2.443 2.443 0 0 1 .435-2.105 3.137 3.137 0 0 1 2.104-.888c1.854-.117 3.716 0 5.541.347a.379.379 0 0 1 .253.152.383.383 0 0 1 .071.287.392.392 0 0 1-.152.253.385.385 0 0 1-.287.071 21.583 21.583 0 0 0-5.328-.337 2.468 2.468 0 0 0-1.59.621 1.661 1.661 0 0 0-.275 1.439c.16.556.412 1.082.746 1.554.249.382.533.755.817 1.119.284.364.364.47.533.71l.088.125c.529.556.824 1.293.826 2.06-.24 1.713-2.664 1.776-3.818 1.776h-.577Zm-3.659-.959a38.19 38.19 0 0 0 4.156.177c.995 0 2.966-.053 3.117-1.11a.824.824 0 0 0 0-.355c-.657.693-2.407 1.066-3.552 1.163-1.146.098-2.486.125-3.72.125Zm-15.575-.888c-.456 0-.909.017-1.359.053-.239.01-.474.064-.693.16a.363.363 0 0 0 0 .701c.237.095.491.141.746.133 1.681.004 3.358-.154 5.009-.47l1.136-.178-.47-.053a37.63 37.63 0 0 0-4.334-.337l-.035-.009Z"/><path fill="#000" d="M146.457 96.848H66.724l-8.88 8.88v197.793l8.88 8.88h79.733l8.88-8.88V105.728l-8.88-8.88Z"/><path fill="#D6221A" d="m43.493 114.075-1.794 2.451-4.564-6.518 3.419 12.77 1.802-2.442 4.556 6.518-3.42-12.779ZM111.781 71.274l-2.7 1.385L107.9 64.8l-2.629 12.956 2.7-1.385 1.181 7.867 2.629-12.964ZM134.504 74.826l-4.102-.96 5.807-9.386-14.421 11.367 4.103.95-5.817 9.386 14.43-11.357Z"/><path fill="#263238" d="m57.844 303.521 8.88 8.88h35.387l-8.88-8.88H57.844ZM57.844 105.737l8.88-8.88h35.387l-8.88 8.88H57.844Z" opacity=".7"/><path fill="#263238" d="M181.88 96.848h-79.77c-3.472 3.472-5.407 5.417-8.88 8.88v197.793c3.472 3.463 5.408 5.408 8.88 8.88h79.77l8.88-8.88V105.728l-8.88-8.88Z"/><path fill="#D6221A" d="m103.238 308.254-5.861-5.87v-195.51l5.861-5.87h77.478l5.861 5.87v195.51l-5.861 5.87h-77.478Z" opacity=".6"/><path fill="#263238" d="M186.576 111.527h-85.053v17.129h85.053v-17.129Z"/><path fill="#D6221A" d="M181.773 116.029a.757.757 0 0 1 .746-.746.746.746 0 1 1 0 1.492.761.761 0 0 1-.525-.221.761.761 0 0 1-.221-.525Z"/><path fill="#fff" d="M178.203 116.029a.75.75 0 0 1 .126-.416.753.753 0 0 1 .769-.315.747.747 0 1 1-.895.731Z"/><path fill="#D6221A" d="M174.625 116.029a.747.747 0 0 1 1.273-.528.75.75 0 0 1 .162.813.744.744 0 0 1-.689.461.757.757 0 0 1-.746-.746ZM186.576 118.426h-85.053v3.33h85.053v-3.33Z"/><path fill="#000" d="M97.376 128.665h4.147v-17.129h-4.147v17.129Z"/><path fill="#263238" d="M186.576 130.317h-85.053v17.129h85.053v-17.129Z"/><path fill="#D6221A" d="M182.519 135.556a.746.746 0 1 0 0-1.492.746.746 0 0 0 0 1.492Z"/><path fill="#fff" d="M178.939 135.556a.746.746 0 1 0 0-1.492.746.746 0 0 0 0 1.492ZM175.371 135.556a.746.746 0 1 0 0-1.492.746.746 0 0 0 0 1.492Z"/><path fill="#D6221A" d="M186.576 137.216h-85.053v3.33h85.053v-3.33Z"/><path fill="#000" d="M97.376 147.446h4.147v-17.129h-4.147v17.129Z"/><path fill="#263238" d="M186.576 149.098h-85.053v17.129h85.053v-17.129Z"/><path fill="#D6221A" d="M182.519 154.346a.746.746 0 1 0 0-1.492.746.746 0 0 0 0 1.492ZM178.939 154.346a.746.746 0 1 0 0-1.492.746.746 0 0 0 0 1.492ZM175.371 154.346a.746.746 0 1 0 0-1.492.746.746 0 0 0 0 1.492ZM186.576 155.998h-85.053v3.33h85.053v-3.33Z"/><path fill="#000" d="M97.376 166.236h4.147v-17.129h-4.147v17.129Z"/><path fill="#263238" d="M186.576 167.888h-85.053v17.13h85.053v-17.13Z"/><path fill="#fff" d="M182.519 173.127a.746.746 0 1 0 0-1.492.746.746 0 0 0 0 1.492ZM178.939 173.127a.746.746 0 1 0 0-1.492.746.746 0 0 0 0 1.492Z"/><path fill="#D6221A" d="M175.371 173.127a.746.746 0 1 0 0-1.492.746.746 0 0 0 0 1.492ZM186.576 174.788h-85.053v3.33h85.053v-3.33Z"/><path fill="#000" d="M97.376 185.018h4.147v-17.13h-4.147v17.13Z"/><path fill="#263238" d="M186.576 186.669h-85.053v17.13h85.053v-17.13Z"/><path fill="#fff" d="M181.773 191.171a.761.761 0 0 1 .221-.525.761.761 0 0 1 .525-.221.747.747 0 0 1 0 1.492.752.752 0 0 1-.746-.746ZM178.203 191.171a.747.747 0 0 1 1.277-.524.747.747 0 1 1-1.277.524ZM174.625 191.171a.747.747 0 1 1 .746.746.75.75 0 0 1-.746-.746Z"/><path fill="#D6221A" d="M186.576 193.569h-85.053v3.33h85.053v-3.33Z"/><path fill="#000" d="M97.376 203.808h4.147v-17.13h-4.147v17.13Z"/><path fill="#263238" d="M186.576 205.459h-85.053v17.13h85.053v-17.13Z"/><path fill="#D6221A" d="M181.773 209.953a.747.747 0 0 1 .746-.737.746.746 0 0 1 0 1.482.746.746 0 0 1-.746-.745Z"/><path fill="#fff" d="M178.203 209.953a.744.744 0 0 1 .895-.731.743.743 0 0 1 .538 1.022.748.748 0 0 1-1.379-.007.728.728 0 0 1-.054-.284Z"/><path fill="#D6221A" d="M174.625 209.953a.747.747 0 0 1 1.478-.146.748.748 0 0 1-1.26.673.75.75 0 0 1-.218-.527ZM186.576 212.359h-85.053v3.33h85.053v-3.33Z"/><path fill="#000" d="M97.376 222.58h4.147v-17.13h-4.147v17.13Z"/><path fill="#263238" d="M186.576 224.24h-85.053v17.13h85.053v-17.13Z"/><path fill="#fff" d="M182.519 229.489a.746.746 0 1 0 0-1.492.746.746 0 0 0 0 1.492ZM178.939 229.489a.746.746 0 1 0 0-1.492.746.746 0 0 0 0 1.492Z"/><path fill="#D6221A" d="M175.371 229.489a.746.746 0 1 0 0-1.492.746.746 0 0 0 0 1.492ZM186.576 231.14h-85.053v3.33h85.053v-3.33Z"/><path fill="#000" d="M97.376 241.37h4.147v-17.13h-4.147v17.13Z"/><path fill="#263238" d="M186.576 243.031h-85.053v17.129h85.053v-17.129Z"/><path fill="#fff" d="M182.519 248.27a.746.746 0 1 0 0-1.492.746.746 0 0 0 0 1.492Z"/><path fill="#D6221A" d="M178.939 248.27a.746.746 0 1 0 0-1.492.746.746 0 0 0 0 1.492Z"/><path fill="#fff" d="M175.371 248.27a.746.746 0 1 0 0-1.492.746.746 0 0 0 0 1.492Z"/><path fill="#D6221A" d="M186.576 249.93h-85.053v3.33h85.053v-3.33Z"/><path fill="#000" d="M97.376 260.151h4.147v-17.129h-4.147v17.129Z"/><path fill="#263238" d="M186.576 261.812h-85.053v17.129h85.053v-17.129Z"/><path fill="#D6221A" d="M182.519 267.06a.746.746 0 1 0 0-1.492.746.746 0 0 0 0 1.492Z"/><path fill="#fff" d="M178.939 267.06a.746.746 0 1 0 0-1.492.746.746 0 0 0 0 1.492Z"/><path fill="#D6221A" d="M175.371 267.06a.746.746 0 1 0 0-1.492.746.746 0 0 0 0 1.492ZM186.576 268.712h-85.053v3.33h85.053v-3.33Z"/><path fill="#000" d="M97.376 278.941h4.147v-17.129h-4.147v17.129Z"/><path fill="#263238" d="M186.576 280.602h-85.053v17.129h85.053v-17.129Z"/><path fill="#D6221A" d="M182.519 285.841a.746.746 0 1 0 0-1.492.746.746 0 0 0 0 1.492ZM178.939 285.841a.746.746 0 1 0 0-1.492.746.746 0 0 0 0 1.492Z"/><path fill="#fff" d="M175.371 285.841a.746.746 0 1 0 0-1.492.746.746 0 0 0 0 1.492Z"/><path fill="#D6221A" d="M186.576 287.502h-85.053v3.33h85.053v-3.33Z"/><path fill="#000" d="M97.376 297.723h4.147v-17.13h-4.147v17.13Z"/><path fill="#D6221A" d="m103.238 308.254-5.861-5.87v-195.51l5.861-5.87h45.892l5.86 5.87v195.51l-5.86 5.87h-45.892Z" opacity=".7"/><path fill="#D6221A" d="m149.129 308.254 5.861-5.87v-195.51l-5.861-5.87h2.3l5.035 5.035v197.18l-5.035 5.035h-2.3Z"/><path fill="#FFB573" d="M269.064 104.582a138.255 138.255 0 0 1 5.221 11.465 103.412 103.412 0 0 1 2.203 5.994 49.844 49.844 0 0 1 1.776 6.5l.08.444.044.239.044.329c0 .213.063.444.08.657v.586a15.21 15.21 0 0 1-.097 2.069 31.374 31.374 0 0 1-.649 3.508 59.068 59.068 0 0 1-1.953 6.216 87.915 87.915 0 0 1-5.275 11.499 2.434 2.434 0 0 1-4.303-.013 2.436 2.436 0 0 1-.208-1.709v-.054c.888-3.924 1.874-7.903 2.664-11.774.408-1.936.737-3.872.968-5.701.107-.858.167-1.72.177-2.584a7.487 7.487 0 0 0-.062-1.004V130.965l-.053-.187-.089-.31c-.479-1.625-1.163-3.437-1.891-5.24a142.791 142.791 0 0 0-2.353-5.434 720.726 720.726 0 0 0-5.044-10.887v-.053a4.888 4.888 0 0 1 8.773-4.307l-.053.035Z"/><path fill="#FFB573" d="m264.756 153.582 3.028-4.44 3.011-.888c1.385 1.688.985 4.289.577 5.781l-.888 5.559a2.376 2.376 0 0 1-2.042 1.989l-1.981.284a2.569 2.569 0 0 1-1.975-.538 2.574 2.574 0 0 1-.964-1.806l-.08-.959a7.65 7.65 0 0 1 1.314-4.982Z"/><path fill="#263238" d="M259.811 165.579a4.438 4.438 0 0 0 1.101-3.019l14.936-6.935.116.106a4.484 4.484 0 0 0 6.313-.541c.329-.394.588-.842.764-1.324l-3.241.444a1.513 1.513 0 0 1-1.155-.32 1.544 1.544 0 0 1-.392-.47 1.544 1.544 0 0 1-.176-.586l-.098-1.119a1.515 1.515 0 0 1 .377-1.141 1.52 1.52 0 0 1 1.089-.51l3.276-.125a4.715 4.715 0 0 0-.985-1.163 4.446 4.446 0 0 0-4.856-.66 4.445 4.445 0 0 0-2.506 4.212l-14.945 6.935-.106-.106a4.487 4.487 0 0 0-6.314.541 4.746 4.746 0 0 0-.773 1.315l3.25-.436a1.536 1.536 0 0 1 1.155.321 1.53 1.53 0 0 1 .568 1.056l.089 1.119a1.522 1.522 0 0 1-.862 1.506 1.514 1.514 0 0 1-.594.145l-3.277.116c.255.447.589.844.986 1.172a4.437 4.437 0 0 0 6.26-.533Z"/><path fill="#fff" d="M260.566 160.784a.883.883 0 0 1-.036-.692.882.882 0 0 1 .471-.507l11.953-5.541a.883.883 0 0 1 .691-.036.877.877 0 0 1 .508.471.902.902 0 0 1-.151.985.89.89 0 0 1-.285.205l-11.917 5.523a.877.877 0 0 1-.706.065.882.882 0 0 1-.528-.473Z" opacity=".1"/><path fill="#263238" d="M258.54 95.32c5.328 1.173 7.992 3.908 13.143 12.521-2.931 4.343-10.097 8.099-10.097 8.099l-3.108-3.552c-3.889-7.219.062-17.05.062-17.05"/><path fill="#000" d="M256.774 105.151a15.531 15.531 0 0 0 1.705 7.219l3.099 3.552s1.128-.595 2.664-1.58c-2.522-5.062-4.502-7.593-7.468-9.191Z" opacity=".2"/><path fill="#FFB573" d="m233.873 103.579-.098.559-.089.427-.186.79a24.021 24.021 0 0 1-.471 1.483c-.344.964-.75 1.904-1.217 2.815a21.545 21.545 0 0 1-3.552 5.017 20.603 20.603 0 0 1-4.884 3.792 22.46 22.46 0 0 1-5.603 2.211l-.311.08a4.306 4.306 0 0 1-5.221-3.126 4.079 4.079 0 0 1-.107-.639 18.43 18.43 0 0 1 .311-5.328 33.607 33.607 0 0 1 1.305-4.609 53.081 53.081 0 0 1 3.846-8.09 85.788 85.788 0 0 1 4.724-7.246c1.714-2.308 3.436-4.528 5.399-6.695a2.423 2.423 0 0 1 3.898 2.841v.063c-1.341 2.3-2.708 4.706-3.943 7.104-1.234 2.397-2.433 4.813-3.481 7.246a53.728 53.728 0 0 0-2.61 7.264 16.193 16.193 0 0 0-.657 6.411l-5.648-3.685a16.422 16.422 0 0 0 3.277-1.723 14.16 14.16 0 0 0 2.61-2.371 15.247 15.247 0 0 0 1.945-2.966 12.87 12.87 0 0 0 .719-1.652c.107-.275.187-.559.276-.825l.115-.391.044-.169c0-.142 0 0 0 0a4.898 4.898 0 0 1 1.912-3.268 4.89 4.89 0 0 1 3.672-.92 4.881 4.881 0 0 1 4.069 5.671l-.044-.071Z"/><path fill="#263238" d="M236.128 102.913c.551-3.339-1.776-7.344-1.776-7.344-5.328.258-10.407 1.554-15.309 11.589 1.181 5.594 8.596 9.537 8.596 9.537l5.23-6.785s2.7-3.649 3.259-6.997Z"/><path fill="#FFB573" d="m229.148 82.533 1.474-1.598a5.871 5.871 0 0 1 2.318-1.527l1.403-.507a2.732 2.732 0 0 1 3.135.989c.229.32.386.685.461 1.072l.346 1.847a2.724 2.724 0 0 1-1.909 3.126l-2.158.63a6.126 6.126 0 0 1-7.583 2.353 9.347 9.347 0 0 1 2.513-6.385ZM267.865 298.504h-7.388s.355 5.408.328 8.614l6.518.781c-.559-3.552.542-9.395.542-9.395Z"/><path fill="#D6221A" d="M235.311 146.514s13.257 56.184 17.395 79.032c4.343 23.976 7.3 72.079 7.291 73.837 2.38-.471 6.216-.577 8.125 0 0 0 9.129-56.566.888-77.567-3.135-39.818.888-62.346-7.104-75.293l-26.595-.009Z"/><path fill="#000" d="M252.192 163.936c-2.166-8.88-9.519-7.992-14.305-6.375 2.983 12.831 7.93 34.436 11.544 51.575 5.132-12.308 5.692-33.256 2.761-45.2Z" opacity=".2"/><path fill="#FFB573" d="M220.811 297.536c-.666 8.587-7.637 17.822-7.637 17.822l10.754-2.753 4.528-6.731a31.732 31.732 0 0 1 1.004-7.592l-8.649-.746Z"/><path fill="#D6221A" d="M224.505 146.514s1.873 59.78 1.385 77.256c-.684 24.224-5.763 75.622-5.763 75.622 3.854-.4 7.184-.515 9.315 0 0 0 15.984-41.612 14.11-75.391 3.996-31.302 17.458-60.056 9.138-77.469l-28.185-.018Z"/><path fill="#FFB573" d="M252.981 79.088c-1.048 4.529-2.229 12.832.835 15.86a24.271 24.271 0 0 1-11.242 9.226c-5.932-3.801-2.842-9.226-2.842-9.226 5.097-1.208 5.097-4.955 4.343-8.48l8.906-7.38Z"/><path fill="#D6221A" d="M253.87 90.25s-10.301-1.403-15.362 2.806a4.546 4.546 0 0 1-1.235 2.797 50.617 50.617 0 0 0 16.81.826c1.341-2.3-.213-6.429-.213-6.429Z"/><path fill="#263238" d="M225.587 105.55c.551 14.208-2.575 35.813-1.065 40.964 15.238 1.545 27.146 1.287 37.393 0 1.776-5.621-2.451-22.316 2.407-42.18a7.303 7.303 0 0 0-1.082-6.011 7.308 7.308 0 0 0-5.268-3.091 80.907 80.907 0 0 0-4.155-.32 99.285 99.285 0 0 0-14.084 0c-1.776.16-3.659.4-5.399.657-4.955.72-8.942 5.009-8.747 9.981ZM236.261 71.433c-.062.622-.435 1.102-.835 1.075-.399-.027-.675-.542-.613-1.163.063-.622.427-1.093.826-1.066.4.027.675.542.622 1.154Z"/><path fill="#263238" d="m235.816 70.323-1.429-.523s.639 1.207 1.429.523ZM235.47 67.384a.328.328 0 0 1-.222-.16.365.365 0 0 1 .133-.497 3.555 3.555 0 0 1 3.277-.39.36.36 0 0 1 .18.206.35.35 0 0 1-.02.273.367.367 0 0 1-.48.186 2.824 2.824 0 0 0-2.593.338.382.382 0 0 1-.275.044Z"/><path fill="#ED893E" d="M236.136 73.138a17.269 17.269 0 0 1-2.548 3.801 2.558 2.558 0 0 0 2.14.55l.408-4.35Z"/><path fill="#FFB573" d="M257.121 70.208c-1.172 7.548-1.51 10.771-5.666 14.43-6.216 5.506-15.158 2.717-16.241-4.964-.968-6.909 1.11-18.097 8.738-20.664a9.97 9.97 0 0 1 13.169 11.198Z"/><path fill="#263238" d="M238.285 61.665c-1.518 2.993 1.474 8.543 3.481 10.816-3.552 3.845-7.104 10.479-2.424 14.457 4.316 3.623 27.457 3.552 22.955-4.21 3.969-4.883-2.664-5.576.515-15.095 2.3-6.9-2.025-8.818-5.905-8.16-4.423-5.56-15.469-4.032-18.622 2.192Z"/><path fill="#E0E0E0" d="M239.982 64.8s7.158 5.86 15.398 6.82c4.44.515 6.66.453 6.865-.222.204-.675.586-2.948.586-2.948l-22.849-3.65Z"/><path fill="#D6221A" d="M233.907 63.264c2.167 1.714 18.542 6.393 29.58 5.328.106-.657-.249-.737-.249-.737s2.54-8.516-3.294-11.713c-2.753-4.502-11.065-4.227-14.741-2.957l-.524.657s-7.202 1.678-7.308 7.646c-2.842.364-5.852-.107-3.464 1.776Z"/><path fill="#000" d="m244.68 53.878.524-.657a15.097 15.097 0 0 1 10.656 3.552c-2.762-1.661-7.38-3.215-11.18-2.895Z" opacity=".2"/><path fill="#FFB573" d="M240.684 70.084c-1.572-.213-3.064 2.078-3.605 3.712-.595 1.829.053 3.551 1.687 2.93a5.914 5.914 0 0 0 3.037-2.788c.861-1.643.461-3.65-1.119-3.854Z"/><path fill="#263238" d="M263.053 302.154c4.537-.8 4.44 1.545 4.742 4.058a7.232 7.232 0 0 1-.746 4.44c-1.599 2.815-.231 6.971-5.328 6.971-5.098 0-5.55-1.181-4.183-3.695a28.592 28.592 0 0 0 2.664-8.071c.346-1.457.835-3.348 2.851-3.703Z"/><path fill="#263238" d="M267.502 307.526c0 3.046.053 10.097.053 10.097h-.808s-.693-7.504-1.128-9.529l1.883-.568ZM229.033 303.157c.339.808.482 1.684.417 2.557-.187 3.215-.888 11.758-.888 11.758h-.737a74.648 74.648 0 0 0-.071-7.859c-.275-2.123-1.323 1.625-2.797 3.738-1.474 2.114-4.28 4.05-9.076 4.201-5.612.177-7.876-.063-6.216-1.466 1.661-1.403 5.444-2.326 5.444-2.326a15.16 15.16 0 0 0 7.05-6.349 13.46 13.46 0 0 1 5.87-5.222 1.442 1.442 0 0 1 1.004.968Z"/></svg>