<svg xmlns="http://www.w3.org/2000/svg" width="467" height="259" fill="none"><path fill="#D6221A" d="M1.173 93.48c-2.964-17.107 2.985-36.002 16.635-46.717 13.65-10.715 34.87-11.51 48.097-.274 9.3 7.906 13.651 19.972 19.191 30.849 5.54 10.877 13.933 21.887 25.992 23.767 10.405 1.619 20.867-4.07 31.307-2.703 10.194 1.33 18.726 9.666 21.662 19.514 2.936 9.849.704 20.797-4.52 29.625-5.223 8.828-13.376 15.706-22.211 20.916-28.505 16.762-66.33 16.192-94.336-1.359C14.985 149.547-1.953 115.706.75 82.738"/><path fill="#fff" d="M1.173 93.48c-2.964-17.107 2.985-36.002 16.635-46.717 13.65-10.715 34.87-11.51 48.097-.274 9.3 7.906 13.651 19.972 19.191 30.849 5.54 10.877 13.933 21.887 25.992 23.767 10.405 1.619 20.867-4.07 31.307-2.703 10.194 1.33 18.726 9.666 21.662 19.514 2.936 9.849.704 20.797-4.52 29.625-5.223 8.828-13.376 15.706-22.211 20.916-28.505 16.762-66.33 16.192-94.336-1.359C14.985 149.547-1.953 115.706.75 82.738" opacity=".7"/><path fill="#D6221A" d="M166.309 246.601c9.258-6.336 13.609-20.247 7.822-29.843-5.858-8.73-14.953-15.692-25.344-17.163-10.391-1.472-21.93 3.449-26.562 12.89-2.922 5.942-2.929 13.122-.507 19.282a30.645 30.645 0 0 0 12.806 14.721c9.567 5.787 22.556 6.435 31.785.113Z"/><path fill="#fff" d="M166.309 246.601c9.258-6.336 13.609-20.247 7.822-29.843-5.858-8.73-14.953-15.692-25.344-17.163-10.391-1.472-21.93 3.449-26.562 12.89-2.922 5.942-2.929 13.122-.507 19.282a30.645 30.645 0 0 0 12.806 14.721c9.567 5.787 22.556 6.435 31.785.113Z" opacity=".7"/><path fill="#D6221A" d="M466.917 188.288c-.57-14.819-7.912-29.511-20.204-37.804-12.292-8.294-29.406-9.427-42.071-1.718-7.892 4.801-13.616 12.446-18.382 20.359-2.612 4.337-5.336 9.117-10.032 11.011-6.103 2.471-12.813-.894-19.268-2.182a30.314 30.314 0 0 0-35.2 21.781c-5.632 23.366 10.75 40.044 28.265 50.167 19.579 11.321 44.352 11.307 65.641 3.76 13.975-4.928 26.999-13.095 36.517-24.464 9.518-11.37 15.312-26.091 14.734-40.91Z"/><path fill="#fff" d="M466.917 188.288c-.57-14.819-7.912-29.511-20.204-37.804-12.292-8.294-29.406-9.427-42.071-1.718-7.892 4.801-13.616 12.446-18.382 20.359-2.612 4.337-5.336 9.117-10.032 11.011-6.103 2.471-12.813-.894-19.268-2.182a30.314 30.314 0 0 0-35.2 21.781c-5.632 23.366 10.75 40.044 28.265 50.167 19.579 11.321 44.352 11.307 65.641 3.76 13.975-4.928 26.999-13.095 36.517-24.464 9.518-11.37 15.312-26.091 14.734-40.91Z" opacity=".7"/><path fill="#D6221A" d="M433.267 61.688c-1.809-11.827-13.214-22.458-25.119-21.317-11.116 1.612-22.021 7.152-28.244 16.502-6.224 9.349-6.808 22.704.14 31.525 4.372 5.554 11.264 8.884 18.304 9.398a32.724 32.724 0 0 0 20.086-5.533c10.032-6.547 16.642-18.734 14.833-30.575Z"/><path fill="#fff" d="M433.267 61.688c-1.809-11.827-13.214-22.458-25.119-21.317-11.116 1.612-22.021 7.152-28.244 16.502-6.224 9.349-6.808 22.704.14 31.525 4.372 5.554 11.264 8.884 18.304 9.398a32.724 32.724 0 0 0 20.086-5.533c10.032-6.547 16.642-18.734 14.833-30.575Z" opacity=".7"/><path fill="#263238" d="M295.432 64.666c1.534-.19 2.752-1.317 4.146-1.971a7.198 7.198 0 0 1 6.632.33c1.978 1.183 3.386 2.605 3.52 4.929l-2.584 2.816"/><path fill="#F4D3BD" d="m311.792 79.056-4.153 24.928c-.704 4.224-2.605 10.328-9.258 8.906-5.681-1.669-6.237-7.427-5.575-11.384.316-1.88.577-3.442.591-3.64 0 0-6.245-1.654-5.632-8.011.289-3.07 1.408-9.356 2.45-15.023a11.899 11.899 0 0 1 12.904-9.624l.613.063c6.568 1.07 9.321 7.245 8.06 13.785Z"/><path fill="#EAAE94" d="M293.396 97.775a14.853 14.853 0 0 0 8.525-1.485s-2.435 4.364-8.708 3.132l.183-1.647Z"/><path fill="#263238" d="M290.763 78.633c.126.113.985-.21 2.161-.07 1.176.14 1.999.655 2.112.563.113-.091-.056-.232-.415-.465a4.065 4.065 0 0 0-1.697-.577 3.633 3.633 0 0 0-1.732.183c-.352.148-.493.317-.429.366ZM300.408 79.71c.126.113.985-.204 2.154-.063 1.169.14 1.992.648 2.112.563.12-.084-.056-.232-.415-.464a4.281 4.281 0 0 0-1.69-.57 3.801 3.801 0 0 0-1.725.175c-.366.148-.5.31-.436.36ZM300.19 81.273a.707.707 0 0 0 .598.774.705.705 0 0 0 .789-.556.704.704 0 0 0-1.387-.218ZM291.073 80.274a.706.706 0 0 0 1.103.66.703.703 0 0 0 .284-.435.704.704 0 0 0-1.387-.225ZM296.472 86.145a6.189 6.189 0 0 0-1.556-.45c-.246-.057-.478-.127-.499-.303.008-.255.094-.5.246-.704.296-.578.605-1.183.936-1.817a34.59 34.59 0 0 0 2.176-4.787c-.106-.056-1.254 2.007-2.556 4.597l-.859 1.817a1.408 1.408 0 0 0-.232.964.651.651 0 0 0 .373.408c.134.052.273.087.415.106.51.12 1.033.177 1.556.169ZM301.584 75.451c.063.254.929.226 1.928.458 1 .232 1.782.605 1.944.401.161-.204-.05-.345-.352-.612a3.26 3.26 0 0 0-1.408-.704 3.127 3.127 0 0 0-1.549 0c-.38.169-.585.338-.563.457ZM291.27 75.606c.078.211.937.148 1.929.296.993.148 1.802.422 1.943.24.141-.184-.07-.282-.394-.494a3.752 3.752 0 0 0-2.943-.408c-.373.113-.563.267-.535.366Z"/><path fill="#F4D3BD" d="M310.778 83.702c.113-.035 4.499-.838 3.907 3.52-.591 4.358-4.815 2.816-4.808 2.71.007-.105.901-6.23.901-6.23Z"/><path fill="#EAAE94" d="M311.426 88.44s.063.063.183.14a.767.767 0 0 0 .563.092 1.884 1.884 0 0 0 1.092-1.555c.065-.371.043-.752-.064-1.113a.863.863 0 0 0-.486-.654.386.386 0 0 0-.471.147c-.078.113-.057.204-.085.204-.028 0-.084-.084 0-.26a.505.505 0 0 1 .204-.246.574.574 0 0 1 .437-.05 1.068 1.068 0 0 1 .704.775c.133.4.167.829.099 1.246a1.983 1.983 0 0 1-1.359 1.718.815.815 0 0 1-.704-.212c-.12-.12-.134-.232-.113-.232Z"/><path fill="#263238" d="M288.975 73.367a9.207 9.207 0 0 0 8.342-.978c1.683-1.148 3.069-2.908 5.069-3.295a5.17 5.17 0 0 1 3.886.95 9.99 9.99 0 0 1 2.703 3.063c-1.563 3.097-1.119 6.786-.633 10.222.011.387.152.759.401 1.056a1.408 1.408 0 0 0 1.767-.197 5.405 5.405 0 0 0 1.478-2.71 17.97 17.97 0 0 0 .704-7.04 12.209 12.209 0 0 0-2.696-6.484 11.558 11.558 0 0 0-7.744-3.9c-2.984-.226-5.964.499-8.511 2.07a8.353 8.353 0 0 0-2.985 2.815"/><path fill="#263238" d="M289.355 79.373c.408-1.746.598-3.95 1.006-5.696a10.632 10.632 0 0 0 7.843-1.95c1.154-.894 2.154-2.112 3.555-2.506 1.809-.521 3.682.43 5.322 1.352l-.063-.078a7.992 7.992 0 0 1 2.112 2.182 24.826 24.826 0 0 0-.796 10.56 1.802 1.802 0 0 0 .824 1.303c.894.542 1.563-.07 2.239-.486.493-.31 1.197-.507 1.619-.106a24.64 24.64 0 0 0 2.858-7.04 1.777 1.777 0 0 0 2.113 2.232 1.773 1.773 0 0 0 1.013-.669 3.743 3.743 0 0 1-.859-1.774 2.304 2.304 0 0 0 1.692.56 2.298 2.298 0 0 0 1.582-.82l-1.373-1.408 1.957.105a10.457 10.457 0 0 1-3.717-3.217 16.142 16.142 0 0 0-3.457-3.52c-1.408-.901-3.266-1.267-4.702-.436.098-2.288-1.542-4.407-3.619-5.372a14.841 14.841 0 0 0-7.871-.781c-1.732.366-3.52 1.408-5.78 3.034a21.178 21.178 0 0 0-2.999 2.59c-1.365 1.444-4.09 3.81-6.702 3.105l.233 2.69c1.408 1.344 4.315.161 4.315.161s-1.675 1.669-3.245 1.627l.422 2.309s2.373.415 3.415-1.408l1.063 3.457Z"/><path fill="#455A64" d="M308.975 73.107s-.204-.338-.634-.908a8.038 8.038 0 0 0-2.182-2.014 8.28 8.28 0 0 0-1.915-.704 4.132 4.132 0 0 0-2.288-.056c-1.591.479-2.753 2.112-4.456 3.119a9.808 9.808 0 0 1-5.294 1.57c-.419.002-.837-.016-1.254-.057a1.142 1.142 0 0 0-.52 0 5.34 5.34 0 0 0-.5.247c-.548.399-1.004.91-1.338 1.5a3.775 3.775 0 0 1-2.605 1.54 4.31 4.31 0 0 1-.83 0 1 1 0 0 1-.282-.048c0-.036.401 0 1.091-.106a3.74 3.74 0 0 0 2.429-1.556 4.835 4.835 0 0 1 1.408-1.605c.172-.1.351-.19.535-.267.209-.067.43-.087.648-.057.405.036.811.05 1.218.043a9.682 9.682 0 0 0 5.118-1.55 18.236 18.236 0 0 0 2.231-1.724 6.686 6.686 0 0 1 2.316-1.408 4.421 4.421 0 0 1 2.45.077 8.462 8.462 0 0 1 1.965.803 7.587 7.587 0 0 1 2.168 2.154c.16.223.301.458.422.704.078.204.113.296.099.303ZM315.812 76.915s0 .134-.12.36a3.233 3.233 0 0 1-.549.9 1.685 1.685 0 0 1-1.506.613 1.187 1.187 0 0 1-.852-.605 1.76 1.76 0 0 1-.19-1.092l.324.085a1.41 1.41 0 0 1-1.225.824 1.723 1.723 0 0 1-1.282-.479 2.681 2.681 0 0 1-.704-1.049 7.05 7.05 0 0 1-.288-2.02c-.022-.61-.1-1.215-.232-1.81.323.542.487 1.165.471 1.795.031.654.15 1.3.352 1.922.128.347.335.658.606.909a1.409 1.409 0 0 0 1.034.387 1.076 1.076 0 0 0 .93-.606l.584-1.457-.26 1.542a1.13 1.13 0 0 0 .76 1.365 1.478 1.478 0 0 0 1.295-.471c.236-.245.442-.517.613-.81.148-.204.225-.31.239-.303ZM314.221 81.675a1.865 1.865 0 0 1-1.218.316 4.172 4.172 0 0 1-2.766-1.21 7.872 7.872 0 0 1-1.655-2.52 3.852 3.852 0 0 1-.408-1.17c.25.329.461.686.626 1.064a9.716 9.716 0 0 0 1.676 2.38 4.365 4.365 0 0 0 2.541 1.21 9.29 9.29 0 0 0 1.204-.07Z"/><path fill="#455A64" d="M314.016 82.484c-.346.11-.712.137-1.07.078a5.823 5.823 0 0 1-2.457-.831 5.721 5.721 0 0 1-1.859-1.816 2.106 2.106 0 0 1-.415-.993c.227.268.434.553.619.852a6.941 6.941 0 0 0 1.831 1.661c.712.432 1.497.73 2.316.88.349.028.695.085 1.035.17ZM316.818 66.278a6.942 6.942 0 0 1-1.084-.148 7.257 7.257 0 0 0-2.57.155 7.346 7.346 0 0 0-2.351 1.063c-.542.38-.845.704-.887.64.18-.33.433-.617.739-.837a6.231 6.231 0 0 1 2.415-1.204c.88-.22 1.8-.24 2.689-.056.375.046.734.179 1.049.387Z"/><path fill="#455A64" d="M310.932 62.512a5.478 5.478 0 0 1-.901 5.766c.415-.902.729-1.846.937-2.817.1-.981.088-1.97-.036-2.95Z"/><path fill="#455A64" d="M285.645 70.382c.269.226.577.403.908.521a5.013 5.013 0 0 0 2.816-.33c.577-.19 1.204-.444 1.886-.704a12.046 12.046 0 0 0 2.063-.972c1.408-.803 2.816-1.95 4.555-2.732a7.962 7.962 0 0 1 2.703-.704 4.986 4.986 0 0 1 2.556.528c1.485.775 2.534 1.845 3.661 2.288.869.406 1.864.451 2.766.127.313-.153.597-.36.838-.612 0 0-.035.084-.148.239a2.034 2.034 0 0 1-.633.5 3.722 3.722 0 0 1-2.915 0c-1.204-.45-2.288-1.52-3.71-2.232a4.702 4.702 0 0 0-2.394-.479 7.886 7.886 0 0 0-2.583.705c-1.697.753-3.105 1.886-4.541 2.689-.67.392-1.378.718-2.112.971-.704.24-1.309.486-1.901.662a4.926 4.926 0 0 1-2.921.225 1.897 1.897 0 0 1-.704-.43 1.026 1.026 0 0 1-.19-.26Z"/><path fill="#455A64" d="M310.173 67.911a21.563 21.563 0 0 0-1.669-1.69 9.946 9.946 0 0 0-5.153-2.245 17.267 17.267 0 0 0-3.147.035c-.87.084-1.746.103-2.619.056a5.747 5.747 0 0 1-1.732-.38 1.757 1.757 0 0 1-.57-.31 8.706 8.706 0 0 0 2.316.444c.863.012 1.726-.03 2.584-.127a15.49 15.49 0 0 1 3.21-.063 9.6 9.6 0 0 1 5.273 2.408c.436.397.83.838 1.176 1.316.138.167.25.355.331.556Z"/><path fill="#263238" d="M296.973 89.299c0-.12.859-.218 1.591-.901.309-.301.576-.642.795-1.014.183-.289.317-.472.359-.444.042.029 0 .226-.141.557a3.082 3.082 0 0 1-.774 1.154c-.349.325-.78.55-1.246.648-.38.07-.577.042-.584 0Z"/><path fill="#D6221A" d="m410.253 210.274 11.531-6.533s10.511 9.525 12.764 8.526l-11.87-22.803-18.381 9.441 5.956 11.369Z"/><path fill="#fff" d="M417.124 197.208a1.052 1.052 0 0 1 .704-1.197 1.01 1.01 0 0 1 1.196.704 1.096 1.096 0 0 1-.76 1.267 1.04 1.04 0 0 1-1.154-.873M422.68 189.464l-1.817 1.056 12.053 21.486s.971.782 1.626.296l-11.862-22.838Z" opacity=".6"/><path fill="#263238" d="M421.855 204.171c.113-.057-.127-.641-.056-1.373.07-.732.387-1.274.296-1.352-.092-.077-.655.423-.704 1.31-.05.887.394 1.492.464 1.415ZM424.093 206.05c.12 0 .056-.612.331-1.232.275-.619.704-.992.655-1.098-.05-.106-.704.148-1.056.929-.352.782-.043 1.458.07 1.401ZM427.656 205.924c0-.12-.662 0-1.127.619-.464.62-.429 1.253-.309 1.253.119 0 .274-.493.661-.985.388-.493.824-.803.775-.887ZM419.067 205.374c.078-.105-.345-.535-.626-1.182-.282-.648-.345-1.246-.472-1.253-.127-.007-.275.668.07 1.408.345.739.965 1.126 1.028 1.027Z"/><path fill="#000" d="m412.533 208.979 2.056-1.162-5.928-11.151-1.893.964 5.765 11.349Z" opacity=".3"/><path fill="#263238" d="M416.715 206.649c.049 0-.113-.5-.598-1.141a6.103 6.103 0 0 0-.993-1.007 5.954 5.954 0 0 0-.704-.471 1.423 1.423 0 0 0-.444-.204.545.545 0 0 0-.619.253.705.705 0 0 0 0 .62c.071.148.166.283.282.401.186.212.391.408.612.584.372.3.791.538 1.239.704.395.195.84.261 1.274.19 0-.07-.471-.148-1.154-.471a5.484 5.484 0 0 1-1.106-.704 5.119 5.119 0 0 1-.542-.55c-.19-.204-.295-.408-.225-.528.071-.119.049-.056.141-.042.116.036.227.085.331.148.229.13.45.273.662.429.356.264.688.559.992.88.535.528.789.972.852.909Z"/><path fill="#263238" d="M416.8 206.416a2.022 2.022 0 0 0-1.26.275 4.289 4.289 0 0 0-1.169.802c-.202.2-.384.419-.542.655a1.067 1.067 0 0 0-.197 1.028.594.594 0 0 0 .563.31 1.51 1.51 0 0 0 .479-.099c.367-.126.707-.323.998-.58a2.96 2.96 0 0 0 .698-.919 1.662 1.662 0 0 0 .212-1.275c-.078 0-.092.486-.479 1.127-.227.365-.53.677-.887.915-.206.14-.431.249-.669.324-.26.091-.507.106-.528 0a.717.717 0 0 1 .169-.599c.138-.213.296-.414.472-.598.3-.319.643-.594 1.021-.817.654-.38 1.133-.478 1.119-.549Z"/><path fill="#D6221A" d="m377.432 228.233 13.073-2.147s6.575 12.574 9.025 12.412l-3.245-25.499-20.508 2.506 1.655 12.728Z"/><path fill="#fff" d="M388.373 218.349a1.034 1.034 0 0 1 1.091-.873 1.006 1.006 0 0 1 .873 1.077 1.097 1.097 0 0 1-1.161.915 1.045 1.045 0 0 1-.642-.453c-.147-.228-.2-.505-.147-.771M396.257 212.999l-2.056.331 3.879 24.358s.641 1.07 1.408.845l-3.231-25.534Z" opacity=".6"/><path fill="#263238" d="M390.401 226.523c.127 0 .106-.655.422-1.317.317-.662.81-1.056.747-1.169-.064-.112-.761.169-1.141.986s-.134 1.535-.028 1.5ZM391.852 229.05c.126 0 .267-.549.704-1.042.436-.493 1.013-.704.992-.803-.021-.098-.704-.112-1.309.507-.606.62-.507 1.352-.387 1.338ZM395.244 230.162c0-.112-.633-.211-1.274.197-.64.409-.838 1.021-.704 1.063.134.043.43-.366.958-.704.528-.338 1.028-.429 1.02-.556ZM387.366 226.677c.113-.063-.133-.612-.176-1.323-.042-.711.113-1.288 0-1.338-.112-.049-.492.528-.429 1.366.063.838.528 1.366.605 1.295Z"/><path fill="#000" d="m379.994 227.804 2.331-.373-1.711-12.517-2.112.246 1.492 12.644Z" opacity=".3"/><path fill="#263238" d="M384.727 227.065a2.509 2.509 0 0 0-.169-1.282 6.1 6.1 0 0 0-.585-1.281 6.599 6.599 0 0 0-.478-.704 1.669 1.669 0 0 0-.352-.345.541.541 0 0 0-.704 0 .7.7 0 0 0-.219.584c.022.162.065.321.127.472.102.264.227.519.373.76.253.403.564.766.923 1.078.308.314.702.529 1.133.619 0-.063-.387-.303-.922-.845a5.036 5.036 0 0 1-1.106-1.76c-.105-.26-.133-.493 0-.577.134-.084.057-.035.148 0 .095.076.18.164.254.26.17.199.327.409.471.627.245.369.455.761.627 1.169.131.419.291.828.479 1.225Z"/><path fill="#263238" d="M384.881 226.875a2.103 2.103 0 0 0-1.274-.176 4.215 4.215 0 0 0-1.408.352c-.247.119-.482.26-.704.422a1.065 1.065 0 0 0-.542.894.606.606 0 0 0 .423.493c.158.045.321.069.485.07.292.006.584-.03.866-.105a3.009 3.009 0 0 0 1.246-.704c.599-.585.704-1.12.634-1.127-.071-.007-.247.43-.838.894a2.911 2.911 0 0 1-1.147.556c-.231.056-.468.08-.704.071-.275 0-.507-.078-.493-.183.014-.106.155-.366.359-.5a3.78 3.78 0 0 1 .655-.401 4.837 4.837 0 0 1 1.239-.416c.711-.14 1.196-.07 1.203-.14ZM323.738 157.7c-.408.161 6.188 6.512 7.251 10.813 1.274 5.188 4.752 11.123 4.752 11.123l24.373 23.345 45.9-6.716 7.744 14.143-55.334 15.002a10.064 10.064 0 0 1-8.638-1.633l-35.714-26.541-20.472-25.344 30.138-14.192Z"/><path fill="#263238" d="m290.207 173.821 2.957 10.87c8.293 17.135 24.091 49.583 28.272 51.673 5.815 2.908 59.298-7.744 59.298-7.744l-1.189-14.741-44.88 3.879-30.019-52.737-14.439 8.8Z"/><path fill="#455A64" d="M410.218 211.372s-.098.043-.302.106l-.901.275-3.471 1.013-12.799 3.661-19.008 5.393-11.186 3.196c-.979.268-1.943.563-2.95.817a13.96 13.96 0 0 1-9.335-1.021 15.377 15.377 0 0 1-2.725-1.718l-2.492-1.957a298.597 298.597 0 0 1-4.808-3.872c-3.112-2.577-6.09-5.097-8.863-7.568-5.576-4.928-10.42-9.546-14.362-13.552-3.943-4.006-6.956-7.42-8.927-9.856l-1.302-1.633c-.345-.493-.648-.908-.887-1.246l-.549-.768a3.413 3.413 0 0 1-.169-.267s.07.077.204.246c.134.169.324.43.57.746.246.317.556.747.915 1.225l1.324 1.612c1.999 2.422 5.033 5.808 8.997 9.786 3.963 3.978 8.849 8.568 14.397 13.468a407.022 407.022 0 0 0 8.87 7.546 263.786 263.786 0 0 0 4.801 3.865l2.493 1.922a14.21 14.21 0 0 0 2.668 1.69 13.66 13.66 0 0 0 9.095 1c.986-.247 1.972-.549 2.943-.817l11.222-3.168 19.008-5.315 12.82-3.562 3.52-.951.915-.239.274-.057ZM305.195 174.504c.035.042-.296.197-.359.669a.904.904 0 0 0 .204.704.812.812 0 0 0 1.179-.162.795.795 0 0 0 .144-.415.902.902 0 0 0-.387-.641c-.394-.275-.704-.141-.739-.197-.035-.057.056-.078.211-.12a.954.954 0 0 1 .655.113 1.077 1.077 0 0 1 .577.816 1.108 1.108 0 0 1-.664 1.042 1.106 1.106 0 0 1-1.216-.225 1.104 1.104 0 0 1-.204-.986.973.973 0 0 1 .366-.549c.134-.063.226-.07.233-.049ZM328.575 168.154a2.094 2.094 0 0 1-.401.429c-.403.355-.834.678-1.288.965a11.118 11.118 0 0 1-5.034 1.661c-1.784.14-3.575-.16-5.216-.873a8.613 8.613 0 0 1-1.408-.753 1.91 1.91 0 0 1-.472-.366c.035-.056.704.415 1.985.894a11.635 11.635 0 0 0 10.032-.774c1.148-.641 1.76-1.232 1.802-1.183Z"/><path fill="#455A64" d="M369.999 129.18s-31.912-11.968-33.848-13.699c-1.936-1.732-10.363-11.264-13.869-12.496 0 0-5.688-1.493-9.56-1.275l-4.09.486v-3.105l-16.805.275-.464 4.14-2.866 1.084s-6.73 14.08-6.73 20.5c0 6.421-3.323 44.007 3.224 51.23 1.007 1.106 4.928.395 4.928.395s18.896-2.014 37.678-15.151l-6.878-7.948s-2.421-16.6.395-28.526c.063-.26.119-.521.183-.774 8.131 4.013 20.648 9.856 24.323 9.856 0 0 20.585 6.948 24.386 2.499.43-.5-.007-7.491-.007-7.491Z"/><path fill="#455A64" d="M291.763 103.97s-6.582.261-10.869 5.59c-4.288 5.329-11.264 28.061-11.264 28.061l-9.603-9.856-9.152 5.076s12.94 18.037 15.488 20.128a13.67 13.67 0 0 0 4.675 1.992c6.145.535 10.299-5.724 11.559-10.884l4.224-21.211"/><path fill="#F4D3BD" d="m253.655 131.278-9.856-5.85s-2.978-7.04-1.838-7.371c1.141-.331 2.112 3.922 2.112 3.922l1.408.704s-1.922-3.577-1.253-3.915c.669-.338 1.605.704 2.112 1.528.394.62 1.669 3.217 1.669 3.217l.661-.915-.52-2.401s-.704-1.605.077-1.619c.781-.014.781-.07 1.366 1.26.584 1.331.985 2.324.985 2.324s2.873 1.703 3.485 1.513c.46-.155.946-.216 1.43-.179.484.038.956.173 1.386.397 0 0 2.725 1.408 2.07 4.33"/><path fill="#263238" d="M320.324 104.892c.05 0-.211.704-.528 1.775a19.706 19.706 0 0 0-.485 8.778c.183 1.12.373 1.803.316 1.824a6.907 6.907 0 0 1-.563-1.774 16.764 16.764 0 0 1 .5-8.899c.174-.6.429-1.173.76-1.704ZM293.946 104.02a6.616 6.616 0 0 1-.176-2.394 6.513 6.513 0 0 1 .366-2.373c.082.794.082 1.594 0 2.387.017.798-.047 1.595-.19 2.38ZM297.88 104.632a10.39 10.39 0 0 1 .056-2.689c.027-.898.165-1.79.409-2.654.098.895.076 1.799-.064 2.689a10.742 10.742 0 0 1-.401 2.654ZM303.119 104.47c-.099 0 .147-1.176.239-2.605.091-1.429 0-2.597.127-2.612a8.707 8.707 0 0 1-.366 5.217ZM306.963 103.506c-.099 0 .056-.993.035-2.19-.021-1.197-.204-2.161-.106-2.182.345.67.501 1.423.451 2.175a4.38 4.38 0 0 1-.38 2.197ZM282.112 112.573c.091 0-.001 9.194-.212 20.529-.211 11.334-.464 20.528-.563 20.528-.098 0 0-9.194.218-20.535.219-11.342.458-20.522.557-20.522Z"/><path fill="#FAFAFA" d="M281.478 134.2a8.793 8.793 0 0 1-1.408-.781 19.39 19.39 0 0 0-3.365-1.718 8.559 8.559 0 0 0-3.675-.535c-.957.084-1.521.331-1.542.274a3.388 3.388 0 0 1 1.514-.521 7.872 7.872 0 0 1 3.823.458c1.2.466 2.335 1.084 3.379 1.837.465.273.894.604 1.274.986ZM319.958 127.744c-.104.08-.215.15-.331.212l-.971.57c-.423.246-.951.535-1.577.838-.627.302-1.324.704-2.112 1.013-.789.31-1.676.739-2.647 1.091-.972.352-2.007.704-3.105 1.071a56.354 56.354 0 0 1-7.336 1.696 57.31 57.31 0 0 1-7.504.62c-1.162 0-2.26 0-3.288-.078-1.028-.077-1.985-.141-2.858-.232-.873-.092-1.648-.218-2.337-.324a27.125 27.125 0 0 1-1.753-.317l-1.099-.246a1.482 1.482 0 0 1-.38-.106c.133-.005.265.006.394.036l1.113.183c.478.084 1.063.183 1.753.26.69.077 1.464.211 2.337.268.873.056 1.816.161 2.816.19 1 .028 2.112.042 3.267.042a54.638 54.638 0 0 0 14.784-2.295c1.098-.352 2.147-.662 3.097-1.035.951-.373 1.852-.704 2.654-1.049.803-.345 1.514-.704 2.112-.964.599-.261 1.162-.557 1.598-.782l1-.507c.116-.069.242-.121.373-.155ZM338.48 117.55c.035.05-.563.444-1.408 1.197a18.218 18.218 0 0 0-2.999 3.295 18.741 18.741 0 0 0-2.112 3.942c-.408 1.07-.584 1.767-.641 1.753a1.567 1.567 0 0 1 .057-.5c.089-.452.206-.899.352-1.337a15.484 15.484 0 0 1 5.167-7.343c.357-.289.736-.55 1.133-.781.282-.169.437-.247.451-.226ZM342.049 118.649c0 .056-.704.38-1.739 1.063a15.43 15.43 0 0 0-6.005 7.497c-.443 1.176-.598 1.943-.655 1.929-.056-.014 0-.197.05-.549.088-.494.212-.981.373-1.457a14.015 14.015 0 0 1 6.104-7.632c.43-.267.879-.502 1.344-.704a1.73 1.73 0 0 1 .528-.147ZM320.211 124.851a1.571 1.571 0 0 1-.359.169l-1.034.422c-.451.183-1.007.402-1.662.62-.655.218-1.408.507-2.232.753-1.661.535-3.667 1.077-5.913 1.591-2.246.514-4.752.936-7.392 1.253-2.64.317-5.182.437-7.484.479a61.995 61.995 0 0 1-6.124-.197c-.866-.049-1.648-.148-2.338-.218a30.802 30.802 0 0 1-1.76-.226l-1.112-.169a1.372 1.372 0 0 1-.408-.056c.13-.017.263-.017.394 0l1.112.106a41.06 41.06 0 0 0 1.767.169c.69.049 1.464.133 2.337.161 1.732.113 3.802.155 6.097.12a78.063 78.063 0 0 0 7.448-.5c2.633-.295 5.119-.746 7.364-1.218a74.586 74.586 0 0 0 5.914-1.513c.838-.233 1.577-.493 2.239-.704a56.655 56.655 0 0 0 1.675-.563l1.063-.359c.13-.059.268-.099.408-.12ZM281.83 128.843a25.367 25.367 0 0 0-3.752-2.035 25.8 25.8 0 0 0-4.133-1.056 3.548 3.548 0 0 1 1.275 0c1.023.102 2.029.339 2.992.704.959.374 1.863.876 2.689 1.492.365.236.68.539.929.895Z"/><path fill="#F4D3BD" d="m380.501 126.533-6.969 2.338-3.52.309v7.505l3.618 1.232 9.708-.528s5.562 2.816 6.977 2.647c1.415-.169 1.408-.605 1.408-.605l-6.878-4.161a3.941 3.941 0 0 1 2.647.352c1.584.704 4.323 2.295 5.294 1.859.972-.437.796-.796.796-.796l-5.386-3.393s4.611 2.07 5.4 1.718a1.409 1.409 0 0 0 .866-1.042l-2.999-2.668-4.506-3.52-6.456-1.247Z"/><path fill="#EAAE94" d="M376.63 129.624c.265.076.52.182.76.317a69.54 69.54 0 0 1 1.993.971c.838.423 1.83.923 2.921 1.542.3.151.566.362.782.62.233.282.378.628.415.992a1.71 1.71 0 0 1-.239 1.098 1.615 1.615 0 0 1-.972.627 3.264 3.264 0 0 1-1.541 0 11.003 11.003 0 0 1-1.345-.486 27.87 27.87 0 0 1-2.323-1.077l.183-.042a4.164 4.164 0 0 1-1.619 1.288 3.69 3.69 0 0 1-2.563.127c-.218-.07-.331-.134-.324-.148.438.09.884.14 1.331.148a3.75 3.75 0 0 0 1.457-.345 4.06 4.06 0 0 0 1.485-1.246l.071-.099.105.057c.704.331 1.486.704 2.324 1.035.424.179.859.332 1.302.457.45.102.916.102 1.366 0 .307-.065.582-.237.774-.486.157-.262.223-.569.19-.873a1.765 1.765 0 0 0-1.028-1.372c-1.056-.627-2.048-1.148-2.865-1.598l-1.943-1.071a3.497 3.497 0 0 1-.697-.436ZM388.513 133.313a13.527 13.527 0 0 1-3.083-1.915 6.882 6.882 0 0 1-.627-.542h.211c-.6.326-1.267.507-1.95.528a1.544 1.544 0 0 1-.802-.077c0-.05.295-.057.781-.141a5.253 5.253 0 0 0 1.816-.599l.12-.077.099.098c.176.169.387.338.598.514a31.727 31.727 0 0 1 2.837 2.211Z"/><path fill="#D6221A" d="M400.405 187.26a14.387 14.387 0 0 1-4.154-.598c-13.376-4.006-12.672-13.657-12.13-21.416.521-7.23.542-11.778-5.421-14.016-7.892-2.957-11.137-.085-16.058 4.266-5.857 5.181-13.137 11.63-30.807 9.011-9.152-1.359-23.936-6.195-42.036-21.528a144.536 144.536 0 0 1-17.832-17.882l2.731-2.196c.275.338 27.301 33.644 57.651 38.135 16.051 2.38 22.38-3.224 27.97-8.166 5.012-4.435 9.743-8.624 19.613-4.928 8.716 3.274 8.174 10.856 7.688 17.551-.563 7.835-1.049 14.601 9.638 17.804 12.038 3.604 27.871-15.488 37.312-26.865 3.379-4.062 5.723-7.004 7.596-8.532l2.647 2.112c-1.169 1.408-4.421 4.928-7.547 8.666-9.617 11.609-23.711 28.582-36.861 28.582Z"/><path fill="#fff" d="M350.779 159.544s-.141.134-.422.31c-.395.261-.807.496-1.232.704a18.909 18.909 0 0 1-4.429 1.52 18.548 18.548 0 0 1-4.66.359 13.543 13.543 0 0 1-1.408-.147 1.77 1.77 0 0 1-.507-.12c0-.056.746 0 1.929 0a22.077 22.077 0 0 0 8.976-1.859c1.077-.492 1.725-.851 1.753-.767ZM371.365 148.921c-.383.014-.767 0-1.148-.043a7.89 7.89 0 0 0-5.062 1.746 7.692 7.692 0 0 1-.88.74c.162-.357.403-.673.704-.923a6.717 6.717 0 0 1 5.238-1.802c.399.003.792.099 1.148.282ZM393.787 182.171a4.637 4.637 0 0 1-1.584-.486 10.226 10.226 0 0 1-5.322-5.759 4.687 4.687 0 0 1-.36-1.612c.057 0 .198.598.592 1.521a11.602 11.602 0 0 0 2.112 3.266 11.419 11.419 0 0 0 3.09 2.359c.887.464 1.493.654 1.472.711ZM442.805 149.174a42.903 42.903 0 0 1-5.547 5.534 45.377 45.377 0 0 1 5.547-5.534Z"/><path fill="#D6221A" d="M275.071 125.872a4.043 4.043 0 0 1-2.801 1.32 4.043 4.043 0 0 1-2.915-1.046l-6.181-5.632 5.449-5.991 6.174 5.632a4.048 4.048 0 0 1 .274 5.717Z"/><path fill="#263238" d="M275.071 125.872c.208-.304.398-.619.571-.944a3.997 3.997 0 0 0 .19-2.935 3.935 3.935 0 0 0-1.12-1.739l-1.865-1.669c-1.317-1.197-2.781-2.513-4.337-3.914h.239l-2.724 2.999-2.725 2.992v-.239l4.309 3.921 1.844 1.697c.516.472 1.148.8 1.831.95a4.002 4.002 0 0 0 2.907-.472c.309-.203.605-.424.887-.661a3.058 3.058 0 0 1-.823.76 4.025 4.025 0 0 1-3.013.584 4.166 4.166 0 0 1-1.965-.971c-.584-.521-1.203-1.084-1.865-1.669l-4.344-3.921-.127-.113.12-.126 2.718-2.999 2.724-2.985.113-.127.126.113 4.309 3.949 1.844 1.697c.547.505.946 1.15 1.155 1.865a4.033 4.033 0 0 1-.296 3.049 2.935 2.935 0 0 1-.683.908Z"/><path fill="#D6221A" d="m243.842 92.052-10.659-8.815a1.966 1.966 0 1 1 2.506-3.027l10.652 8.814-2.499 3.028ZM233.816 104.928l-10.644-8.814a1.95 1.95 0 0 1-.708-1.328 1.951 1.951 0 0 1 .44-1.44 1.96 1.96 0 0 1 2.767-.26l10.658 8.807-2.513 3.035Z"/><path fill="#fff" d="m243.842 92.052-10.659-8.815a1.966 1.966 0 1 1 2.506-3.027l10.652 8.814-2.499 3.028ZM233.816 104.928l-10.644-8.814a1.95 1.95 0 0 1-.708-1.328 1.951 1.951 0 0 1 .44-1.44 1.96 1.96 0 0 1 2.767-.26l10.658 8.807-2.513 3.035Z" opacity=".6"/><path fill="#263238" d="M243.841 92.052c.049-.082.103-.16.162-.233l.479-.62 1.781-2.245v.148l-5.005-4.07-3.133-2.576-1.683-1.408-.866-.704a1.732 1.732 0 0 0-.936-.408 1.783 1.783 0 0 0-1.961 1.362c-.066.279-.064.57.004.848.067.262.198.504.38.704.199.209.413.401.641.578l1.323 1.098 4.562 3.837 3.091 2.633.845.704c.107.086.208.18.302.281a1.845 1.845 0 0 1-.295-.211l-.845-.704c-.782-.627-1.852-1.478-3.147-2.527l-4.689-3.81-1.351-1.104a7.693 7.693 0 0 1-.704-.613 2.112 2.112 0 0 1 1.879-3.52c.412.053.8.221 1.12.486l.859.704 1.675 1.408 3.119 2.598 4.928 4.146.084.07-.07.078-1.908 2.225-.507.563c-.032.099-.077.194-.134.282ZM233.817 104.928c.048-.084.104-.161.169-.233.126-.169.281-.373.478-.619l1.782-2.246v.148l-5.006-4.076-3.133-2.57-1.682-1.408-.866-.704a1.8 1.8 0 0 0-2.521.204 1.791 1.791 0 0 0-.373 1.605c.067.261.195.503.373.704.202.206.418.397.648.57l1.317 1.106 4.569 3.837 3.09 2.633.845.704c.109.082.208.177.296.281 0 0-.099-.063-.289-.211l-.852-.669-3.147-2.527-4.681-3.809-1.352-1.112a6.007 6.007 0 0 1-.704-.612 2.042 2.042 0 0 1-.451-.873 2.11 2.11 0 0 1 .444-1.908 2.154 2.154 0 0 1 1.88-.704c.411.053.799.221 1.119.486.289.246.577.478.866.704l1.675 1.407 3.119 2.591 4.928 4.154.078.07-.064.078c-.802.922-1.443 1.668-1.915 2.217l-.499.57c-.071.155-.141.219-.141.212Z"/><path fill="#D6221A" d="m268.059 103.224.282-.338a3.764 3.764 0 0 0-2.66-6.165 3.768 3.768 0 0 0-2.578.808l-15.6-12.996-17.847 21.352 15.967 12.672a3.768 3.768 0 0 0 .767 4.928 3.757 3.757 0 0 0 5.238-.436 10.85 10.85 0 0 0 15.002-1.88l2.563-3.196a10.852 10.852 0 0 0-1.134-14.749Z"/><path fill="#263238" d="m268.06 103.224.133.12.374.359c.206.19.397.398.57.619l.345.423.352.514a10.295 10.295 0 0 1 1.408 2.935 10.86 10.86 0 0 1 .299 4.874 10.862 10.862 0 0 1-1.869 4.511c-.57.809-1.232 1.577-1.88 2.414a20.517 20.517 0 0 1-2.161 2.485 10.835 10.835 0 0 1-6.519 2.887 11.024 11.024 0 0 1-7.554-2.154h.218a3.965 3.965 0 0 1-2.569 1.33 3.906 3.906 0 0 1-2.894-.873 3.945 3.945 0 0 1-.802-5.153l.035.218-12.384-9.877-3.611-2.872-.141-.106.113-.141c6.505-7.744 12.58-15.023 17.867-21.33l.099-.12.113.098 15.565 13.031h-.12a3.835 3.835 0 0 1 5.644 1.01 3.85 3.85 0 0 1 .566 2.052 3.726 3.726 0 0 1-.704 2.112 4.6 4.6 0 0 1-.367.444l-.133.148s.169-.211.457-.62a3.805 3.805 0 0 0 .634-2.112 3.715 3.715 0 0 0-1.57-3.02 3.61 3.61 0 0 0-2.112-.704 3.68 3.68 0 0 0-2.33.796l-.064.049-.063-.05-15.629-12.953h.211L229.79 105.97v-.247l3.605 2.873 12.355 9.856.12.091-.085.127a3.608 3.608 0 0 0 .704 4.724 3.607 3.607 0 0 0 5.02-.416l.098-.105.113.084a10.725 10.725 0 0 0 13.707-.725 20.965 20.965 0 0 0 2.112-2.45c.655-.831 1.33-1.605 1.894-2.394a10.802 10.802 0 0 0 .295-12.129c-.119-.183-.232-.359-.345-.521l-.338-.423a6.383 6.383 0 0 0-.549-.647l-.359-.374a.403.403 0 0 1-.077-.07Z"/><path fill="#E0E0E0" d="m250.199 103.634-11.008-9.103-1.781 2.153 11.008 9.104 1.781-2.154Z"/><path fill="#263238" d="M268.06 103.224a6.046 6.046 0 0 1-.591.831 92.837 92.837 0 0 1-1.711 2.189c-1.457 1.838-3.52 4.337-5.822 7.075a2481.83 2481.83 0 0 1-5.907 7.005l-1.788 2.112c-.211.27-.447.52-.704.746.173-.293.371-.571.591-.83.395-.528.979-1.275 1.711-2.19 1.457-1.837 3.52-4.336 5.822-7.04l5.907-7.04 1.795-2.112c.208-.27.442-.52.697-.746ZM263.102 97.5c-.184.31-.396.602-.633.873-.43.55-1.063 1.338-1.845 2.303a495.94 495.94 0 0 1-6.251 7.448c-2.464 2.886-4.675 5.449-6.336 7.385-.789.901-1.408 1.654-1.929 2.224a6.634 6.634 0 0 1-.747.789c.192-.306.406-.598.641-.873.429-.549 1.056-1.338 1.844-2.302a486.862 486.862 0 0 1 6.252-7.448l6.336-7.378 1.929-2.232c.226-.281.473-.545.739-.788Z"/><path fill="#B78876" d="M192.984 40.899c-.098.232-7.864 6.132-7.864 6.132l-.147 5.012 4.012.563 5.703-3.238 3.865-.197s2.358 1.246 2.816 1.408a1.365 1.365 0 0 0 1.584-.655l-3.52-2.562s3.9 2.175 4.273 1.886a1.206 1.206 0 0 0-.373-1.88s1.211.641 1.978.127c.768-.514.493-1.126.493-1.126l-5.153-4.625a3.522 3.522 0 0 0-2.401-.901l-5.266.056Z"/><path fill="#AA6550" d="M193.603 43.074c-.001.201-.02.401-.056.599-.071.436-.155.985-.261 1.647l-.098-.12 2.963-.197a3.817 3.817 0 0 1 1.88.254c.33.167.601.433.774.76a1.287 1.287 0 0 1 .05 1.147v.043h-.043c-.936.556-2.112.43-3.132.5a3.64 3.64 0 0 0-2.183.795 14.467 14.467 0 0 0-1.626 1.577 7.288 7.288 0 0 1-1.619 1.366 3.626 3.626 0 0 1-1.788.5 7.04 7.04 0 0 1-2.591-.542A4.285 4.285 0 0 1 185 51c.314.064.623.154.922.268a7.472 7.472 0 0 0 2.535.43 3.456 3.456 0 0 0 1.647-.5 7.24 7.24 0 0 0 1.535-1.338 14.348 14.348 0 0 1 1.647-1.626 3.978 3.978 0 0 1 2.373-.873c1.091-.064 2.175.035 2.985-.444l-.071.07a1.219 1.219 0 0 0-.662-1.478 3.46 3.46 0 0 0-1.724-.246l-2.971.112h-.127v-.12c.141-.654.26-1.196.352-1.633.03-.189.084-.373.162-.549Z"/><path fill="#AA6550" d="M203.58 47.467a3.515 3.515 0 0 1-1.324-.781c-.76-.585-1.591-1.605-2.724-2.429a1.922 1.922 0 0 0-.873-.366c-.31-.035-.641 0-.951 0h-1.654a6.916 6.916 0 0 1-1.521-.099 6.267 6.267 0 0 1 1.521-.148l1.647-.063a7.76 7.76 0 0 1 .993 0c.376.045.734.191 1.035.422a28.284 28.284 0 0 1 2.682 2.528c.683.605 1.197.887 1.169.936Z"/><path fill="#D6221A" d="m203.939 196.483-.19 12.341s12.453 4.33 12.636 6.611l-23.886.485-.493-19.198 11.933-.239Z"/><path fill="#fff" d="M196.335 207.916a.97.97 0 0 0-.648 1.126.938.938 0 0 0 1.113.655 1.026 1.026 0 0 0 .704-1.197.982.982 0 0 0-1.232-.556M192.498 215.864v-1.936l22.901.26s1.07.437.965 1.19l-23.866.486Z" opacity=".6"/><path fill="#263238" d="M204.13 208.669c0 .113-.578.183-1.148.57-.57.388-.859.88-.971.838-.113-.042.056-.704.746-1.176.69-.471 1.401-.337 1.373-.232ZM206.656 209.655c.035.112-.472.317-.859.823-.387.507-.486 1.021-.605 1.021-.12 0-.204-.662.288-1.274.493-.613 1.176-.697 1.176-.57ZM208.141 212.626c-.105 0-.274-.557 0-1.197.275-.641.831-.915.88-.817.05.099-.281.444-.507.979-.225.535-.253 1.02-.373 1.035ZM203.861 205.86c-.042.106-.584-.049-1.239 0-.654.049-1.168.275-1.232.176-.063-.098.423-.528 1.197-.584.775-.056 1.331.31 1.274.408Z"/><path fill="#000" d="m203.897 198.919-.028 2.196-11.75.134-.057-1.978 11.835-.352Z" opacity=".3"/><path fill="#263238" d="M203.854 203.375a2.335 2.335 0 0 1-1.197 0 5.515 5.515 0 0 1-1.26-.359 5.779 5.779 0 0 1-.704-.352 1.191 1.191 0 0 1-.366-.275.513.513 0 0 1-.071-.619.653.653 0 0 1 .507-.275c.152-.004.304.015.451.057a4.218 4.218 0 0 1 1.865.943c.564.507.768.936.704.957-.063.022-.33-.316-.901-.704a4.72 4.72 0 0 0-1.084-.577 3.999 3.999 0 0 0-.704-.197c-.253-.063-.465-.056-.528.056-.063.113 0 .057 0 .134.082.075.172.141.268.197.218.134.429.247.64.352.375.176.767.315 1.169.416.41.049.814.132 1.211.246Z"/><path fill="#263238" d="M203.707 203.544a1.9 1.9 0 0 1-.338-1.155c-.031-.44.014-.883.133-1.309a3.99 3.99 0 0 1 .296-.704.97.97 0 0 1 .746-.62.548.548 0 0 1 .507.324c.068.138.113.285.134.437.042.266.042.536 0 .802-.054.45-.221.879-.486 1.246-.45.634-.936.782-.943.74-.007-.043.359-.289.704-.894.199-.348.321-.735.359-1.134a2.6 2.6 0 0 0-.042-.704c-.043-.253-.141-.45-.233-.429-.091.021-.316.197-.415.401a4.86 4.86 0 0 0-.282.655 4.239 4.239 0 0 0-.204 1.204c-.007.682.127 1.119.064 1.14Z"/><path fill="#263238" d="M160.459 126.857c.584.88 26.52 27.787 26.52 27.787s-3.225 12.398-2.063 23.176c1.162 10.778 4.66 27.956 4.66 27.956l18.804-1.5-5.118-58.432-20.528-27.132-22.275 8.145Z"/><path fill="#D6221A" d="m210.436 182.868 2.309 12.101s13.073 1.718 13.721 3.915l-23.302 5.315-4.365-18.706 11.637-2.625Z"/><path fill="#fff" d="M205.31 195.603a.972.972 0 0 0-.408 1.239.934.934 0 0 0 1.218.415 1.03 1.03 0 0 0 .429-1.309.967.967 0 0 0-1.316-.296M203.165 204.199l-.366-1.901 22.479-4.386s1.14.211 1.189.972l-23.302 5.315Z" opacity=".6"/><path fill="#263238" d="M213.097 194.744c0 .113-.535.296-1.013.788-.479.493-.662 1.042-.775 1.021-.113-.021-.098-.704.486-1.309.584-.606 1.302-.592 1.302-.5ZM215.772 195.216c.05.105-.401.415-.704.978-.302.563-.274 1.105-.387 1.127-.112.021-.331-.606 0-1.31.331-.704 1.063-.901 1.091-.795ZM217.828 197.828c-.099.049-.388-.486-.24-1.176.148-.69.627-1.056.704-.979.078.078-.183.493-.295 1.063-.113.571-.064 1.049-.169 1.092ZM212.267 192.069c0 .112-.584.07-1.218.267s-1.084.507-1.169.423c-.084-.085.31-.606 1.056-.817.747-.211 1.366.021 1.331.127Z"/><path fill="#000" d="m210.894 185.268.416 2.154-11.475 2.514-.458-1.929 11.517-2.739Z" opacity=".3"/><path fill="#263238" d="M211.752 189.633a2.217 2.217 0 0 1-1.168.26 5.785 5.785 0 0 1-2.056-.295 1.565 1.565 0 0 1-.415-.197.5.5 0 0 1-.19-.592.631.631 0 0 1 .436-.373c.15-.037.304-.051.458-.042a4.181 4.181 0 0 1 2.013.542c.655.38.936.76.908.796-.028.035-.387-.247-1.035-.536a4.78 4.78 0 0 0-1.175-.352 3.957 3.957 0 0 0-.704-.049c-.261 0-.472.035-.507.162-.035.127 0 .063.056.12.093.062.195.109.303.141.229.088.464.158.704.211.401.1.812.159 1.225.176a7.987 7.987 0 0 1 1.147.028Z"/><path fill="#263238" d="M211.647 189.816c-.042 0-.359-.331-.57-1.056a4.143 4.143 0 0 1-.134-1.316c.021-.263.068-.522.141-.775a.988.988 0 0 1 .605-.76.557.557 0 0 1 .563.218c.093.122.166.257.218.401.1.25.162.514.184.782.032.453-.045.907-.226 1.323-.317.704-.76.951-.781.915.191-.329.363-.67.514-1.02.122-.382.163-.785.119-1.183a2.58 2.58 0 0 0-.176-.669c-.091-.239-.232-.415-.316-.373-.085.042-.275.261-.324.479a3.982 3.982 0 0 0-.106 1.915c.127.704.345 1.119.289 1.119Z"/><path fill="#263238" d="M114.067 108.448s-1.739 11.13 5.005 18.409c6.744 7.28 14.017 10.483 26.829 9.906 12.813-.578 40.473.063 40.473.063s1.169 14.784 4.372 26.872c3.203 12.087 9.596 30.272 9.596 30.272l12.531-1.197s-3.386-65.881-4.259-71.703c-.873-5.822-10.56-8.771-15.833-10.517-5.273-1.746-35.313-7.78-35.313-7.78l-27.294-3.83-16.107 9.505Z"/><path fill="#455A64" d="M212.872 192.745h-.218l-.655.049-2.548.183-9.596.634h-.084v-.085c-1.683-5.393-3.865-12.397-6.393-20.479-1.26-4.048-2.597-8.371-4.005-12.891-.704-2.252-1.458-4.569-1.971-6.99a47.064 47.064 0 0 1-1.049-7.463 35.648 35.648 0 0 1 .471-8.8l.162.212c-7.638-.155-14.833-.233-21.324-.254-3.245 0-6.336 0-9.152.049-2.816.05-5.519.148-7.948.148-4.844 0-8.723-.246-11.391-.478-1.33-.113-2.365-.226-3.055-.303l-.796-.106-.267-.042c.091-.008.183-.008.274 0l.789.07 3.062.247c2.668.19 6.547.408 11.384.366 2.415 0 5.076-.141 7.941-.19 2.865-.05 5.942-.078 9.152-.078 6.498 0 13.693.064 21.331.219h.204l-.042.211a35.767 35.767 0 0 0-.458 8.694 47.37 47.37 0 0 0 1.035 7.413c.521 2.401 1.268 4.696 1.965 6.956 1.408 4.526 2.724 8.849 3.977 12.897 2.485 8.103 4.64 15.115 6.301 20.522l-.106-.078 9.603-.535 2.548-.127h.655c.069.003.137.013.204.029Z"/><path fill="#455A64" d="M192.985 129.272c.07.07-1.486 1.577-3.077 3.696s-2.604 4.034-2.703 3.985c.131-.459.326-.897.577-1.303a21.874 21.874 0 0 1 1.852-2.886 22.292 22.292 0 0 1 2.26-2.584 4.47 4.47 0 0 1 1.091-.908Z"/><path fill="#455A64" d="M196.385 130.455a27.481 27.481 0 0 0-4.928 2.52 28.074 28.074 0 0 0-4.111 3.745c.252-.492.572-.947.95-1.351a15.488 15.488 0 0 1 6.519-4.506 5.436 5.436 0 0 1 1.57-.408ZM140.459 41.617c.922.458 20.148 12.214 21.064 12.214.915 0 23.661-8.3 23.661-8.3l4.661 7.195S169.9 68.087 163.367 68.313c-6.533.225-16.896-5.02-16.896-5.02l-6.012-21.676ZM100.458 48.073s-23.929 24.33-23.633 30.511c.296 6.181 3.266 9.596 5.167 10.398 2.654 1.127 32.617-2.563 32.617-2.563l1.774-11.658c-4.928-.978-11.173-1.718-17.938-2.365 3.034-3.175 6.406-5.583 10.56-6.287l7.167-7.793s-8.955-11.764-15.714-10.243Z"/><path fill="#455A64" d="M99.218 55.352s-1.148-5.252 1.408-7.357c4.224-3.52 7.828-5.118 10.898-6.646 3.52-1.752 7.244-3.78 7.244-3.78l21.718 4.04s11.595 18.516 11.349 23.071a12.086 12.086 0 0 1-3.133 7.42 27.995 27.995 0 0 0 1.584 14.855c2.598 6.455 7.209 15.783 7.209 15.783s-24.893-4.04-36.7 1.739c-6.336 3.098-6.906 8.033-6.906 8.033l-.922-27.118-4.879-16.608-8.87-13.432Z"/><path fill="#263238" d="M115.671 74.613s-.113-.042-.331-.084c-.218-.042-.535-.106-.957-.169a122.44 122.44 0 0 0-3.577-.45c-3.027-.346-7.216-.768-11.84-1.211l-.796-.078-.43-.042.338-.268c1.753-1.408 3.4-2.703 4.928-3.893a12.35 12.35 0 0 1 4.682-2.063 11.966 11.966 0 0 1 3.428-.225c.31.026.618.068.922.127.107.01.211.036.31.077a14.84 14.84 0 0 0-4.611.254 12.36 12.36 0 0 0-4.541 2.112l-4.928 3.914-.091-.31.802.078c4.626.443 8.814.908 11.835 1.316 3.02.409 4.906.76 4.857.915Z"/><path fill="#263238" d="M89.96 72.952c.254-.358.586-.652.973-.859a6.25 6.25 0 0 1 2.991-.95 6.07 6.07 0 0 1 3.07.64c.406.166.767.424 1.056.754-.035.049-.437-.233-1.162-.535a6.885 6.885 0 0 0-2.95-.514 6.814 6.814 0 0 0-2.879.816c-.683.345-1.063.648-1.098.648ZM112.728 58.07c-.064 0-.275-.888-.796-2.282a15.803 15.803 0 0 0-2.914-4.927 9.954 9.954 0 0 0-2.464-1.95l-.634-.317c-.204-.092-.422-.155-.627-.226a6.752 6.752 0 0 0-1.161-.302 8.654 8.654 0 0 0-1.739-.141 2.477 2.477 0 0 1-.655 0c.209-.07.428-.105.648-.106a7.329 7.329 0 0 1 2.999.303c.211.07.436.127.655.218l.704.317a9.848 9.848 0 0 1 2.569 2 14.668 14.668 0 0 1 2.887 5.103c.193.562.348 1.136.464 1.718.044.194.066.392.064.591ZM148.019 72.804s.289-.324.76-.943a10.946 10.946 0 0 0 1.612-2.816 11.83 11.83 0 0 0 .831-4.738 11.075 11.075 0 0 0-1.725-5.59 42.795 42.795 0 0 0-3.639-4.738 21.765 21.765 0 0 1-2.781-4.069 9.848 9.848 0 0 1-1.021-3.16c-.042-.3-.06-.6-.056-.902a.936.936 0 0 1 0-.317s0 .437.169 1.197c.205 1.075.578 2.11 1.105 3.07a22.115 22.115 0 0 0 2.816 3.977 40.56 40.56 0 0 1 3.689 4.76 11.222 11.222 0 0 1 1.746 5.765 11.701 11.701 0 0 1-.922 4.836 10.337 10.337 0 0 1-1.732 2.816 5.841 5.841 0 0 1-.627.655 1.182 1.182 0 0 1-.225.197Z"/><path fill="#000" d="M110.181 73.656a3.247 3.247 0 0 1 1.992-3.964c.863-.18 1.738-.293 2.619-.337.549-.092 1.161-.367 1.274-.916.141-.704-.57-1.21-1.204-1.485a11.089 11.089 0 0 0-8.216-.197 13.044 13.044 0 0 1 2.57 6.8M143.098 49.551c-1.119-2.246 2.943 4.062 4.837 5.71a41.785 41.785 0 0 1 5.463 5.174c1.57 1.957 2.731 4.125 2.513 6.632l-4.52-1.591s.571-3.654-1.408-6.337c-1.978-2.682-6.434-8.715-6.885-9.588ZM98.093 72.248c-1.247-1.352-3.154-1.9-4.985-2.112a7.66 7.66 0 0 0-3.323.218 3.577 3.577 0 0 0-2.337 2.232 1.07 1.07 0 0 0 .085.971.936.936 0 0 0 1.027.24c.351-.145.677-.345.965-.592a8.568 8.568 0 0 1 8.42-.894" opacity=".3"/><path fill="#263238" d="M105.49 54.972a1.489 1.489 0 0 1-.918 1.373 1.485 1.485 0 1 1 .007-2.745 1.475 1.475 0 0 1 .911 1.372ZM113.467 45.158a1.486 1.486 0 1 1-2.973 0 1.486 1.486 0 0 1 2.973 0ZM128.998 45.77a1.485 1.485 0 1 1-1.478-1.478 1.477 1.477 0 0 1 1.478 1.478ZM141.008 44.841a1.487 1.487 0 0 1-2.536 1.05 1.483 1.483 0 0 1 1.051-2.536 1.485 1.485 0 0 1 1.485 1.486ZM160.875 62.427a1.482 1.482 0 0 1-.918 1.373 1.489 1.489 0 0 1-1.62-.325 1.485 1.485 0 0 1 1.06-2.533 1.477 1.477 0 0 1 1.478 1.485ZM148.752 60.942a1.485 1.485 0 1 1-1.485-1.479 1.485 1.485 0 0 1 1.05.43 1.48 1.48 0 0 1 .435 1.049ZM151.307 51.079a1.482 1.482 0 0 1-.919 1.373 1.484 1.484 0 1 1-.56-2.859 1.48 1.48 0 0 1 1.479 1.486ZM167.978 56.598a1.485 1.485 0 1 0 0-2.97 1.485 1.485 0 0 0 0 2.97ZM179.742 56.45a1.478 1.478 0 0 1-.913 1.378 1.486 1.486 0 1 1 .913-1.378ZM142.549 72.318a1.492 1.492 0 0 1-.912 1.378 1.486 1.486 0 1 1 .912-1.378ZM147.928 80.738a1.492 1.492 0 0 1-.912 1.378 1.486 1.486 0 1 1 .912-1.378ZM136.869 86.405a1.482 1.482 0 0 1-.918 1.373 1.488 1.488 0 0 1-2.025-1.087 1.486 1.486 0 0 1 2.032-1.658 1.485 1.485 0 0 1 .801.805c.074.18.111.373.11.567ZM129.695 95.72a1.478 1.478 0 0 1-.913 1.377 1.486 1.486 0 1 1 .913-1.378ZM147.266 94.142a1.488 1.488 0 0 1-1.784 1.462 1.484 1.484 0 0 1 .334-2.94 1.478 1.478 0 0 1 1.45 1.478ZM118.516 102.52a1.489 1.489 0 0 1-.919 1.373 1.486 1.486 0 1 1 .919-1.373ZM124.695 79.288a1.489 1.489 0 0 1-.918 1.373 1.485 1.485 0 1 1 .007-2.745 1.476 1.476 0 0 1 .911 1.372ZM119.711 90.08a1.487 1.487 0 0 1-1.775 1.457 1.488 1.488 0 0 1-1.167-1.167 1.483 1.483 0 0 1 1.457-1.775 1.486 1.486 0 0 1 1.485 1.485ZM137.805 57.02a1.482 1.482 0 0 1-.919 1.373 1.485 1.485 0 1 1-.56-2.858 1.482 1.482 0 0 1 1.368.918c.074.18.112.373.111.567ZM128.561 68.862a1.485 1.485 0 1 1-1.486-1.486 1.48 1.48 0 0 1 1.486 1.486ZM119.711 59.463a1.486 1.486 0 1 1-2.973 0 1.486 1.486 0 0 1 2.973 0ZM83.16 82.407a1.485 1.485 0 1 1-1.485-1.479 1.492 1.492 0 0 1 1.485 1.479ZM90.031 63.652a1.486 1.486 0 1 1-.91-1.372 1.48 1.48 0 0 1 .91 1.372ZM103.209 84.505a1.485 1.485 0 1 1-2.97.016 1.485 1.485 0 0 1 2.97-.016ZM112.242 77.577a1.478 1.478 0 0 1-.913 1.378 1.486 1.486 0 1 1 .913-1.378ZM94.213 75.972a1.485 1.485 0 1 1-1.478-1.485 1.48 1.48 0 0 1 1.478 1.485ZM101.922 66.172a1.482 1.482 0 0 1-.919 1.374 1.484 1.484 0 0 1-1.937-1.947 1.486 1.486 0 0 1 1.945-.799 1.487 1.487 0 0 1 .801.805c.073.18.111.373.11.567Z"/><path fill="#D6221A" d="M95.677 151.751a42.603 42.603 0 0 1-9.102-.986c-6.21-1.366-11.074-3.372-14.784-6.118a47.004 47.004 0 0 1-14.397 2.612c-15.967.43-30.42-4.562-48.14-18.902a98.206 98.206 0 0 1-2.576-6.048c17.058 13.806 35.524 21.824 50.624 21.444a44.015 44.015 0 0 0 11.384-1.809c-4.118-4.294-6.195-9.905-6.167-16.72 0-7.469 3.21-10.856 5.871-12.376 3.767-2.162 8.92-1.866 13.44.767 4.984 2.908 7.948 7.821 7.927 13.151a14.447 14.447 0 0 1-5.689 11.264 43.265 43.265 0 0 1-8.37 5.033 41.66 41.66 0 0 0 27.878 4.393c15.003-2.978 27.534-8.3 37.242-15.819a60.472 60.472 0 0 0 23.598-49.815v-.063c-.866-17.354-10.996-34.306-25.823-43.19-12.855-7.71-29.328-9.821-46.38-5.95-10.594 2.409-25.012 8.118-33.51 21.656-9.152 14.587-6.674 32.687.88 41.1 5.386 6.005 15.707 3.836 24.007 2.111l2.731-.563c8.92-1.774 45.113-18.747 45.253-18.797l.768 2.887c-.585.204-36.172 17.53-45.338 19.353-.873.169-1.774.359-2.696.556-9.152 1.922-20.6 4.315-27.337-3.19-4.871-5.434-7.582-13.277-7.63-22.084a44.351 44.351 0 0 1 6.392-23.232c9.152-14.551 24.464-20.655 35.706-23.232 17.931-4.069 35.32-1.816 48.957 6.336 15.769 9.504 26.54 27.576 27.498 46.035.077.943 1.021 14.404-6.181 29.638a63.551 63.551 0 0 1-18.769 23.232c-10.145 7.857-23.162 13.376-38.72 16.488-2.814.559-5.677.84-8.547.838Zm-21.62-36.827a7.882 7.882 0 0 0-3.928.979c-2.668 1.528-4.083 4.759-4.104 9.349 0 6.568 2.034 11.644 6.336 15.418a39.937 39.937 0 0 0 9.546-5.421 10.94 10.94 0 0 0 4.33-8.483c0-4.062-2.295-7.836-6.188-10.103a12.069 12.069 0 0 0-5.991-1.739Z"/><path fill="#263238" d="M74.593 146.464a4.097 4.097 0 0 1-1.316-.641 23.828 23.828 0 0 1-2.851-2.112 22.123 22.123 0 0 1-2.542-2.464 3.81 3.81 0 0 1-.823-1.218c.042 0 .373.423 1.006 1.056a42.734 42.734 0 0 0 2.577 2.359c1.042.88 2.034 1.64 2.767 2.154.414.26.81.549 1.182.866ZM78.282 144.408a4.268 4.268 0 0 1-1.584-.401 13.342 13.342 0 0 1-3.38-2.021 16.846 16.846 0 0 1-2.752-2.816c-.36-.42-.65-.895-.859-1.408.042 0 .394.479 1.049 1.232.855.98 1.798 1.88 2.816 2.69 1 .818 2.094 1.513 3.26 2.069.858.451 1.464.599 1.45.655Z"/><path fill="#fff" d="M64.23 132.278a1.8 1.8 0 0 1-.225-.57c-.164-.532-.3-1.073-.408-1.619a20.881 20.881 0 0 1 .767-10.87 14.06 14.06 0 0 1 .627-1.542c.073-.191.172-.371.295-.535.057 0-.288.824-.704 2.154a24.795 24.795 0 0 0-.992 5.337 24.373 24.373 0 0 0 .24 5.413c.224 1.38.457 2.218.4 2.232ZM55.466 144.88a6.08 6.08 0 0 1-1.697.295 18.518 18.518 0 0 1-8.173-1.161 6.336 6.336 0 0 1-1.55-.754c.556.139 1.101.313 1.634.521 1.299.425 2.632.736 3.985.93 1.355.189 2.723.262 4.09.218.569-.051 1.14-.067 1.71-.049ZM152.525 121.528a8.465 8.465 0 0 1-1.028 1.535 37.362 37.362 0 0 1-6.209 6.371c-.46.411-.966.767-1.507 1.063.413-.44.858-.849 1.331-1.225a68.136 68.136 0 0 0 3.203-3.048 58.918 58.918 0 0 0 2.971-3.288c.378-.499.792-.97 1.239-1.408ZM52.114 85.687a4.735 4.735 0 0 1-.36-.936 24.676 24.676 0 0 1-.703-2.626 34.369 34.369 0 0 1-.704-3.984 35.993 35.993 0 0 1 .26-9.892c.223-1.333.524-2.651.901-3.95.25-.875.544-1.737.88-2.583a4.81 4.81 0 0 1 .409-.915 6.246 6.246 0 0 1-.282.964 35.671 35.671 0 0 0-.767 2.598 37.992 37.992 0 0 0-.824 3.936 43.66 43.66 0 0 0-.444 4.928c-.036 1.645.027 3.29.19 4.928.134 1.333.339 2.658.613 3.97.232 1.12.45 2.02.627 2.633.092.304.16.615.204.93ZM56.367 54.085a6.144 6.144 0 0 1-.852 1.88 6.274 6.274 0 0 1-1.162 1.71c.18-.67.471-1.305.86-1.88a6.542 6.542 0 0 1 1.154-1.71Z"/><path fill="#263238" d="M141.592 23.038c-.838 1.338-.12 3.105.817 4.372.936 1.267 2.112 2.485 2.323 4.048.246 2.147-1.57 4.027-3.52 4.928a3.797 3.797 0 0 0-1.662 1.035c-.549.76-.323 1.802-.345 2.739a4.538 4.538 0 0 1-2.337 3.921 3.787 3.787 0 0 1-4.414-.704 5.439 5.439 0 0 1-1.14-2.534 11.523 11.523 0 0 1 2.513-9.983c1.19-1.31 2.689-2.295 3.992-3.52 1.302-1.225 2.435-2.746 2.548-4.513M141.353 7.015c-.979-2.52-3.52-4.076-6.097-4.97a17.248 17.248 0 0 0-11.44-.246c-5.364 1.943-8.969 6.941-11.743 11.926-1.203 2.168-2.555 4.59-4.928 5.315-1.267.38-2.625.204-3.942.352a8.089 8.089 0 0 0-5.266 2.816c-1.577 1.915-2.394 4.667-4.66 5.674-1.465.648-3.147.373-4.745.422-3.33.106-6.836 2.112-7.568 5.358-.486 2.112.246 4.491-.704 6.427-.352.704-.916 1.296-1.253 2.007a3.654 3.654 0 0 0 5.315 4.61 9.56 9.56 0 0 1 1.457-.999c1.155-.486 2.471.155 3.478.901 1.006.747 2 1.662 3.245 1.803 2.549.281 4.527-2.816 7.09-2.62 1.408.1 2.569 1.176 3.801 1.916 2.154 1.295 3.239.133 5.062-1.592 1.823-1.724 2.816 5.541 7.04 3.647 3.928-1.774.042-8.497 1.478-8.342 1.436.155 5.21-.078 6.012-1.281"/><path fill="#263238" d="M141.845 14.52a9.552 9.552 0 0 0-1.112-8.666 12.52 12.52 0 0 0-5.378-4.098 13.454 13.454 0 0 0-8.976-.83c-2.943.859-5.527 3.217-6.182 6.209-.295 1.359-.211 2.816-.802 4.076a3.033 3.033 0 0 0-.549 1.697 1.404 1.404 0 0 0 1.126 1.084c.547.098 1.111.05 1.633-.14a17.163 17.163 0 0 0 4.928-2.74"/><path fill="#B78876" d="M132.052 41.06c.331-2.597.451-3.66.451-3.639 0 .021 5.582-.288 7.525-7.307.972-3.52 1.451-9.343 1.697-14.144.211-4.315-2.035-9.905-6.336-9.933l-13.728 1.858a2.53 2.53 0 0 0-2.542 2.295l-2.168 31.258s6.195 7.336 11.574 6.336c5.378-1 3.527-6.723 3.527-6.723Z"/><path fill="#263238" d="M139.431 20.786a.922.922 0 0 1-.986.823.875.875 0 0 1-.804-.589.873.873 0 0 1-.047-.347.922.922 0 0 1 .985-.824.884.884 0 0 1 .625.288.886.886 0 0 1 .227.649ZM140.115 18.864c-.127.105-.76-.486-1.753-.599-.993-.112-1.767.303-1.859.17-.091-.134.099-.261.437-.458a2.583 2.583 0 0 1 1.506-.282c.514.055.995.275 1.373.627.282.267.366.492.296.542ZM130.42 19.85a.927.927 0 0 1-.993.83.89.89 0 0 1-.802-.59.887.887 0 0 1-.049-.346.92.92 0 0 1 .992-.824.879.879 0 0 1 .852.93ZM130.391 17.941c-.127.113-.76-.485-1.746-.59-.986-.107-1.767.302-1.866.168-.098-.134.099-.26.437-.458a2.582 2.582 0 0 1 1.506-.281 2.468 2.468 0 0 1 1.408.62c.247.267.324.5.261.541ZM133.145 25.671a6.336 6.336 0 0 1 1.633-.112c.26 0 .5 0 .563-.183.05-.259.021-.526-.084-.768-.169-.633-.345-1.302-.528-2.006a33.472 33.472 0 0 1-1.106-5.203c.12 0 .796 2.253 1.521 5.104.176.704.338 1.373.5 2.014.122.322.122.678 0 1a.639.639 0 0 1-.451.323 2.352 2.352 0 0 1-.436 0 6.691 6.691 0 0 1-1.612-.169Z"/><path fill="#AA6550" d="M132.505 37.421a18.26 18.26 0 0 1-9.286-3.64s1.844 5.224 9.074 5.365l.212-1.725ZM132.44 28.002a1.785 1.785 0 0 0-1.514-.845 1.618 1.618 0 0 0-1.19.479 1.015 1.015 0 0 0-.211 1.161 1.197 1.197 0 0 0 1.253.479 3.747 3.747 0 0 0 1.345-.613.964.964 0 0 0 .317-.26.34.34 0 0 0 .042-.366"/><path fill="#263238" d="M130.863 14.365c-.127.254-1.098 0-2.267 0-1.169 0-2.112.218-2.274-.035-.056-.127.134-.36.542-.577a3.938 3.938 0 0 1 3.464 0c.401.253.591.485.535.612ZM140.319 14.52c-.197.204-.852-.106-1.668-.211-.817-.106-1.528 0-1.662-.268-.056-.126.077-.338.408-.514a2.439 2.439 0 0 1 2.676.388c.267.253.338.5.246.605Z"/><path fill="#B78876" d="M119.768 22.398c.056-.535-.415-1.859-.929-2-1.408-.38-3.929-.556-4.351 3.014-.591 4.864 4.421 4.449 4.449 4.315.028-.134.627-3.492.831-5.33Z"/><path fill="#AA6550" d="M117.657 25.7s-.092.049-.247.098a.836.836 0 0 1-.633-.063 2.11 2.11 0 0 1-.747-2c.039-.42.171-.827.388-1.19a.965.965 0 0 1 .704-.57.428.428 0 0 1 .471.289c.049.148 0 .24 0 .246 0 .007.113-.063.099-.274a.513.513 0 0 0-.155-.324.62.62 0 0 0-.451-.183 1.203 1.203 0 0 0-.978.648 2.878 2.878 0 0 0-.458 1.323c-.084.986.303 1.964.986 2.253a.892.892 0 0 0 .788-.035c.233-.099.233-.204.233-.218Z"/><path fill="#263238" d="M136.136 5.27a6.701 6.701 0 0 1-5.005 4.674c-1.26.26-2.746.218-3.569 1.204-.824.985-.557 2.605-1.352 3.647-1.105 1.45-3.71 1.126-4.59 2.717-.38.704-.296 1.577-.704 2.267a2.275 2.275 0 0 1-2.816.795 3.628 3.628 0 0 1-1.922-2.393 9.828 9.828 0 0 1-.232-3.147 17.39 17.39 0 0 1 1.091-6.11C118.74 4.91 125.281-.23 129.582.474M141.043 24.496c1.113-1.317 2.169-2.816 3.288-4.105 1.12-1.288 2.147-2.59 2.281-4.224a6.81 6.81 0 0 0-1.19-3.886 48.851 48.851 0 0 0-4.639-6.336 6.354 6.354 0 0 0-1.302-1.281 3.157 3.157 0 0 0-1.472-.493 1.775 1.775 0 0 0-1.225.296.978.978 0 0 0-.359 1.133c.227.328.552.575.93.704 2.027 1.035 3.329 3.154 3.907 5.358.577 2.203.415 4.33.366 6.61-.042 1.781-.282 3.675-.465 5.316"/><path fill="#263238" d="M129.625.616a14.786 14.786 0 0 0-13.51 5.688c-1.697 2.281-2.95 5.252-5.632 6.21-2.189.781-4.646-.092-6.941.316a6.423 6.423 0 0 0-4.71 3.732c-.655 1.534-.704 3.379-1.88 4.59-1.506 1.598-4.224 1.408-5.794 2.992-1.267 1.295-1.31 3.379-.802 5.125.14.746.57 1.407 1.197 1.837a2.942 2.942 0 0 0 1.921.148 21.824 21.824 0 0 0 6.28-2.485c4.485-2.408 8.8-5.118 13.116-7.821a26.877 26.877 0 0 0 5.632-4.274c2.112-2.295 3.344-5.23 4.822-7.983 1.478-2.753 3.372-5.47 6.202-6.773"/><path fill="#455A64" d="M81.26 47.038a.656.656 0 0 1-.197-.064 2.205 2.205 0 0 1-.542-.267 3.52 3.52 0 0 1-1.33-1.866 4.337 4.337 0 0 1 .45-3.569 7.37 7.37 0 0 1 3.823-2.907 36.92 36.92 0 0 1 5.716-1.254 13.52 13.52 0 0 0 3.07-.943 6.153 6.153 0 0 0 3.872-5.315c.122-1.262.334-2.514.633-3.745a9.63 9.63 0 0 1 5.182-5.914 9.153 9.153 0 0 1 3.984-.859c1.345 0 2.648.24 3.915.324a8.704 8.704 0 0 0 3.661-.387 4.51 4.51 0 0 0 1.513-.901c.419-.41.769-.886 1.035-1.408.556-1.014.922-2.112 1.528-3.098a7.809 7.809 0 0 1 2.33-2.33 18.851 18.851 0 0 1 5.456-2.112 33.286 33.286 0 0 0 4.604-1.408 11.57 11.57 0 0 0 3.112-1.81 6.885 6.885 0 0 0 1.457-1.738c.261-.451.359-.704.38-.704a4.677 4.677 0 0 1-.317.704 6.33 6.33 0 0 1-1.408 1.802 11.172 11.172 0 0 1-3.125 1.887 31.778 31.778 0 0 1-4.612 1.407 18.825 18.825 0 0 0-5.357 2.112 7.384 7.384 0 0 0-2.232 2.246c-.584.93-.936 2.035-1.506 3.09a5.52 5.52 0 0 1-1.098 1.472 4.777 4.777 0 0 1-1.613.972 8.98 8.98 0 0 1-3.801.415c-1.296-.084-2.584-.303-3.893-.317a8.761 8.761 0 0 0-3.837.831 9.275 9.275 0 0 0-5.006 5.688 27.884 27.884 0 0 0-.633 3.703 7.265 7.265 0 0 1-1.288 3.429 7.188 7.188 0 0 1-2.781 2.112 13.37 13.37 0 0 1-3.14.95 37.786 37.786 0 0 0-5.689 1.204 7.194 7.194 0 0 0-3.738 2.816 4.223 4.223 0 0 0-.471 3.429 3.52 3.52 0 0 0 1.246 1.844c.207.171.423.331.647.479Z"/><path fill="#455A64" d="M81.695 32.078c.134-.188.301-.35.493-.479a3.366 3.366 0 0 1 1.88-.584c1.05-.001 2.092.175 3.083.52.615.193 1.243.337 1.88.43.71.117 1.438.047 2.112-.204.72-.31 1.342-.81 1.802-1.443a8.027 8.027 0 0 0 1.169-2.267c.303-.838.535-1.739.852-2.647a17.6 17.6 0 0 1 1.218-2.725 10.293 10.293 0 0 1 4.47-4.498 8.258 8.258 0 0 1 3.33-.704c1.147-.035 2.295.042 3.443-.064a5.064 5.064 0 0 0 3.055-1.21 9.142 9.142 0 0 0 1.823-2.718 13.91 13.91 0 0 1 1.676-2.816 7.97 7.97 0 0 1 2.485-1.936 15.635 15.635 0 0 1 5.59-1.408c1.795-.176 3.47-.24 4.977-.457a13.221 13.221 0 0 0 3.921-1.106 8.586 8.586 0 0 0 2.513-1.774 5.993 5.993 0 0 0 1.12-1.584c.197-.401.274-.633.288-.626a3.162 3.162 0 0 1-.225.654 5.77 5.77 0 0 1-1.084 1.648 8.458 8.458 0 0 1-2.527 1.851c-1.253.6-2.593.998-3.971 1.176-1.521.24-3.203.317-4.984.5-1.894.13-3.749.607-5.47 1.408a7.579 7.579 0 0 0-2.38 1.865 13.554 13.554 0 0 0-1.626 2.746 9.39 9.39 0 0 1-1.894 2.816 5.397 5.397 0 0 1-3.252 1.302c-1.19.106-2.345 0-3.471.064a7.848 7.848 0 0 0-3.196.661c-1.863.96-3.38 2.48-4.337 4.344a18.299 18.299 0 0 0-1.204 2.668c-.324.894-.556 1.795-.873 2.647-.584 1.697-1.64 3.253-3.147 3.837a4.377 4.377 0 0 1-2.21.197 12.541 12.541 0 0 1-1.9-.457 9.397 9.397 0 0 0-3.028-.578 3.52 3.52 0 0 0-1.852.507c-.387.268-.535.486-.549.444ZM103.118 46.904s.112 0 .295-.134c.262-.16.457-.41.55-.704a1.54 1.54 0 0 0-.226-1.408 3.698 3.698 0 0 0-1.527-1.175 7.624 7.624 0 0 1-2.112-1.232 4.223 4.223 0 0 1-1.183-2.591 5.344 5.344 0 0 1 .633-3.077 6.939 6.939 0 0 1 2.345-2.421 16.408 16.408 0 0 1 6.096-2.049 26.145 26.145 0 0 0 5.041-1.26 9.045 9.045 0 0 0 2.95-1.83c.598-.578.838-.972.866-.951.028.021-.043.106-.162.289-.179.268-.382.52-.606.753a8.713 8.713 0 0 1-2.949 1.964 24.794 24.794 0 0 1-5.076 1.345c-1.922.38-4.083.802-5.97 2.027a6.705 6.705 0 0 0-2.239 2.295 5.104 5.104 0 0 0-.612 2.887 3.906 3.906 0 0 0 1.07 2.407 7.61 7.61 0 0 0 2.041 1.225 3.806 3.806 0 0 1 1.584 1.289 1.654 1.654 0 0 1 .19 1.52c-.116.308-.345.56-.64.704a.643.643 0 0 1-.359.127Z"/><path fill="#B78876" d="M111.962 83.639s-.81-.88-.543-1.697c.268-.817.747-1.408.951-1.352.204.057.134-4.407.95-4.745.572-.226 1.16-.407 1.76-.542 0 0 .951-2.435 1.493-2.372.542.063 6.568 1.154 6.568 1.154s4.745 5.083 4.47 5.555c-.274.472-.542 1.014-1.288.746-.509-.2-.997-.45-1.457-.746l2.527 2.767s-.486 2.112-2.555.62l1.013 1.288s-.612 2.647-3.59.408l-3.048-1.83h-1.964l4.47 2.731s.472 1.345-.88 1.338c-1.352-.007-4.759-1.803-4.759-1.803s-2.028 1.197-2.71 1.197c-.683 0-.866-.753-.866-.753l-.542-1.964Z"/><path fill="#AA6550" d="M124.95 83.174c-.367-.28-.717-.58-1.048-.901a22.797 22.797 0 0 1-2.479-2.246 2.115 2.115 0 0 0-1.52-.704 10.31 10.31 0 0 0-1.472.092c-.466.1-.952.079-1.408-.064 0-.049.528 0 1.359-.176a8.006 8.006 0 0 1 1.521-.176c.316.005.628.067.922.183.316.13.599.327.831.578.866.971 1.781 1.696 2.393 2.316.37.303.677.676.901 1.098ZM127.393 82.407a8.488 8.488 0 0 1-1.232-1.204c-.74-.767-1.76-1.824-2.915-2.957-.584-.556-1.126-1.126-1.654-1.542a3.06 3.06 0 0 0-1.655-.598c-1.042-.07-1.703 0-1.71 0a1.4 1.4 0 0 1 .45-.12 7.24 7.24 0 0 1 1.274-.091 3.233 3.233 0 0 1 1.831.584 21.152 21.152 0 0 1 1.71 1.556c1.162 1.14 2.155 2.225 2.816 3.034.409.405.773.854 1.085 1.338Z"/><path fill="#263238" d="M129.534 26.558c.183-.077.598.57 1.239 1.218.64.648 1.274 1.077 1.197 1.26-.078.183-.944 0-1.69-.774s-.922-1.647-.746-1.704Z"/><path fill="#D6221A" d="m181.495 83.005-6.259-32.173a2.413 2.413 0 0 0-4.333-.843 2.417 2.417 0 0 0-.405 1.766l.289 1.464L157.84 56.4a8.638 8.638 0 0 0-6.047 5.4l-7.807 1.922a5.05 5.05 0 0 0-3.696 6.103l.704 2.816-7.639 1.887a3.97 3.97 0 0 0 1.901 7.709l7.646-1.88.542 2.204a5.044 5.044 0 0 0 6.103 3.696l7.949-1.957v-.064a8.623 8.623 0 0 0 7.666 1.824l11.489-2.817.134.704a2.417 2.417 0 0 0 2.815 1.832 2.417 2.417 0 0 0 1.923-2.754l-.028-.02Z"/><path fill="#263238" d="M181.494 83.005c.049.176.071.36.064.542a2.42 2.42 0 0 1-.549 1.493 2.484 2.484 0 0 1-2.38.844 2.463 2.463 0 0 1-1.837-1.668c-.092-.31-.134-.627-.205-.95l.092.056-8.448 2.112-2.527.633a9.785 9.785 0 0 1-2.753.38 8.79 8.79 0 0 1-5.548-2.111l.212-.134v.056l.035.134h-.134c-2.682.655-5.491 1.408-8.511 2.077a5.219 5.219 0 0 1-4.414-1.549 5.1 5.1 0 0 1-1.246-2.147c-.219-.803-.402-1.605-.606-2.415l.19.12-6.448 1.626c-.557.12-1.085.289-1.683.38a4.125 4.125 0 0 1-4.062-6.174 4.337 4.337 0 0 1 3.02-2.035l7.195-1.767-.127.205c-.141-.585-.288-1.19-.443-1.803a11.653 11.653 0 0 1-.387-1.921 5.205 5.205 0 0 1 2.703-4.95 6.886 6.886 0 0 1 1.83-.633l7.223-1.774-.112.105a8.902 8.902 0 0 1 3.639-4.442 8.999 8.999 0 0 1 2.633-1.077l2.676-.662 10.165-2.485-.112.176c-.078-.38-.148-.767-.226-1.148a3.201 3.201 0 0 1-.077-1.19 2.557 2.557 0 0 1 3.64-1.893 2.516 2.516 0 0 1 1.408 1.725l1.541 7.962c.958 4.998 1.796 9.363 2.485 12.975.69 3.611 1.218 6.427 1.591 8.377.176.958.31 1.697.402 2.21.042.247.077.43.098.571a.928.928 0 0 1 0 .197.89.89 0 0 1-.049-.19c0-.14-.07-.324-.12-.563l-.457-2.21c-.387-1.944-.951-4.774-1.669-8.357-.718-3.583-1.57-7.97-2.555-12.96l-1.57-7.949a2.26 2.26 0 0 0-1.239-1.528 2.253 2.253 0 0 0-3.196 1.704c-.05.365-.026.736.07 1.091.077.38.155.76.225 1.148v.14l-.14.036-10.159 2.513c-1.753.486-3.64.704-5.21 1.697a8.585 8.585 0 0 0-3.52 4.28l-.035.085h-.084l-7.223 1.78a6.467 6.467 0 0 0-1.746.6 4.91 4.91 0 0 0-1.408 1.16 4.846 4.846 0 0 0-1.113 3.457c.073.632.2 1.256.38 1.866.148.62.303 1.225.444 1.81l.042.161-.169.042-7.152 1.767a3.951 3.951 0 0 0-2.816 1.873 3.783 3.783 0 0 0 .127 3.963 3.786 3.786 0 0 0 3.597 1.67c.535-.071 1.098-.247 1.647-.374l6.442-1.577.155-.035.035.148c.204.81.387 1.626.598 2.407a4.81 4.81 0 0 0 1.169 2.02 4.929 4.929 0 0 0 4.153 1.472c2.964-.662 5.822-1.408 8.491-2.049l-.092.162v-.056l-.098-.401.309.267a8.52 8.52 0 0 0 5.386 2.049 9.463 9.463 0 0 0 2.689-.366l2.528-.612 8.448-2.05h.077v.078c.07.324.113.655.197.944.085.284.223.55.408.781.344.418.817.71 1.345.83a2.387 2.387 0 0 0 2.865-2.224c.004-.176 0-.352-.014-.528Z"/><path fill="#263238" d="M176.904 83.174c-.091 0-1.598-6.66-3.365-14.91-1.767-8.251-3.133-14.968-3.034-14.989.099-.02 1.598 6.653 3.372 14.91 1.774 8.259 3.126 14.968 3.027 14.99ZM157.468 84.216c-.092 0-1.408-4.991-2.999-11.194-1.591-6.202-2.753-11.264-2.661-11.264.091 0 1.408 4.992 2.999 11.208 1.591 6.216 2.752 11.25 2.661 11.25ZM142.888 80.358a17.379 17.379 0 0 1-1.119-3.802 32.518 32.518 0 0 1-.775-3.886 17.61 17.61 0 0 1 1.112 3.809c.338 1.276.599 2.572.782 3.88Z"/><path fill="#fff" d="M149.829 63.652c0 .05-.753.162-1.964.415-.605.127-1.324.29-2.112.507-.848.218-1.666.54-2.436.958a3.377 3.377 0 0 0-1.725 1.788 5.218 5.218 0 0 0-.042 2.112c.155 1.218.359 1.964.31 1.978a6.456 6.456 0 0 1-.556-1.943 5.216 5.216 0 0 1 0-2.224c.125-.444.369-.845.704-1.162.344-.33.73-.614 1.147-.845a9.953 9.953 0 0 1 2.521-.971 26.513 26.513 0 0 1 2.112-.437 7.733 7.733 0 0 1 2.041-.176ZM168.345 55.113c-.211.102-.437.17-.669.204-.429.105-1.063.253-1.844.422l-6.097 1.282c-1.105.23-2.175.603-3.182 1.112a6.63 6.63 0 0 0-2.112 1.732 5.75 5.75 0 0 0-1.049 2.295 1.582 1.582 0 0 1 .049-.704c.155-.63.435-1.22.824-1.74a6.6 6.6 0 0 1 2.147-1.858 12.139 12.139 0 0 1 3.259-1.175c2.394-.514 4.555-.895 6.132-1.183.782-.14 1.408-.247 1.866-.317.222-.048.449-.072.676-.07ZM139.657 74.423a3.405 3.405 0 0 1-1.359.542c-.88.24-2.112.338-3.443.62a6.87 6.87 0 0 0-1.767.62c-.45.234-.857.543-1.203.915-.299.37-.557.77-.768 1.197.031-.504.235-.982.577-1.352a4.22 4.22 0 0 1 1.24-1.042 6.358 6.358 0 0 1 1.844-.704c1.359-.289 2.598-.345 3.464-.521.866-.176 1.394-.338 1.415-.275ZM173.617 49.636c0 .056-.26.049-.633.147-.476.13-.904.393-1.232.76-.317.383-.511.851-.556 1.345-.043.38 0 .634-.05.641-.049.007-.176-.218-.197-.648a2.273 2.273 0 0 1 .535-1.563 2.316 2.316 0 0 1 1.458-.774c.429-.05.682.05.675.092ZM276.183 44.89a.504.504 0 0 1-.126.085l-.402.218-1.555.81-5.773 2.95-19.374 9.757-.127.07-.092-.12a245.057 245.057 0 0 0-1.689-2.393l-2.401-3.407.225.05-18.057 10.425-5.379 3.07-1.464.81c-.155.084-.275.154-.38.204-.106.049-.134.07-.134.063 0-.007 0 0 .12-.092l.366-.232 1.408-.866 5.329-3.154 17.994-10.525.134-.084.092.134c.774 1.084 1.584 2.238 2.414 3.4.578.824 1.148 1.633 1.69 2.394l-.218-.057 19.416-9.659 5.822-2.85 1.584-.761.408-.183.169-.056ZM271.051 70.319c-.122.048-.25.083-.38.106l-1.112.246-4.126.873-13.805 2.675-.169.035v-.169l-.31-1.71a61.8 61.8 0 0 0-.197-1.127l.197.141c-5.597.958-10.56 2.112-14.08 3.07-1.781.464-3.203.865-4.224 1.14l-1.133.317c-.131.042-.265.07-.401.084a2.09 2.09 0 0 1 .38-.155l1.112-.373c.979-.316 2.394-.753 4.168-1.246a142.612 142.612 0 0 1 14.115-3.182h.169v.17c.063.358.134.745.204 1.126.106.59.204 1.168.303 1.71l-.204-.14 13.826-2.57 4.14-.704 1.126-.183c.126-.065.262-.11.401-.134ZM223.856 45.883c.084.042-1.704 3.914-4.006 8.645-2.302 4.731-4.224 8.533-4.315 8.49-.092-.042 1.71-3.907 4.005-8.645 2.295-4.737 4.231-8.532 4.316-8.49ZM244.876 64.863c0 .092-4.428 1.471-9.947 3.084-5.519 1.612-10.025 2.816-10.046 2.752-.021-.063 4.421-1.471 9.947-3.083 5.527-1.612 10.018-2.844 10.046-2.753ZM210.422 33.767c.12.224.217.46.289.704.183.521.422 1.211.704 2.056.612 1.816 1.443 4.323 2.429 7.272l.07.212h-.225l-5.499-.113.176-.204c.127.704.268 1.408.409 2.19.901 4.927 1.711 9.447 2.316 12.756.275 1.598.5 2.907.662 3.872.063.422.119.774.162 1.056.029.122.041.247.035.373a1.452 1.452 0 0 1-.106-.36c-.056-.28-.134-.626-.225-1.048l-.767-3.851-2.422-12.742c-.134-.747-.275-1.479-.401-2.183l-.043-.204h.212l5.498.14-.148.212-2.309-7.315a103.35 103.35 0 0 1-.627-2.112 5.813 5.813 0 0 1-.19-.71ZM186.114 86.814c-.043-.085 3.52-1.845 7.976-3.929 4.456-2.083 8.082-3.703 8.124-3.618.042.084-3.52 1.851-7.976 3.935-4.457 2.084-8.082 3.696-8.124 3.612ZM202.715 91.918a35.255 35.255 0 0 1 3.041-3.929 37.426 37.426 0 0 1 3.316-3.703 34.279 34.279 0 0 1-3.048 3.929 36.019 36.019 0 0 1-3.309 3.703ZM211.661 116.093c-.091 0 .514-6.864 1.366-15.312.852-8.448 1.612-15.29 1.711-15.277.099.014-.521 6.864-1.366 15.312-.845 8.448-1.612 15.284-1.711 15.277ZM199.447 55.437c.642.9 1.187 1.865 1.627 2.879.544.961.983 1.979 1.309 3.034a15.982 15.982 0 0 1-1.619-2.88 16.047 16.047 0 0 1-1.317-3.033Z"/></svg>