<svg width="44" height="44" viewBox="0 0 44 44" fill="none" xmlns="http://www.w3.org/2000/svg">
<rect width="44" height="44" rx="6" fill="white"/>
<path opacity="0.3" d="M21.5 14.7521L17.0919 20.0419C16.7236 20.4838 16.0668 20.5435 15.6248 20.1752C15.1829 19.8069 15.1232 19.1501 15.4915 18.7082L20.6998 12.4582C21.1163 11.9584 21.8838 11.9584 22.3003 12.4582L27.5086 18.7082C27.8769 19.1501 27.8172 19.8069 27.3752 20.1752C26.9333 20.5435 26.2764 20.4838 25.9081 20.0419L21.5 14.7521Z" fill="#3699FF"/>
<path d="M21 11V33" stroke="black" stroke-width="2" stroke-linecap="round" stroke-linejoin="round"/>
<path d="M26 15H18.5C17.5717 15 16.6815 15.3687 16.0251 16.0251C15.3687 16.6815 15 17.5717 15 18.5C15 19.4283 15.3687 20.3185 16.0251 20.9749C16.6815 21.6313 17.5717 22 18.5 22H23.5C24.4283 22 25.3185 22.3687 25.9749 23.0251C26.6313 23.6815 27 24.5717 27 25.5C27 26.4283 26.6313 27.3185 25.9749 27.9749C25.3185 28.6313 24.4283 29 23.5 29H15" stroke="black" stroke-width="2" stroke-linecap="round" stroke-linejoin="round"/>
</svg>
