<svg width="26" height="24" viewBox="0 0 26 24" fill="none" xmlns="http://www.w3.org/2000/svg">
<g opacity="0.38" clip-path="url(#clip0_453_493)" filter="url(#filter0_d_453_493)">
<path d="M4.7168 9.47808C4.7168 9.47808 7.62394 3.73897 12.7114 3.73897C17.7989 3.73897 20.7061 9.47808 20.7061 9.47808C20.7061 9.47808 17.7989 15.2172 12.7114 15.2172C7.62394 15.2172 4.7168 9.47808 4.7168 9.47808Z" stroke="white" stroke-width="1.4" stroke-linecap="round" stroke-linejoin="round"/>
<path d="M12.7116 11.6302C13.9158 11.6302 14.892 10.6666 14.892 9.47803C14.892 8.28942 13.9158 7.32587 12.7116 7.32587C11.5074 7.32587 10.5312 8.28942 10.5312 9.47803C10.5312 10.6666 11.5074 11.6302 12.7116 11.6302Z" stroke="white" stroke-width="1.4" stroke-linecap="round" stroke-linejoin="round"/>
</g>
<defs>
<filter id="filter0_d_453_493" x="-0.00976562" y="0.869385" width="25.4434" height="25.2173" filterUnits="userSpaceOnUse" color-interpolation-filters="sRGB">
<feFlood flood-opacity="0" result="BackgroundImageFix"/>
<feColorMatrix in="SourceAlpha" type="matrix" values="0 0 0 0 0 0 0 0 0 0 0 0 0 0 0 0 0 0 127 0" result="hardAlpha"/>
<feOffset dy="4"/>
<feGaussianBlur stdDeviation="2"/>
<feComposite in2="hardAlpha" operator="out"/>
<feColorMatrix type="matrix" values="0 0 0 0 0 0 0 0 0 0 0 0 0 0 0 0 0 0 0.25 0"/>
<feBlend mode="normal" in2="BackgroundImageFix" result="effect1_dropShadow_453_493"/>
<feBlend mode="normal" in="SourceGraphic" in2="effect1_dropShadow_453_493" result="shape"/>
</filter>
<clipPath id="clip0_453_493">
<rect width="17.4429" height="17.2173" fill="white" transform="translate(3.99023 0.869385)"/>
</clipPath>
</defs>
</svg>
