<svg width="50" height="50" viewBox="0 0 50 50" fill="none" xmlns="http://www.w3.org/2000/svg">
<rect width="50" height="50" rx="6" fill="white"/>
<path d="M20 30V17L32 15V28" stroke="black" stroke-width="2" stroke-linecap="round" stroke-linejoin="round"/>
<path d="M17 33C18.6569 33 20 31.6569 20 30C20 28.3431 18.6569 27 17 27C15.3431 27 14 28.3431 14 30C14 31.6569 15.3431 33 17 33Z" stroke="black" stroke-width="2" stroke-linecap="round" stroke-linejoin="round"/>
<path d="M29 31C30.6569 31 32 29.6569 32 28C32 26.3431 30.6569 25 29 25C27.3431 25 26 26.3431 26 28C26 29.6569 27.3431 31 29 31Z" stroke="black" stroke-width="2" stroke-linecap="round" stroke-linejoin="round"/>
</svg>
