<svg xmlns="http://www.w3.org/2000/svg" width="16" height="16" fill="none"><path fill="#121212" fill-rule="evenodd" d="M10.442 10.442a.995.995 0 0 1 1.09-.217c.121.05.232.124.325.217l3.85 3.85a1.001 1.001 0 0 1-1.414 1.415l-3.85-3.85a1.004 1.004 0 0 1-.294-.707.997.997 0 0 1 .293-.708Z" clip-rule="evenodd"/><path fill="#121212" fill-rule="evenodd" d="M6.5 12a5.49 5.49 0 0 0 3.89-1.611 5.505 5.505 0 0 0 1.191-5.994A5.505 5.505 0 0 0 6.501 1 5.498 5.498 0 0 0 1 6.5 5.499 5.499 0 0 0 6.5 12ZM13 6.5a6.5 6.5 0 1 1-12.999 0 6.5 6.5 0 0 1 13 0Z" clip-rule="evenodd"/></svg>